<svg width="12" height="12" viewBox="0 0 12 12" fill="none" xmlns="http://www.w3.org/2000/svg">
<g clip-path="url(#clip0_2_2363)">
<path fill-rule="evenodd" clip-rule="evenodd" d="M10.4239 0.93934C9.83805 0.353554 8.8883 0.353552 8.3025 0.93934L1.22372 8.01815C1.01432 8.22755 0.871585 8.49425 0.81351 8.7846L0.519975 10.2523C0.380031 10.952 0.99695 11.5689 1.69667 11.429L3.16434 11.1355C3.45473 11.0774 3.72143 10.9347 3.93083 10.7253L11.0096 3.64644C11.5954 3.06066 11.5954 2.11091 11.0096 1.52512L10.4239 0.93934ZM9.0096 1.64644C9.2049 1.45118 9.52145 1.45118 9.71675 1.64644L10.3025 2.23223C10.4978 2.42749 10.4978 2.74407 10.3025 2.93934L8.9667 4.27513L7.67385 2.98224L9.0096 1.64644ZM6.9667 3.68935L1.93083 8.72525C1.86103 8.79505 1.81345 8.88395 1.79409 8.98075L1.50056 10.4484L2.96823 10.1549C3.06502 10.1355 3.15392 10.088 3.22372 10.0182L8.2596 4.98224L6.9667 3.68935Z" fill="#000334" fill-opacity="0.7"/>
</g>
<defs>
<clipPath id="clip0_2_2363">
<rect width="12" height="12" fill="white"/>
</clipPath>
</defs>
</svg>
