<svg width="16" height="16" viewBox="0 0 16 16" fill="none" xmlns="http://www.w3.org/2000/svg">
<g opacity="0.67">
<path d="M14.1673 8.00003H5.93065M3.02332 8.00003H1.83398M3.02332 8.00003C3.02332 7.61458 3.17644 7.24492 3.44899 6.97237C3.72154 6.69981 4.0912 6.5467 4.47665 6.5467C4.8621 6.5467 5.23176 6.69981 5.50431 6.97237C5.77687 7.24492 5.92998 7.61458 5.92998 8.00003C5.92998 8.38548 5.77687 8.75514 5.50431 9.02769C5.23176 9.30024 4.8621 9.45336 4.47665 9.45336C4.0912 9.45336 3.72154 9.30024 3.44899 9.02769C3.17644 8.75514 3.02332 8.38548 3.02332 8.00003ZM14.1673 12.4047H10.3353M10.3353 12.4047C10.3353 12.7902 10.1818 13.1603 9.90921 13.4329C9.6366 13.7055 9.26685 13.8587 8.88132 13.8587C8.49587 13.8587 8.12621 13.7049 7.85366 13.4324C7.5811 13.1598 7.42798 12.7901 7.42798 12.4047M10.3353 12.4047C10.3353 12.0192 10.1818 11.6497 9.90921 11.3771C9.6366 11.1045 9.26685 10.9514 8.88132 10.9514C8.49587 10.9514 8.12621 11.1045 7.85366 11.377C7.5811 11.6496 7.42798 12.0192 7.42798 12.4047M7.42798 12.4047H1.83398M14.1673 3.59536H12.0973M9.18998 3.59536H1.83398M9.18998 3.59536C9.18998 3.20991 9.3431 2.84025 9.61566 2.5677C9.88821 2.29515 10.2579 2.14203 10.6433 2.14203C10.8342 2.14203 11.0232 2.17962 11.1995 2.25266C11.3758 2.32569 11.536 2.43275 11.671 2.5677C11.8059 2.70265 11.913 2.86287 11.986 3.0392C12.0591 3.21552 12.0966 3.40451 12.0966 3.59536C12.0966 3.78622 12.0591 3.9752 11.986 4.15153C11.913 4.32786 11.8059 4.48807 11.671 4.62302C11.536 4.75798 11.3758 4.86503 11.1995 4.93807C11.0232 5.0111 10.8342 5.0487 10.6433 5.0487C10.2579 5.0487 9.88821 4.89558 9.61566 4.62302C9.3431 4.35047 9.18998 3.98081 9.18998 3.59536Z" stroke="#000033" stroke-miterlimit="10" stroke-linecap="round"/>
</g>
</svg>
