<svg width="23" height="17" viewBox="0 0 23 17" fill="none" xmlns="http://www.w3.org/2000/svg">
<path d="M0.947516 16.5H21.477C22.1719 16.5 22.7404 16.2871 22.7404 15.5C22.7404 14.7129 22.1719 14.5571 21.477 14.5571H1.26335C0.568509 14.5571 0 14.7129 0 15.5C0 16.2871 0.252671 16.5 0.947516 16.5ZM1.26335 9H21.477C22.1719 9 22.7404 8.7871 22.7404 8C22.7404 7.2129 22.1719 7 21.477 7H1.26335C0.568509 7 0 7.2129 0 8C0 8.7871 0.568509 9 1.26335 9ZM0 1C0 1.7871 0.568509 1.99958 1.26335 1.99958H11.3702H21.477C22.1719 1.99958 22.7404 1.7871 22.7404 1C22.7404 0.212901 22.1719 0 21.477 0H1.42127C0.726429 0 0 0.212901 0 1Z" fill="#000334" fill-opacity="0.7"/>
</svg>
