<svg width="24" height="24" viewBox="0 0 24 24" fill="none" xmlns="http://www.w3.org/2000/svg">
<mask id="path-1-inside-1_1_36216" fill="white">
<path d="M20.4705 16.6875C19.9296 15.75 19.1252 13.1372 19.1252 9.75C19.1252 7.86033 18.3745 6.04806 17.0383 4.71186C15.7021 3.37567 13.8898 2.625 12.0002 2.625C10.1105 2.625 8.29824 3.37567 6.96205 4.71186C5.62585 6.04806 4.87518 7.86033 4.87518 9.75C4.87518 13.1372 4.06987 15.75 3.52893 16.6828C3.42915 16.8537 3.37622 17.0479 3.3755 17.2459C3.37477 17.4438 3.42626 17.6384 3.52478 17.81C3.6233 17.9817 3.76536 18.1243 3.93662 18.2235C4.10787 18.3227 4.30227 18.3749 4.50018 18.375H8.64674C8.74032 19.1989 9.13389 19.9594 9.75239 20.5117C10.3709 21.0639 11.171 21.3691 12.0002 21.3691C12.8293 21.3691 13.6295 21.0639 14.248 20.5117C14.8665 19.9594 15.26 19.1989 15.3536 18.375H19.5002C19.6973 18.3743 19.8908 18.3218 20.0613 18.2228C20.2318 18.1238 20.3732 17.9817 20.4715 17.8108C20.5698 17.6399 20.6214 17.4462 20.6212 17.249C20.621 17.0519 20.5691 16.8582 20.4705 16.6875ZM12.0002 20.625C11.369 20.6249 10.759 20.3975 10.2819 19.9842C9.80478 19.571 9.49254 18.9997 9.40237 18.375H14.598C14.5078 18.9997 14.1956 19.571 13.7185 19.9842C13.2414 20.3975 12.6314 20.6249 12.0002 20.625ZM19.8236 17.4375C19.7916 17.4948 19.7447 17.5424 19.688 17.5753C19.6313 17.6083 19.5667 17.6255 19.5011 17.625H4.50018C4.43456 17.6255 4.37002 17.6083 4.3133 17.5753C4.25657 17.5424 4.20973 17.4948 4.17768 17.4375C4.14477 17.3805 4.12744 17.3158 4.12744 17.25C4.12744 17.1842 4.14477 17.1195 4.17768 17.0625C4.87518 15.8597 5.62518 13.0612 5.62518 9.75C5.62518 8.05924 6.29683 6.43774 7.49238 5.24219C8.68792 4.04665 10.3094 3.375 12.0002 3.375C13.6909 3.375 15.3124 4.04665 16.508 5.24219C17.7035 6.43774 18.3752 8.05924 18.3752 9.75C18.3752 13.0603 19.1252 15.8597 19.8227 17.0625C19.8557 17.1194 19.8732 17.184 19.8734 17.2499C19.8736 17.3157 19.8564 17.3804 19.8236 17.4375Z"/>
</mask>
<path d="M20.4705 16.6875L19.6043 17.1873L19.6045 17.1875L20.4705 16.6875ZM12.0002 2.625V1.625V2.625ZM4.87518 9.75H3.87518H4.87518ZM3.52893 16.6828L4.39254 17.187L4.394 17.1845L3.52893 16.6828ZM4.50018 18.375L4.49991 19.375H4.50018V18.375ZM8.64674 18.375L9.64036 18.2621L9.53959 17.375H8.64674V18.375ZM15.3536 18.375V17.375H14.4608L14.36 18.2621L15.3536 18.375ZM19.5002 18.375V19.375L19.5037 19.375L19.5002 18.375ZM12.0002 20.625L12.0001 21.625H12.0003L12.0002 20.625ZM9.40237 18.375V17.375H8.24767L8.41263 18.5179L9.40237 18.375ZM14.598 18.375L15.5877 18.5179L15.7527 17.375H14.598V18.375ZM19.8236 17.4375L18.9563 16.9396L18.951 16.949L19.8236 17.4375ZM19.5011 17.625L19.5083 16.625H19.5011V17.625ZM4.50018 17.625V16.625L4.49297 16.625L4.50018 17.625ZM4.17768 17.4375L5.05034 16.949L5.04371 16.9375L4.17768 17.4375ZM4.17768 17.0625L3.31261 16.5609L3.31166 16.5625L4.17768 17.0625ZM5.62518 9.75H4.62518H5.62518ZM12.0002 3.375V2.375V3.375ZM18.3752 9.75H17.3752H18.3752ZM19.8227 17.0625L18.9576 17.5641L18.9579 17.5647L19.8227 17.0625ZM20.4705 16.6875L21.3367 16.1877C20.9091 15.4467 20.1252 13.0215 20.1252 9.75H19.1252H18.1252C18.1252 13.2529 18.95 16.0533 19.6043 17.1873L20.4705 16.6875ZM19.1252 9.75H20.1252C20.1252 7.59512 19.2692 5.52849 17.7454 4.00476L17.0383 4.71186L16.3312 5.41897C17.4799 6.56763 18.1252 8.12555 18.1252 9.75H19.1252ZM17.0383 4.71186L17.7454 4.00476C16.2217 2.48102 14.1551 1.625 12.0002 1.625V2.625V3.625C13.6246 3.625 15.1825 4.27031 16.3312 5.41897L17.0383 4.71186ZM12.0002 2.625V1.625C9.8453 1.625 7.77867 2.48102 6.25494 4.00476L6.96205 4.71186L7.66915 5.41897C8.81781 4.27031 10.3757 3.625 12.0002 3.625V2.625ZM6.96205 4.71186L6.25494 4.00476C4.73121 5.52849 3.87518 7.59512 3.87518 9.75H4.87518H5.87518C5.87518 8.12555 6.52049 6.56763 7.66915 5.41897L6.96205 4.71186ZM4.87518 9.75H3.87518C3.87518 13.022 3.09015 15.446 2.66386 16.1812L3.52893 16.6828L4.394 17.1845C5.04958 16.054 5.87518 13.2524 5.87518 9.75H4.87518ZM3.52893 16.6828L2.66532 16.1786C2.47685 16.5015 2.37688 16.8683 2.3755 17.2422L3.3755 17.2459L4.37549 17.2495C4.37557 17.2275 4.38145 17.206 4.39254 17.187L3.52893 16.6828ZM3.3755 17.2459L2.3755 17.2422C2.37413 17.616 2.47139 17.9836 2.65749 18.3078L3.52478 17.81L4.39208 17.3122C4.38113 17.2931 4.37541 17.2715 4.37549 17.2495L3.3755 17.2459ZM3.52478 17.81L2.65749 18.3078C2.84358 18.632 3.11191 18.9014 3.4354 19.0888L3.93662 18.2235L4.43784 17.3582C4.41881 17.3471 4.40302 17.3313 4.39208 17.3122L3.52478 17.81ZM3.93662 18.2235L3.4354 19.0888C3.75888 19.2762 4.12607 19.3749 4.49991 19.375L4.50018 18.375L4.50045 17.375C4.47847 17.375 4.45687 17.3692 4.43784 17.3582L3.93662 18.2235ZM4.50018 18.375V19.375H8.64674V18.375V17.375H4.50018V18.375ZM8.64674 18.375L7.65313 18.4879C7.77444 19.5558 8.28463 20.5418 9.08638 21.2576L9.75239 20.5117L10.4184 19.7657C9.98317 19.3771 9.7062 18.8419 9.64036 18.2621L8.64674 18.375ZM9.75239 20.5117L9.08638 21.2576C9.88814 21.9734 10.9254 22.3691 12.0002 22.3691V21.3691V20.3691C11.4167 20.3691 10.8536 20.1543 10.4184 19.7657L9.75239 20.5117ZM12.0002 21.3691V22.3691C13.075 22.3691 14.1122 21.9734 14.914 21.2576L14.248 20.5117L13.582 19.7657C13.1467 20.1543 12.5837 20.3691 12.0002 20.3691V21.3691ZM14.248 20.5117L14.914 21.2576C15.7157 20.5418 16.2259 19.5558 16.3472 18.4879L15.3536 18.375L14.36 18.2621C14.2942 18.8419 14.0172 19.3771 13.582 19.7657L14.248 20.5117ZM15.3536 18.375V19.375H19.5002V18.375V17.375H15.3536V18.375ZM19.5002 18.375L19.5037 19.375C19.8761 19.3737 20.2416 19.2745 20.5636 19.0875L20.0613 18.2228L19.559 17.3581C19.5401 17.3691 19.5186 17.3749 19.4967 17.375L19.5002 18.375ZM20.0613 18.2228L20.5636 19.0875C20.8856 18.9005 21.1528 18.6321 21.3384 18.3093L20.4715 17.8108L19.6046 17.3123C19.5937 17.3313 19.5779 17.3471 19.559 17.3581L20.0613 18.2228ZM20.4715 17.8108L21.3384 18.3093C21.524 17.9864 21.6215 17.6205 21.6212 17.2481L20.6212 17.249L19.6212 17.2499C19.6212 17.2718 19.6155 17.2933 19.6046 17.3123L20.4715 17.8108ZM20.6212 17.249L21.6212 17.2481C21.6209 16.8757 21.5227 16.51 21.3365 16.1875L20.4705 16.6875L19.6045 17.1875C19.6154 17.2065 19.6212 17.228 19.6212 17.2499L20.6212 17.249ZM12.0002 20.625L12.0003 19.625C11.6096 19.625 11.2319 19.4841 10.9366 19.2283L10.2819 19.9842L9.62719 20.7401C10.286 21.3108 11.1285 21.6249 12.0001 21.625L12.0002 20.625ZM10.2819 19.9842L10.9366 19.2283C10.6412 18.9725 10.4479 18.6189 10.3921 18.2321L9.40237 18.375L8.41263 18.5179C8.53714 19.3805 8.96833 20.1695 9.62719 20.7401L10.2819 19.9842ZM9.40237 18.375V19.375H14.598V18.375V17.375H9.40237V18.375ZM14.598 18.375L13.6083 18.2321C13.5524 18.6189 13.3591 18.9725 13.0638 19.2283L13.7185 19.9842L14.3732 20.7401C15.032 20.1695 15.4632 19.3805 15.5877 18.5179L14.598 18.375ZM13.7185 19.9842L13.0638 19.2283C12.7684 19.4841 12.3908 19.625 12.0001 19.625L12.0002 20.625L12.0003 21.625C12.8719 21.6249 13.7143 21.3108 14.3732 20.7401L13.7185 19.9842ZM19.8236 17.4375L18.951 16.949C19.0064 16.8501 19.0874 16.7678 19.1854 16.7108L19.688 17.5753L20.1906 18.4398C20.4021 18.3169 20.5767 18.1394 20.6962 17.926L19.8236 17.4375ZM19.688 17.5753L19.1854 16.7108C19.2834 16.6538 19.3949 16.6242 19.5083 16.625L19.5011 17.625L19.4939 18.625C19.7385 18.6267 19.9791 18.5628 20.1906 18.4398L19.688 17.5753ZM19.5011 17.625V16.625H4.50018V17.625V18.625H19.5011V17.625ZM4.50018 17.625L4.49297 16.625C4.60636 16.6242 4.71789 16.6538 4.81592 16.7108L4.3133 17.5753L3.81068 18.4398C4.02216 18.5628 4.26277 18.6267 4.50739 18.625L4.50018 17.625ZM4.3133 17.5753L4.81592 16.7108C4.91394 16.7678 4.99488 16.8501 5.05026 16.949L4.17768 17.4375L3.3051 17.926C3.42459 18.1394 3.59919 18.3169 3.81068 18.4398L4.3133 17.5753ZM4.17768 17.4375L5.04371 16.9375C5.09856 17.0325 5.12744 17.1403 5.12744 17.25H4.12744H3.12744C3.12744 17.4914 3.19098 17.7285 3.31166 17.9375L4.17768 17.4375ZM4.12744 17.25H5.12744C5.12744 17.3597 5.09856 17.4675 5.04371 17.5625L4.17768 17.0625L3.31166 16.5625C3.19098 16.7715 3.12744 17.0086 3.12744 17.25H4.12744ZM4.17768 17.0625L5.04275 17.5641C5.85932 16.156 6.62518 13.1641 6.62518 9.75H5.62518H4.62518C4.62518 12.9584 3.89104 15.5634 3.31261 16.5609L4.17768 17.0625ZM5.62518 9.75H6.62518C6.62518 8.32446 7.19147 6.95731 8.19948 5.9493L7.49238 5.24219L6.78527 4.53509C5.40219 5.91817 4.62518 7.79403 4.62518 9.75H5.62518ZM7.49238 5.24219L8.19948 5.9493C9.20749 4.94129 10.5746 4.375 12.0002 4.375V3.375V2.375C10.0442 2.375 8.16835 3.15201 6.78527 4.53509L7.49238 5.24219ZM12.0002 3.375V4.375C13.4257 4.375 14.7929 4.94129 15.8009 5.9493L16.508 5.24219L17.2151 4.53509C15.832 3.15201 13.9562 2.375 12.0002 2.375V3.375ZM16.508 5.24219L15.8009 5.9493C16.8089 6.95731 17.3752 8.32446 17.3752 9.75H18.3752H19.3752C19.3752 7.79403 18.5982 5.91817 17.2151 4.53509L16.508 5.24219ZM18.3752 9.75H17.3752C17.3752 13.1631 18.141 16.156 18.9576 17.5641L19.8227 17.0625L20.6878 16.5609C20.1093 15.5634 19.3752 12.9575 19.3752 9.75H18.3752ZM19.8227 17.0625L18.9579 17.5647C18.9028 17.4698 18.8737 17.3621 18.8734 17.2524L19.8734 17.2499L20.8734 17.2474C20.8728 17.006 20.8087 16.7691 20.6875 16.5603L19.8227 17.0625ZM19.8734 17.2499L18.8734 17.2524C18.8731 17.1427 18.9017 17.0348 18.9563 16.9397L19.8236 17.4375L20.6909 17.9353C20.8111 17.726 20.874 17.4887 20.8734 17.2474L19.8734 17.2499Z" fill="#000334" fill-opacity="0.7" mask="url(#path-1-inside-1_1_36216)"/>
</svg>
