<svg width="37" height="36" viewBox="0 0 37 36" fill="none" xmlns="http://www.w3.org/2000/svg">
<path d="M0.944336 11.6973C0.944336 5.62213 5.8692 0.697266 11.9443 0.697266H36.2471V25C36.2471 31.0751 31.3222 36 25.2471 36H0.944336V11.6973Z" fill="#0011FF"/>
<path d="M13.2235 18.3354V28.0808H12.0641V15.7411L25.6794 29.0553H28.2952L28.6816 7.12817H21.8352V16.6299L23.6577 18.3354V8.32894H27.1358V28.0808H25.9357L10.9047 13.1469V29.4537L14.6594 29.5426V20.0408L13.2235 18.3354Z" stroke="white" stroke-width="0.5"/>
<path d="M8.50865 29.299H9.74538V27.6006V25.7476V10.5526L25.6794 26.1317L25.4231 24.4263L8.50865 7.85908V26.1317V29.299Z" stroke="white" stroke-width="0.5"/>
<path d="M10.8152 7.12817H9.02121L25.9765 23.5239V9.44077H24.8171V20.9297L10.8152 7.12817Z" stroke="white" stroke-width="0.5"/>
</svg>
