<svg version="1.1" xmlns="http://www.w3.org/2000/svg" x="0" y="0" viewBox="0 0 266.7 133" enable-background="new 0 0 266.7 133" xml:space="preserve"><defs><filter id="a" filterUnits="userSpaceOnUse" x=".4" y="-.1" width="266.2" height="133.3"><feColorMatrix values="1 0 0 0 0 0 1 0 0 0 0 0 1 0 0 0 0 0 1 0"/></filter></defs><mask maskUnits="userSpaceOnUse" x=".4" y="-.1" width="266.2" height="133.3" id="b"><path fill="#FFF" filter="url(#a)" d="M266.6 0H.3v133.2h266.3V0z"/></mask><g mask="url(#b)"><path fill="#EEF" d="M20 29.8a.5.5 0 0 1-.5-.3l-1.8-5.1c-.1-.3 0-.5.3-.6.3-.1.5 0 .6.3l1.8 5.1c.1.3 0 .5-.3.6H20z"/><path fill="#EEF" d="M20.3 25.6h-.6c-1-.1-1.7-.6-1.9-1.2-.1-.3 0-.5.3-.6.3-.1.5 0 .6.3.1.3.5.5 1.1.6.7.1 1.6 0 2.5-.3 1.8-.6 2.8-1.8 2.6-2.4-.1-.3 0-.5.3-.6.3-.1.5 0 .6.3.5 1.3-.9 2.9-3.2 3.7l-2.3.2z"/><path fill="#EEF" d="M21.2 28.2c-.6 0-1.1-.1-1.6-.3-.5-.2-.8-.5-.9-.9-.1-.3 0-.5.3-.6.3-.1.5 0 .6.3l.4.4c.7.3 1.9.3 3.1-.2 1.8-.6 2.8-1.8 2.6-2.4-.1-.3 0-.5.3-.6.3-.1.5 0 .6.3.5 1.3-.9 2.9-3.2 3.7l-2.2.3z"/><path fill="#EEF" d="M22.1 30.7c-.6 0-1.1-.1-1.6-.3-.5-.2-.8-.5-.9-.9-.1-.3 0-.5.3-.6.3-.1.5 0 .6.3l.4.4c.7.3 1.9.3 3.1-.2 1.8-.6 2.8-1.8 2.6-2.4-.1-.3 0-.5.3-.6.3-.1.5 0 .6.3.5 1.3-.9 2.9-3.2 3.7-.7.2-1.5.3-2.2.3z"/><path fill="#EEF" d="M27.2 27.4a.5.5 0 0 1-.5-.3l-1.8-5.2c-.1-.3 0-.5.3-.6.3-.1.5 0 .6.3l1.8 5.2c.1.3 0 .5-.3.6h-.1z"/><path fill="#EEF" d="M20.3 25.7h-.6c-1-.1-1.7-.6-1.9-1.2-.5-1.3.9-2.9 3.2-3.7 2.3-.8 4.4-.5 4.8.8.5 1.3-.9 2.9-3.2 3.7-.8.2-1.6.4-2.3.4zm3.1-4.4a5 5 0 0 0-2 .4c-1.8.6-2.8 1.8-2.6 2.4.1.3.5.5 1.1.6.7.1 1.6 0 2.5-.3 1.8-.6 2.8-1.8 2.6-2.4-.2-.5-.8-.7-1.6-.7z"/><path fill="#EEF" d="M20.3 25.7h-.6c-1-.1-1.7-.6-1.9-1.2-.1-.3 0-.5.3-.6.3-.1.5 0 .6.3.1.3.5.5 1.1.6.7.1 1.6 0 2.5-.3 1.8-.6 2.8-1.8 2.6-2.4-.1-.3 0-.5.3-.6.3-.1.5 0 .6.3.5 1.3-.9 2.9-3.2 3.7l-2.3.2z"/><path fill="#FFF" d="M20.1 16.1c.8.6.4 2.5-.8 4.1-1.3 1.6-3 2.4-3.8 1.8l4.6-5.9z"/><path fill="#EEF" d="M16.2 22.7c-.4 0-.7-.1-1-.3-.2-.2-.3-.5-.1-.7.2-.2.5-.3.7-.1.5.4 1.9-.2 3.1-1.7.6-.7 1-1.5 1.1-2.2.1-.6 0-1-.2-1.2-.2-.2-.3-.5-.1-.7.2-.2.5-.3.7-.1.6.4.7 1.2.5 2.2-.2.9-.6 1.8-1.3 2.6a8 8 0 0 1-2.3 1.9 2 2 0 0 1-1.1.3z"/><path fill="#FFF" d="m20.3 16.2 2 1.5c.8.6.4 2.5-.8 4.1-1.3 1.6-3 2.4-3.8 1.8l-2-1.6 4.6-5.8z"/><path fill="#EEF" d="M18.3 24.4c-.4 0-.7-.1-1-.3l-2-1.6c-.3-.2-.3-.5-.1-.7.2-.2.5-.3.7-.1l2 1.6c.5.4 1.9-.2 3.1-1.7.6-.7 1-1.5 1.1-2.2.1-.6 0-1-.2-1.2l-2-1.5c-.2-.2-.3-.5-.1-.7.2-.2.5-.3.7-.1l2 1.5c.6.4.7 1.2.5 2.2-.2.9-.6 1.8-1.3 2.6-1 1.4-2.3 2.2-3.4 2.2z"/><path fill="#FFF" d="M19.3 20.2c1.3-1.6 1.7-3.5.8-4.1-.8-.6-2.5.2-3.8 1.8-1.3 1.6-1.7 3.5-.8 4.1.8.6 2.5-.2 3.8-1.8z"/><path fill="#EEF" d="M16.2 22.7c-.4 0-.7-.1-1-.3-.6-.4-.7-1.2-.5-2.2.2-.9.6-1.8 1.3-2.6a8 8 0 0 1 2.3-1.9c.9-.4 1.7-.4 2.2 0 1.1.8.7 2.9-.8 4.8a8 8 0 0 1-2.3 1.9l-1.2.3zm3.3-6.3-.8.2c-.6.3-1.3.9-1.9 1.6-.6.7-1 1.5-1.1 2.2-.1.6 0 1 .2 1.2.2.2.7.1 1.2-.1.6-.3 1.3-.9 1.9-1.6 1.2-1.5 1.4-3 .9-3.4l-.4-.1zm-.2 3.8zM108.1 119.3a3.2 3.2 0 0 1-3.2-3.2c0-1.8 1.4-3.2 3.2-3.2 1.8 0 3.2 1.4 3.2 3.2 0 1.8-1.4 3.2-3.2 3.2zm0-5.3c-1.2 0-2.2 1-2.2 2.2s1 2.2 2.2 2.2c1.2 0 2.2-1 2.2-2.2s-1-2.2-2.2-2.2zM95.4 54.8a4 4 0 0 1-3.2-1.5 4.2 4.2 0 0 1 .5-5.8c.2-.2.5-.1.7.1.2.2.1.5-.1.7a3.2 3.2 0 0 0-.4 4.4 3.2 3.2 0 0 0 4.4.4c.2-.2.5-.1.7.1.2.2.1.5-.1.7-.6.6-1.6.9-2.5.9zM42.4 96.4c-1.6 0-3-1.3-3-3s1.3-3 3-3c1.6 0 3 1.3 3 3s-1.4 3-3 3zm0-5c-1.1 0-2 .9-2 2s.9 2 2 2 2-.9 2-2-.9-2-2-2zM42.3 42a3 3 0 0 1-3-3 3 3 0 0 1 3-3 3 3 0 0 1 3 3c-.1 1.7-1.4 3-3 3zm0-4.9c-1.1 0-2 .9-2 2s.9 2 2 2 2-.9 2-2-1-2-2-2zM112.9 38a8.2 8.2 0 0 1-8.2-8.2c0-4.5 3.7-8.2 8.2-8.2 4.5 0 8.2 3.7 8.2 8.2 0 4.5-3.6 8.2-8.2 8.2zm0-15.5c-4 0-7.2 3.2-7.2 7.2s3.2 7.2 7.2 7.2 7.2-3.2 7.2-7.2c0-3.9-3.2-7.2-7.2-7.2z"/><path fill="#EEF" d="m111 32.4-.3-.1c-.2-.2-.3-.5-.1-.7l3.5-4.5c.2-.2.5-.3.7-.1.2.2.3.5.1.7l-3.5 4.5c-.1.2-.3.2-.4.2z"/><path fill="#EEF" d="m115 31.9-.3-.1-4.5-3.5c-.2-.2-.3-.5-.1-.7.2-.2.5-.3.7-.1l4.5 3.5c.2.2.3.5.1.7-.1.2-.3.2-.4.2zM3.4 132.8.6 130l-.2-.1v1.3l2 2h1.2l-.2-.4zM136.7 132.8l-2.8-2.8a.5.5 0 0 0-.7 0l-2.8 2.8-.2.4h1.2l2.1-2.1 2.1 2.1h1.2l-.1-.4z"/><path fill="#EEF" d="M3.4 132.8.6 130l-.2-.1v1.3l2 2h1.2l-.2-.4zM136.7 132.8l-2.8-2.8a.5.5 0 0 0-.7 0l-2.8 2.8-.2.4h1.2l2.1-2.1 2.1 2.1h1.2l-.1-.4zM2.3-.1l-1.9 2v1.4l.2-.1L3.4.4c.2-.2.2-.4.2-.5H2.3zM135.6-.1l-2.1 2.2-2.1-2.1.1-.1h-1.3V0l.1.4 2.8 2.8.4.1.4-.1 2.8-2.8c.1-.1.2-.3.1-.4h-1.2zM22.8 118.4l-1.5-.1c-5-.9-8.3-5.6-7.5-10.6a9.2 9.2 0 0 1 10.5-7.5 9.2 9.2 0 0 1 7.5 10.5c0 .3-.3.5-.6.4-.3 0-.5-.3-.4-.6.4-2.1-.1-4.3-1.4-6.1a7.8 7.8 0 0 0-5.3-3.3c-2.2-.4-4.3.1-6.1 1.4a7.8 7.8 0 0 0-3.3 5.3c-.4 2.1.1 4.3 1.4 6.1a8.1 8.1 0 0 0 9.4 2.9c.3-.1.5 0 .6.3.1.3 0 .5-.3.6-.9.6-1.9.7-3 .7z"/><path fill="#EEF" d="M21.2 112.1h-.1c-.2 0-.3-.2-.3-.3l-1.1-3.1c-.1-.3 0-.5.3-.6.3-.1.5 0 .6.3l.8 2.4 4.9-3.8c.2-.2.5-.1.7.1.2.2.1.5-.1.7l-5.5 4.2c.1.1-.1.1-.2.1zM23.5 121l-.3-.1c-.2-.2-.3-.5-.1-.7l2.1-2.6-2.8-1.6c-.2-.1-.3-.4-.2-.7.1-.2.4-.3.7-.2l3.4 1.9.2.3-.1.4-2.4 3.1-.5.2zM93.9 123.2l-35.6-11.1-.5-.1h-.3c-.6 0-1.2.1-1.7.4l-.3.2-.5.4-.3.4-.2.2-.1.2-.1.2-.1.3-.9 2.9v.1l-5 16h1.1l4.8-15.3.3-1 .8-2.4c.2-.6.6-1 1.1-1.3a2 2 0 0 1 1-.3l.7.1 35.6 11.1c1.2.4 1.8 1.6 1.5 2.8l-.8 2.4-.3 1-.9 2.8h1.1l.9-3 .9-2.9c.5-1.7-.5-3.6-2.2-4.1z"/><path fill="#EEF" d="M94.6 130.5h-.1l-40.8-12.8-.3-.2a.3.3 0 0 1 0-.4l.9-2.9c.3-.8.8-1.5 1.6-1.9.8-.4 1.6-.5 2.5-.2L94 123.2c1.7.5 2.7 2.4 2.1 4.1l-.9 2.9-.6.3zm-40.2-13.6 39.9 12.5.8-2.4c.4-1.2-.3-2.4-1.5-2.8L58 113a2 2 0 0 0-1.7.2c-.5.3-.9.7-1.1 1.3l-.8 2.4z"/><path fill="#EEF" d="M57.4 116.4h-.2l-.5-.4-.1-.7c.1-.5.6-.7 1.1-.6.4.1.7.6.5 1.1-.1.4-.4.6-.8.6zm-.1-.9.1.2.2-.1-.3-.1zm.5.1zm-.4-.2-.1.1.3.1-.2-.2c.1 0 0 0 0 0zM60 117.3h-.2c-.4-.1-.7-.6-.5-1.1.1-.5.6-.7 1.1-.6l.5.4.1.7c-.2.3-.6.6-1 .6zm-.1-1s0 .1 0 0l.1.2.2-.1-.3-.1zm.5.2zm-.3-.2-.1.1.3.1-.2-.2zM62.7 118.1h-.2c-.2-.1-.4-.2-.5-.5a.6.6 0 0 1 0-.6l.4-.5.6-.1.5.4.1.7-.4.5-.5.1zm-.2-1c0 .1 0 .1 0 0l.1.2h.1v-.1l-.2-.1zm.5.2zm-.3-.2c-.1 0-.1 0 0 0l.1.1-.1-.1zM61.5 133.1h-3.3l-.9-.3c-.3-.1-.4-.4-.3-.6.1-.3.4-.4.6-.3l3.9 1.2zM75.1 128.2a3.6 3.6 0 0 0-2.2-1.8c-1-.3-2-.2-2.8.3-.9.5-1.5 1.2-1.8 2.2-.5 1.7.2 3.5 1.7 4.4h3.6c.8-.5 1.5-1.2 1.7-2.1.4-1.1.3-2.1-.2-3zm-.7 2.5c-.2.7-.7 1.3-1.3 1.6a3 3 0 0 1-2.1.2c-1.4-.5-2.2-2-1.8-3.4a2.6 2.6 0 0 1 2.6-1.9l.8.1a2.6 2.6 0 0 1 1.9 2.6c.1.3 0 .5-.1.8zM93.1-.1 85.3 25a2.3 2.3 0 0 1-2.8 1.5L46.9 15.4c-.6-.2-1-.6-1.3-1.1-.3-.5-.3-1.1-.2-1.7l4-12.7h-1l-3.9 12.4c-.3.8-.2 1.7.2 2.5s1.1 1.3 1.9 1.6l35.6 11.1 1 .1c1.4 0 2.7-.9 3.1-2.3l8-25.5h-1.2z"/><path fill="#EEF" d="M83.5 7.4c-.1.2-.3.4-.5.4h-.2L57.8 0h3.4l21.9 6.9c.4-.1.5.2.4.5zM81.4 12.7h-.1l-25.6-8c-.3-.1-.4-.4-.3-.6.1-.3.4-.4.6-.3l25.6 8c.3.1.4.4.3.6-.1.1-.3.3-.5.3zM72.4 19.8h-.1l-13.2-4.1-.3-.2a.3.3 0 0 1 0-.4l1.4-4.5c.1-.3.4-.4.6-.3l13.2 4c.3.1.4.4.3.6l-1.4 4.5-.2.3-.3.1zm-12.5-5 12.2 3.8 1.1-3.6L61 11.2l-1.1 3.6zM69.9-.1l.8.4 1.1.2c.6 0 1.2-.1 1.7-.4l.2-.1h-3.8zM230.9 96.4c-.3 0-.5-.2-.5-.5v-5.4c0-.3.2-.5.5-.5s.5.2.5.5v5.4c0 .3-.2.5-.5.5z"/><path fill="#EEF" d="M234.7 92.9c-2.4 0-4.3-1-4.3-2.4 0-.3.2-.5.5-.5s.5.2.5.5c0 .6 1.4 1.4 3.3 1.4 1.3 0 2.5-.3 3-.9.2-.2.2-.3.2-.5 0-.3.2-.5.5-.5s.5.2.5.5c0 .4-.2.8-.5 1.2-.7.7-2.1 1.2-3.7 1.2z"/><path fill="#EEF" d="M234.7 95.6c-2.4 0-4.3-1-4.3-2.4 0-.3.2-.5.5-.5s.5.2.5.5c0 .7 1.4 1.4 3.3 1.4 1.3 0 2.5-.3 3-.9.2-.2.2-.3.2-.5 0-.3.2-.5.5-.5s.5.2.5.5c0 .4-.2.8-.5 1.2-.7.7-2.1 1.2-3.7 1.2z"/><path fill="#EEF" d="M234.7 98.3c-2.4 0-4.3-1-4.3-2.4 0-.3.2-.5.5-.5s.5.2.5.5c0 .6 1.4 1.4 3.3 1.4 1.3 0 2.5-.3 3-.9.2-.2.2-.3.2-.5 0-.3.2-.5.5-.5s.5.2.5.5c0 .4-.2.8-.5 1.2-.7.7-2.1 1.2-3.7 1.2z"/><path fill="#EEF" d="M238.4 96.5c-.3 0-.5-.2-.5-.5v-5.5c0-.3.3-.5.5-.5.3 0 .5.2.5.5V96c0 .3-.2.5-.5.5z"/><path fill="#EEF" d="M234.7 92.9c-1.1 0-2.1-.2-2.9-.6-.9-.4-1.4-1.1-1.4-1.8s.5-1.3 1.4-1.8c.8-.4 1.8-.6 2.9-.6 2.4 0 4.3 1 4.2 2.4.1 1.4-1.8 2.4-4.2 2.4zm0-3.7c-.9 0-1.8.2-2.4.5-.5.3-.8.6-.8.9 0 .3.3.6.8.9.6.3 1.5.5 2.4.5 1.9 0 3.3-.7 3.3-1.4s-1.4-1.4-3.3-1.4zm3.8 1.4z"/><path fill="#EEF" d="M234.7 92.9c-2.4 0-4.3-1-4.3-2.4 0-.3.2-.5.5-.5s.5.2.5.5c0 .6 1.4 1.4 3.3 1.4 1.3 0 2.5-.3 3-.9.2-.2.2-.3.2-.5 0-.3.2-.5.5-.5s.5.2.5.5c0 .4-.2.8-.5 1.2-.7.8-2.1 1.2-3.7 1.2z"/><path fill="#FFF" d="M235.5 83.5c.6.9-.4 2.5-2.2 3.6-1.8 1.1-3.6 1.3-4.2.4l6.4-4z"/><path fill="#EEF" d="M230.4 88.5c-.8 0-1.4-.3-1.7-.8a.5.5 0 0 1 .2-.7c.2-.1.5-.1.7.2.3.6 1.9.4 3.5-.6s2.4-2.4 2-2.9a.5.5 0 0 1 .2-.7c.2-.1.5-.1.7.2.7 1.1-.3 3-2.3 4.3-1.3.7-2.4 1-3.3 1z"/><path fill="#FFF" d="m235.6 83.6 1.3 2.1c.6.9-.4 2.5-2.2 3.6-1.8 1.1-3.6 1.3-4.2.4l-1.4-2.2 6.5-3.9z"/><path fill="#EEF" d="M231.9 90.8c-.8 0-1.4-.3-1.8-.8l-1.4-2.2a.5.5 0 0 1 .2-.7c.2-.1.5-.1.7.2l1.4 2.2c.4.6 1.9.4 3.5-.6s2.4-2.4 2-2.9l-1.3-2.1a.5.5 0 0 1 .2-.7c.2-.1.5-.1.7.2l1.3 2.1c.7 1.1-.3 3-2.3 4.3-1.2.7-2.3 1-3.2 1z"/><path fill="#FFF" d="M233.3 87.1c1.8-1.1 2.7-2.7 2.2-3.6-.6-.9-2.4-.7-4.2.4-1.8 1.1-2.7 2.7-2.2 3.6.6.9 2.5.7 4.2-.4z"/><path fill="#EEF" d="M230.5 88.6c-.8 0-1.4-.3-1.7-.8-.7-1.1.3-3 2.3-4.3 2.1-1.3 4.1-1.4 4.9-.2.4.6.3 1.4-.2 2.2-.5.7-1.2 1.5-2.1 2a6.8 6.8 0 0 1-3.2 1.1zm3.7-5.2c-.7 0-1.6.3-2.6.9-1.6 1-2.4 2.3-2 2.9.3.5 1.9.4 3.5-.6a6 6 0 0 0 1.8-1.7c.3-.5.4-.9.2-1.2-.2-.1-.5-.3-.9-.3zm-.9 3.7zM247.3 118.7a3.2 3.2 0 0 1-3.2-3.2c0-1.8 1.4-3.2 3.2-3.2 1.8 0 3.2 1.4 3.2 3.2 0 1.7-1.5 3.2-3.2 3.2zm0-5.4c-1.2 0-2.2 1-2.2 2.2 0 1.2 1 2.2 2.2 2.2 1.2 0 2.2-1 2.2-2.2 0-1.2-1-2.2-2.2-2.2zM233.6 51.8a4 4 0 0 1-3.2-1.5 4.2 4.2 0 0 1 .5-5.8c.2-.2.5-.1.7.1.2.2.1.5-.1.7a3.2 3.2 0 0 0-.4 4.4 3.2 3.2 0 0 0 4.4.4c.2-.2.5-.1.7.1.2.2.1.5-.1.7-.7.6-1.6.9-2.5.9zM182.9 95.4c-1.6 0-3-1.3-3-3s1.3-3 3-3c1.6 0 3 1.3 3 3s-1.4 3-3 3zm0-5c-1.1 0-2 .9-2 2s.9 2 2 2 2-.9 2-2-.9-2-2-2zM185.5 44.7a3 3 0 0 1-3-3 3 3 0 0 1 3-3 3 3 0 0 1 3 3 3 3 0 0 1-3 3zm0-4.9c-1.1 0-2 .9-2 2s.9 2 2 2 2-.9 2-2-.9-2-2-2zM154.4 122.3a8.2 8.2 0 0 1-8.2-8.2c0-4.5 3.7-8.2 8.2-8.2 4.5 0 8.2 3.7 8.2 8.2a8.1 8.1 0 0 1-8.2 8.2zm0-15.4c-4 0-7.2 3.2-7.2 7.2s3.2 7.2 7.2 7.2 7.2-3.2 7.2-7.2c.1-4-3.2-7.2-7.2-7.2z"/><path fill="#EEF" d="m152.5 116.8-.3-.1c-.2-.2-.3-.5-.1-.7l3.5-4.5c.2-.2.5-.3.7-.1.2.2.3.5.1.7l-3.5 4.5-.4.2z"/><path fill="#EEF" d="m156.5 116.3-.3-.1-4.5-3.5c-.2-.2-.3-.5-.1-.7.2-.2.5-.3.7-.1l4.5 3.5c.2.2.3.5.1.7l-.4.2zM266.4 130l-2.8 2.8-.2.4h1.2l2.1-2.1v-1.3c-.2 0-.3.1-.3.2z"/><path fill="#EEF" d="m266.4 130-2.8 2.8-.2.4h1.2l2.1-2.1v-1.3c-.2 0-.3.1-.3.2zM264.6-.1l-1.2-.1.1.4 2.8 2.8.3.1V2l-2-2.1zM250.3 31.1l-1.5-.1a9.2 9.2 0 0 1-7.5-10.5 9.2 9.2 0 0 1 10.5-7.5 9.2 9.2 0 0 1 7.5 10.5c0 .3-.3.5-.6.4-.3 0-.5-.3-.4-.6.4-2.1-.1-4.3-1.4-6.1a7.8 7.8 0 0 0-5.3-3.3c-2.1-.4-4.3.1-6.1 1.4a7.8 7.8 0 0 0-3.3 5.3c-.4 2.1.1 4.3 1.4 6.1a8.1 8.1 0 0 0 9.4 2.9c.3-.1.5 0 .6.3.1.3 0 .5-.3.6-.9.4-2 .6-3 .6z"/><path fill="#EEF" d="M248.7 24.7h-.1c-.2 0-.3-.2-.3-.3l-1.1-3.1c-.1-.3 0-.5.3-.6.3-.1.5 0 .6.3l.8 2.4 4.9-3.8c.2-.2.5-.1.7.1.2.2.1.5-.1.7l-5.5 4.2-.2.1zM251 33.7l-.3-.1c-.2-.2-.3-.5-.1-.7l2.1-2.6-2.8-1.6c-.2-.1-.3-.4-.2-.7.1-.2.4-.3.7-.2l3.4 1.9.2.3-.1.4-2.4 3.1-.5.2zM228.8 124.4l-.3-.4-.3-.3-.7-.4-.4-.1-35.6-11.1c-.4-.1-.9-.2-1.3-.1h-.4l-.3.1-.3.1-.3.1-.5.3-.2.2-.2.2-.2.3-.4.9-.9 2.9-5 16h1l4.8-15.3.3-1 .8-2.4.1-.3.1-.2.2-.3.3-.3.4-.2.4-.2.2-.1h.8l.3.1 35.6 11.1.3.1.2.1h.1l.2.1.1.1.3.3.1.1.2.3c.2.3.3.7.3 1.1l-.1.7-.8 2.4-.3 1-.9 2.8h1.1l.9-3 .9-2.9c.1-1-.1-2-.6-2.8z"/><path fill="#EEF" d="M227.8 130.5h-.1l-40.8-12.8c-.3-.1-.4-.4-.3-.6l.9-2.9c.3-.8.8-1.5 1.6-1.9.8-.4 1.6-.5 2.5-.2l-.1.5.1-.5 35.6 11.1c1.7.5 2.7 2.4 2.1 4.1l-.9 2.9c-.1.2-.3.3-.6.3zm-40.1-13.6 39.9 12.5.8-2.4c.2-.6.1-1.2-.2-1.7s-.7-.9-1.3-1.1L191.2 113c-.5-.2-1.1-.1-1.7.2-.5.3-.9.7-1.1 1.3l-.7 2.4z"/><path fill="#EEF" d="M190.6 116.4h-.2c-.2-.1-.4-.2-.5-.5a.6.6 0 0 1 0-.6c.1-.5.6-.7 1.1-.6.4.1.7.6.5 1.1-.2.4-.5.6-.9.6zm-.1-.9.1.1.2-.1h-.3zm.5.1zm-.4-.2-.1.1.3.1-.2-.2c.1 0 0 0 0 0zM193.2 117.2h-.2c-.4-.1-.7-.6-.5-1.1l.4-.5.6-.1.5.4.1.7-.4.5-.5.1zm-.1-.9s0 .1 0 0l.1.2h.1c.1-.1 0-.2-.1-.2 0-.1-.1 0-.1 0zm0 0zM195.9 118.1h-.2c-.2-.1-.4-.2-.5-.5a.6.6 0 0 1 0-.6l.4-.5.6-.1.5.4.1.7-.4.5-.5.1zm-.2-1c0 .1 0 .1 0 0l.1.2h.1c.1-.1 0-.2-.1-.2h-.1c.1 0 0 0 0 0zM194.7 133.1h-3.3l-.9-.3c-.3-.1-.4-.4-.3-.6.1-.3.4-.4.6-.3l3.9 1.2zM208.3 128.2a3.6 3.6 0 0 0-2.2-1.8c-1-.3-2-.2-2.8.3-.9.5-1.5 1.2-1.8 2.2-.5 1.7.2 3.5 1.7 4.4h3.6c.8-.5 1.5-1.2 1.7-2.1.4-1.1.3-2.1-.2-3zm-.7 2.5c-.2.7-.7 1.3-1.3 1.6a3 3 0 0 1-2.1.2c-1.4-.5-2.2-2-1.8-3.4a2.6 2.6 0 0 1 2.6-1.9l.8.1a2.6 2.6 0 0 1 1.9 2.6c.1.3 0 .5-.1.8zM226.4-.1 218.5 25a2.3 2.3 0 0 1-2.8 1.5l-35.6-11.1c-.6-.2-1-.6-1.3-1.1-.3-.5-.3-1.1-.2-1.7l4-12.7h-1.1l-3.9 12.4c-.3.8-.2 1.7.2 2.5s1.1 1.3 1.9 1.6l35.6 11.1 1 .1c1.4 0 2.7-.9 3.1-2.3l8-25.4h-1z"/><path fill="#EEF" d="M216.7 7.4c-.1.2-.3.4-.5.4h-.2L191.1 0h3.4l21.9 6.9c.3-.1.4.2.3.5zM214.6 12.7h-.1l-25.6-8c-.3-.1-.4-.4-.3-.6.1-.3.4-.4.6-.3l25.6 8c.3.1.4.4.3.6-.1.1-.3.3-.5.3zM205.6 19.8h-.1l-13.2-4.1c-.3-.1-.4-.4-.3-.6l1.4-4.5.2-.3c.1-.1.3-.1.4 0l13.2 4.1c.3.1.4.4.3.6l-1.4 4.5-.2.3h-.3zm-12.5-5 12.2 3.8 1.1-3.6-12.2-3.8-1.1 3.6zM203.1-.1l.8.4 1.1.2c.6 0 1.2-.1 1.7-.4l.2-.1h-3.8zM3.2 79.2c-.1.2-.3.3-.5.3h-.2l-1-.4-.9-.3-.2-.1v-1.1l2.5.9c.3.2.4.5.3.7zM22.3 65.2l-1 2.8c-.1.3-.4.4-.6.3-.3-.1-.4-.4-.3-.6l1-2.8a5 5 0 0 0-3.1-6.3L.4 52.4v-1.1l18.1 6.2a6.2 6.2 0 0 1 3.8 7.7zM19.5 85.2l-1-.2-11.1-3.8c-1.6-.5-2.4-2.3-1.9-3.9l2.6-7.6A3 3 0 0 1 9.6 68c.7-.4 1.6-.4 2.3-.1L23 71.7c.8.3 1.4.8 1.8 1.5.4.7.4 1.6.1 2.3l-2.6 7.6c-.3.8-.8 1.4-1.5 1.8a3 3 0 0 1-1.3.3zM11 68.7l-.9.2c-.5.2-.9.7-1 1.2l-2.6 7.6c-.4 1.1.2 2.2 1.3 2.6l11.1 3.8c.5.2 1.1.1 1.6-.1s.9-.7 1-1.2l2.6-7.6c.2-.5.1-1.1-.1-1.6s-.7-.9-1.2-1l-11.1-3.8-.7-.1z"/><path fill="#EEF" d="M23.9 77.7h-.2L7.9 72.3c-.3-.1-.4-.4-.3-.6.1-.3.4-.4.6-.3L24 76.8c.3.1.4.4.3.6 0 .2-.2.3-.4.3zM11.4 78.8h-.2l-1.9-.7c-.2-.1-.4-.4-.3-.6.1-.3.4-.4.6-.3l1.9.7c.3.1.4.4.3.6 0 .2-.2.3-.4.3zM1.6 79.2.5 82.5v-3.1l.2-.5c.1-.3.4-.4.6-.3.2 0 .3.3.3.6z"/><path fill="#EEF" d="M6.4 85.1c-.1.2-.3.3-.5.3h-.2L.4 83.5v-1.1l5.6 2c.3.1.4.4.4.7zM255.8 68.7a5 5 0 0 0 3.1 6.3l7.8 2.7v1.1l-8.1-2.8a6 6 0 0 1-3.7-7.6l4.5-13.3a6 6 0 0 1 7.3-3.8v1a5 5 0 0 0-6.3 3.1l-4.6 13.3zM266.6 80.2V83l-.3.1h-.2c-.3-.1-.4-.4-.3-.6l.1-.3.7-2z"/><path fill="#EEF" d="M266.6 82.4v1.1l-6-2.1c-.3-.1-.4-.4-.3-.6.1-.3.4-.4.6-.3l5 1.8.7.1zM142.8 80.8c-1.3 0-2.5-.7-3.1-2L134.8 68c-.8-1.7 0-3.7 1.6-4.5l11.8-5.4c1.7-.8 3.7 0 4.5 1.6l4.9 10.8c.4.8.4 1.7.1 2.6-.3.8-.9 1.5-1.7 1.9l-11.8 5.4c-.4.3-.9.4-1.4.4zm5.9-21.7-11.8 5.4a2.3 2.3 0 0 0-1.2 3.1l4.9 10.8a2.3 2.3 0 0 0 3.1 1.2l11.8-5.4c.6-.3 1-.7 1.2-1.3.2-.6.2-1.2-.1-1.8l-4.9-10.8c-.4-1.2-1.8-1.7-3-1.2z"/><path fill="#EEF" d="M136.3 69.6a.5.5 0 0 1-.5-.3c-.1-.3 0-.5.2-.7l14.4-6.6c.2-.1.5 0 .7.2.1.3 0 .5-.2.7l-14.4 6.6-.2.1zM141.1 72.6c-.5 0-.9-.3-1.2-.7l-.2-.4c-.3-.6 0-1.4.6-1.7l.4-.2c.6-.3 1.4 0 1.7.6l.2.4c.3.6 0 1.4-.6 1.7l-.4.2-.5.1zm.2-2.1h-.1l-.4.2c-.1.1-.2.2-.1.3l.2.4c.1.1.2.2.3.1l.4-.2c.1-.1.2-.2.1-.3l-.2-.4-.2-.1zm-.3-.4zM146 70.3l-.4-.1c-.3-.1-.6-.4-.7-.7l-.2-.4c-.3-.6 0-1.4.6-1.7l.4-.2c.6-.3 1.4 0 1.7.6l.2.4c.1.3.2.6 0 1-.1.3-.4.6-.7.7l-.4.2c-.2.2-.3.2-.5.2zm.1-2-.4.2c-.1.1-.2.2-.1.3l.2.4.1.1h.2l.4-.2c.1-.1.2-.2.1-.3l-.2-.4c0-.1-.2-.2-.3-.1zM150.4 68.3c-.5 0-.9-.3-1.2-.7l-.2-.4c-.3-.6 0-1.4.6-1.7l.4-.2c.3-.1.6-.2 1 0 .3.1.6.4.7.7l.2.4c.3.6 0 1.4-.6 1.7l-.4.2h-.5zm.2-2.1h-.1l-.4.2c-.1.1-.2.2-.1.3l.2.4c.1.1.2.2.3.1l.4-.2c.1-.1.2-.2.1-.3l-.2-.4-.2-.1c.1 0 .1 0 0 0zm-.3-.4zM143 76.6c-.5 0-.9-.3-1.2-.7l-.2-.4c-.3-.6 0-1.4.6-1.7l.4-.2c.6-.3 1.4 0 1.7.6l.2.4c.3.6 0 1.4-.6 1.7l-.4.2-.5.1zm.1-2.1-.4.2c-.1.1-.2.2-.1.3l.2.4c.1.1.2.2.3.1l.4-.2c.1-.1.2-.2.1-.3l-.2-.4-.3-.1zM147.8 74.3c-.5 0-.9-.3-1.1-.7l-.2-.4c-.1-.3-.2-.7 0-1 .1-.3.4-.6.7-.7l.4-.2c.6-.3 1.4 0 1.7.6l.2.4c.3.6 0 1.4-.6 1.7l-.4.2-.7.1zm.1-2-.4.2c-.1.1-.2.2-.1.3l.2.4c.1.1.2.2.3.1l.4-.2c.1-.1.2-.2.1-.3l-.2-.4c0-.1-.2-.2-.3-.1zM152.3 72.3c-.5 0-.9-.3-1.1-.7l-.2-.4c-.3-.6 0-1.4.6-1.7l.4-.2c.6-.3 1.4 0 1.7.6l.2.4c.3.6 0 1.4-.6 1.7l-.4.2-.6.1zm.2-2.1h-.1l-.4.2c-.1.1-.2.2-.1.3l.2.4c.1.1.2.2.3.1l.4-.2c.1-.1.2-.2.1-.3l-.2-.4-.2-.1zm-.3-.4z"/><path fill="#EEF" d="M125.1 68.6c-.3 0-.5-.3-.5-.5a21.5 21.5 0 0 1 42.8-2.4c0 .3-.1.5-.4.6-.3 0-.5-.1-.6-.4a20.4 20.4 0 0 0-13.2-15.8 20.6 20.6 0 0 0-27.8 18.1c.2.2 0 .4-.3.4zM146.2 91A21.5 21.5 0 0 1 125 73.6c-.1-.3.1-.5.4-.6.3-.1.5.1.6.4a20.4 20.4 0 0 0 13.1 15.2 20.6 20.6 0 0 0 27.7-17c0-.3.3-.5.6-.4.3 0 .5.3.4.6A21.2 21.2 0 0 1 155.4 89c-3 1.3-6.1 2-9.2 2z"/><path fill="#EEF" d="M125.2 69.2a.8.8 0 0 1-.4-.2l-2.4-2.6c-.2-.2-.2-.5 0-.7s.5-.2.7 0l2.1 2.2 2.2-2.1c.2-.2.5-.2.7 0 .2.2.2.5 0 .7l-2.6 2.4c0 .2-.2.3-.3.3zM169 75.2l-.4-.2-1.5-2.6-2.6 1.5c-.2.1-.5.1-.7-.2s-.1-.5.2-.7l3.1-1.8c.2-.1.5-.1.7.2l1.8 3.1c.1.2.1.5-.2.7h-.4zM66.3 80.3l-.6-.1c-.8-.2-1.5-.6-2-1.3l-9.8-14.3c-.4-.6-.6-1.4-.5-2.2.1-.8.6-1.4 1.2-1.9l13-8.9c.6-.4 1.4-.6 2.2-.5.8.1 1.4.6 1.9 1.2l7 10.3c.2.2.1.5-.1.7-.2.2-.5.1-.7-.1l-7-10.3a2 2 0 0 0-2.7-.5l-13 8.9a2 2 0 0 0-.8 1.2c-.1.5 0 1 .3 1.4l9.8 14.3c.3.5.8.8 1.3.9.5.1 1.1 0 1.6-.3.2-.2.5-.1.7.1.2.2.1.5-.1.7-.5.5-1.1.7-1.7.7z"/><path fill="#EEF" d="m66.3 80.2-.6-.1c-.9-.2-1.6-.7-2.1-1.4l-2.5-3.6c-.2-.2-.1-.5.1-.7.2-.2.5-.1.7.1l2.5 3.6c.4.5.9.9 1.5 1 .6.1 1.2 0 1.8-.4 1.1-.7 1.3-2.2.6-3.3l-2.5-3.6c-.2-.2-.1-.5.1-.7.2-.2.5-.1.7.1l2.5 3.6c1 1.5.7 3.6-.9 4.7-.5.5-1.2.7-1.9.7z"/><path fill="#EEF" d="m67.7 79.8-.4-.2c-.2-.2-.1-.5.1-.7l15.3-10.5c1.1-.7 1.3-2.2.6-3.3l-2.2-3.2-14.3 9.8 1.5 2.2c.2.2.1.5-.1.7-.2.2-.5.1-.7-.1l-1.8-2.6c-.2-.2-.1-.5.1-.7L81 60.8c.2-.2.5-.1.7.1l2.5 3.6c1 1.5.7 3.6-.9 4.7L68 79.7l-.3.1zM59.5 64.3l-.4-.2c-.2-.2-.1-.5.1-.7l9.4-6.5c.2-.2.5-.1.7.1.2.2.1.5-.1.7l-9.4 6.5-.3.1zM61.9 67.7l-.4-.2c-.2-.2-.1-.5.1-.7l5.6-3.8c.2-.2.5-.1.7.1.2.2.1.5-.1.7l-5.6 3.8-.3.1zM100.9 97.7h-.3a2.4 2.4 0 0 1-2-2.6l1.1-8c.1-.6.4-1.1.9-1.5a2 2 0 0 1 1.7-.4c.6.1 1.1.4 1.5.9.4.5.5 1.1.4 1.7l-1.1 8c-.1.6-.4 1.1-.9 1.5-.3.3-.8.4-1.3.4zm1.1-11.6c-.3 0-.5.1-.8.3-.3.2-.4.5-.5.8l-1.1 8c-.1.7.4 1.3 1.1 1.4.3 0 .7 0 .9-.3.3-.2.4-.5.5-.8l1.1-8c0-.3 0-.7-.3-.9-.2-.3-.5-.4-.8-.5h-.1zM93.6 96.7h-.3c-.6-.1-1.1-.4-1.5-.9a2 2 0 0 1-.4-1.7l.4-3.1a2.4 2.4 0 0 1 2.6-2c1.2.2 2.1 1.3 2 2.6l-.4 3.1c-.1.6-.4 1.1-.9 1.5-.5.4-1 .5-1.5.5zm.5-6.6c-.6 0-1.2.5-1.3 1.1l-.4 3.1c-.1.7.4 1.3 1.1 1.4.3 0 .7 0 .9-.3.3-.2.4-.5.5-.8l.4-3.1c.1-.7-.4-1.3-1.1-1.4h-.1zM107.9 98.6h-.3c-.6-.1-1.1-.4-1.5-.9a2 2 0 0 1-.4-1.7l1.8-13.7a2.4 2.4 0 0 1 2.6-2c.6.1 1.1.4 1.5.9.4.5.5 1.1.4 1.7l-1.8 13.7c-.2 1.2-1.2 2-2.3 2zm1.8-17.3c-.6 0-1.2.5-1.3 1.1l-1.8 13.7c0 .3 0 .7.3.9.2.3.5.4.8.5.7.1 1.3-.4 1.4-1.1l1.8-13.7c0-.3 0-.7-.3-.9-.2-.3-.5-.4-.8-.5h-.1zM155.9 31.5c-.9 0-1.7-.5-2.1-1.4l-3.1-7.5c-.5-1.2.1-2.5 1.2-3 .6-.2 1.2-.2 1.7 0 .6.2 1 .7 1.2 1.2l3.1 7.5c.2.6.2 1.2 0 1.7a2 2 0 0 1-1.2 1.2c-.2.2-.5.3-.8.3zm-3.1-11-.5.1c-.7.3-1 1-.7 1.7l3.1 7.5c.3.6 1 1 1.7.7.3-.1.6-.4.7-.7v-1l-3.1-7.5c-.1-.3-.4-.6-.7-.7l-.5-.1zM149.1 34.3c-.9 0-1.7-.5-2.1-1.4l-1.2-2.9c-.5-1.2.1-2.5 1.2-3 .6-.2 1.2-.2 1.7 0 .6.2 1 .7 1.2 1.2l1.2 2.9c.2.6.2 1.2 0 1.7a2 2 0 0 1-1.2 1.2c-.2.3-.5.3-.8.3zm-1.2-6.4-.5.1c-.7.3-1 1-.7 1.7l1.2 2.9c.3.6 1 1 1.7.7.3-.1.6-.4.7-.7v-1l-1.2-2.9c-.1-.3-.4-.6-.7-.7l-.5-.1zM162.4 28.8l-.9-.2a2 2 0 0 1-1.2-1.2l-5.4-12.8c-.2-.6-.2-1.2 0-1.7.2-.6.7-1 1.2-1.2.6-.2 1.2-.2 1.7 0 .6.2 1 .7 1.2 1.2l5.4 12.8c.5 1.2-.1 2.5-1.2 3l-.8.1zM157 12.4l-.5.1c-.3.1-.6.4-.7.7v1l5.4 12.8c.1.3.4.6.7.7h1c.7-.3 1-1 .7-1.7l-5.4-12.8c-.1-.3-.4-.6-.7-.7l-.5-.1zM208.7 66.4a5.6 5.6 0 1 1 5.6-5.6 5.5 5.5 0 0 1-5.6 5.6zm0-10.3c-2.6 0-4.6 2.1-4.6 4.6s2.1 4.6 4.6 4.6 4.6-2.1 4.6-4.6-2-4.6-4.6-4.6zM211.6 81.5l-.6-.1h-.1l-11.5-2c-1-.2-1.9-.8-2.4-1.7-.5-.9-.6-2-.2-3l1.2-2.1a9.2 9.2 0 0 1 9.4-4.5 9 9 0 0 1 7.3 7.4l.4 2.4c0 1.1-.4 2.1-1.2 2.8a4 4 0 0 1-2.3.8zm-.4-1c.7.1 1.4-.1 2-.6a2 2 0 0 0 .8-1.9l-.4-2.3c-.5-3.4-3.1-6-6.5-6.6-3.3-.6-6.7 1-8.3 4l-1.2 2.1a2 2 0 0 0 .2 2c.4.6 1 1.1 1.7 1.2l11.7 2.1z"/></g></svg>