<?xml version="1.0" encoding="UTF-8"?>
<svg version="1.1" xmlns="http://www.w3.org/2000/svg" width="512" height="512">
<path d="M0 0 C168.96 0 337.92 0 512 0 C512 168.96 512 337.92 512 512 C343.04 512 174.08 512 0 512 C0 343.04 0 174.08 0 0 Z " fill="#FEFEFE" transform="translate(0,0)"/>
<path d="M0 0 C1.85839393 -0.00015539 3.71678817 -0.00165089 5.57518005 -0.00440979 C9.44894941 -0.00578582 13.32234494 0.00663094 17.19604492 0.02954102 C22.1304556 0.05794299 27.06424733 0.05517205 31.99870396 0.0424509 C35.82945427 0.03545562 39.66006462 0.04332637 43.49079704 0.05570793 C45.30903522 0.06018372 47.12728863 0.06059362 48.94552803 0.05664253 C58.89651791 0.04513474 67.99477904 0.34609734 77.55859375 3.49609375 C78.6796875 7.19921875 78.6796875 7.19921875 77.58984375 9.87109375 C76.831875 11.17046875 76.831875 11.17046875 76.05859375 12.49609375 C75.50042969 13.46675781 74.94226563 14.43742187 74.3671875 15.4375 C73.47193359 16.95150391 73.47193359 16.95150391 72.55859375 18.49609375 C71.99269531 19.47449219 71.42679688 20.45289062 70.84375 21.4609375 C69.09422983 24.47995076 67.32750677 27.48840954 65.55859375 30.49609375 C64.38855464 32.50085389 63.2192808 34.50606086 62.05078125 36.51171875 C59.74688123 40.46162877 57.43935485 44.40938597 55.12890625 48.35546875 C49.68953612 57.65162023 44.26342344 66.94995268 39.02075195 76.35864258 C35.71750473 82.26399374 32.29388784 88.09693737 28.87109375 93.93359375 C23.27530855 103.48109275 17.81448998 113.09712199 12.44067383 122.77124023 C9.07510513 128.82361171 5.63692992 134.82696541 2.13500977 140.80151367 C0.87537487 142.95461733 -0.37218262 145.11301901 -1.60546875 147.28125 C-3.64420835 150.85121316 -5.72649233 154.39345603 -7.81640625 157.93359375 C-22.31508323 182.53244877 -22.31508323 182.53244877 -36.29150391 207.42993164 C-37.98179865 210.46707907 -39.71561802 213.47897582 -41.44140625 216.49609375 C-40.77179808 216.48871941 -40.1021899 216.48134506 -39.41229057 216.47374725 C-23.11215149 216.29699998 -6.81231626 216.16465442 9.48855782 216.08159637 C17.37162839 216.04036124 25.25405899 215.98415464 33.13671875 215.89257812 C40.00806542 215.81278862 46.8789486 215.76121629 53.75074565 215.74338579 C57.38893001 215.73296383 61.02578858 215.70851201 64.66354752 215.6502533 C68.7269775 215.58570655 72.78810977 215.58417752 76.85205078 215.58789062 C78.05542587 215.55912842 79.25880096 215.53036621 80.49864197 215.50073242 C88.47699688 215.57974215 88.47699688 215.57974215 91.61838913 218.24119568 C93.16588915 220.26479821 94.39746098 222.23264939 95.55859375 224.49609375 C96.07808594 225.40617188 96.59757813 226.31625 97.1328125 227.25390625 C97.50019531 228.03507813 97.86757813 228.81625 98.24609375 229.62109375 C98.64570313 230.46027344 99.0453125 231.29945313 99.45703125 232.1640625 C99.82054687 232.93363281 100.1840625 233.70320312 100.55859375 234.49609375 C101.15671875 235.63046875 101.75484375 236.76484375 102.37109375 237.93359375 C103.55859375 240.49609375 103.55859375 240.49609375 103.55859375 243.49609375 C104.21859375 243.49609375 104.87859375 243.49609375 105.55859375 243.49609375 C106.39678533 245.11859316 107.22900535 246.74417872 108.05859375 248.37109375 C108.7546875 249.72847656 108.7546875 249.72847656 109.46484375 251.11328125 C110.55859375 253.49609375 110.55859375 253.49609375 110.55859375 255.49609375 C111.54859375 255.82609375 112.53859375 256.15609375 113.55859375 256.49609375 C113.88859375 258.80609375 114.21859375 261.11609375 114.55859375 263.49609375 C115.54859375 263.82609375 116.53859375 264.15609375 117.55859375 264.49609375 C119.0234375 266.82421875 119.0234375 266.82421875 120.49609375 269.74609375 C122.12295164 272.87870349 123.56771681 275.50724415 125.80859375 278.24609375 C128.1245178 281.22371038 128.69844225 283.84044987 129.55859375 287.49609375 C130.21859375 287.49609375 130.87859375 287.49609375 131.55859375 287.49609375 C131.9453125 288.22054688 132.33203125 288.945 132.73046875 289.69140625 C136.04116296 295.91823409 136.04116296 295.91823409 139.80859375 301.87109375 C141.48059665 304.3790981 142.52112813 306.68011564 143.55859375 309.49609375 C144.21551056 310.83425762 144.88074653 312.16840953 145.55859375 313.49609375 C143.99838508 314.147443 142.43530796 314.79192339 140.87109375 315.43359375 C140.00097656 315.79324219 139.13085938 316.15289062 138.234375 316.5234375 C132.79046628 318.50231819 127.60225789 318.6407144 121.85565186 318.62980652 C120.97976607 318.63207208 120.10388028 318.63433763 119.20145249 318.63667184 C116.26677523 318.64300142 113.33214427 318.64218314 110.39746094 318.64135742 C108.29312582 318.64434959 106.18879125 318.64775225 104.0844574 318.65153503 C98.36738643 318.66037409 92.65033043 318.66271313 86.93325329 318.66335082 C82.15953356 318.66430039 77.38581732 318.66797931 72.61209893 318.67152292 C61.34735452 318.67966739 50.08261811 318.68210719 38.81787109 318.68139648 C27.20213308 318.68079592 15.58644154 318.69134356 3.97071528 318.70714015 C-6.0048174 318.72022221 -15.98033491 318.72558009 -25.95587611 318.72494107 C-31.9124469 318.72468625 -37.8689764 318.72752875 -43.82553864 318.73811913 C-49.42991624 318.74781108 -55.0342132 318.7478717 -60.63859367 318.74060249 C-62.69244187 318.73955797 -64.74629511 318.74191168 -66.80013466 318.74796295 C-69.61036063 318.75570467 -72.42030958 318.7510236 -75.23052979 318.74333191 C-76.0374575 318.74847547 -76.84438521 318.75361904 -77.67576528 318.75891846 C-88.35329098 318.69462683 -97.58624959 316.10814198 -105.45825195 308.56298828 C-110.39749168 303.07354037 -114.07948939 297.425386 -117.56640625 290.93359375 C-118.69233532 288.88970134 -119.81999626 286.84676219 -120.94921875 284.8046875 C-121.52317383 283.7616748 -122.09712891 282.71866211 -122.68847656 281.64404297 C-125.52627615 276.54786081 -128.4855067 271.52437394 -131.44140625 266.49609375 C-133.18749981 263.50722549 -134.93118424 260.51696337 -136.67431641 257.52636719 C-137.87272604 255.47128838 -139.07298185 253.41728526 -140.27490234 251.36425781 C-142.07042841 248.28935371 -143.85126143 245.20636204 -145.62890625 242.12109375 C-146.16966797 241.20070313 -146.71042969 240.2803125 -147.26757812 239.33203125 C-153.16906075 229.02139493 -156.4040787 218.79442846 -153.890625 206.88671875 C-151.50848696 199.43548127 -147.31290203 192.87286688 -143.28515625 186.22265625 C-140.24314174 181.19994288 -137.3394201 176.10284902 -134.44140625 170.99609375 C-130.40555646 163.90655581 -126.31969078 156.85027532 -122.17114258 149.82617188 C-118.96601595 144.39685623 -115.78995669 138.95118805 -112.62890625 133.49609375 C-112.18474365 132.73087402 -111.74058105 131.9656543 -111.28295898 131.17724609 C-109.13457624 127.46533833 -107.01393226 123.74095769 -104.9375 119.98828125 C-102.45339137 115.49929137 -99.89460586 111.05655896 -97.31640625 106.62109375 C-96.33983057 104.93750765 -95.36326843 103.25391369 -94.38671875 101.5703125 C-93.89461914 100.72259277 -93.40251953 99.87487305 -92.89550781 99.00146484 C-90.65835775 95.14692589 -88.42457822 91.29043848 -86.19140625 87.43359375 C-85.74845215 86.66869629 -85.30549805 85.90379883 -84.84912109 85.11572266 C-80.87272451 78.24664053 -76.90675532 71.37155764 -72.94140625 64.49609375 C-60.35382237 42.67402657 -60.35382237 42.67402657 -55.73535156 34.72509766 C-54.84523925 33.19175324 -53.95665295 31.65752229 -53.06933594 30.12255859 C-51.71819424 27.78638795 -50.36167723 25.45341624 -49.00390625 23.12109375 C-48.60260498 22.42491943 -48.20130371 21.72874512 -47.7878418 21.01147461 C-41.69740869 10.59041014 -35.0515159 4.74691125 -23.37625122 1.31661987 C-15.74911135 -0.48335503 -7.7846764 -0.05356144 0 0 Z " fill="#00AB48" transform="translate(232.44140625,92.50390625)"/>
<path d="M0 0 C0.495 0.99 0.495 0.99 1 2 C1.7425 2.28875 2.485 2.5775 3.25 2.875 C8.85117197 5.16638853 12.01786282 8.80887232 15 14 C15 14.99 15 15.98 15 17 C15.66 17 16.32 17 17 17 C17.43344727 17.78125244 17.86689453 18.56250488 18.31347656 19.36743164 C19.93828866 22.29552366 21.56349692 25.22339508 23.18896484 28.15112305 C23.88931645 29.41275505 24.58951493 30.67447207 25.28955078 31.9362793 C29.79387456 40.0717564 29.79387456 40.0717564 34.375 48.1640625 C39 56.23557692 39 56.23557692 39 59 C39.66 59 40.32 59 41 59 C42.67886791 61.57567325 44.23209908 64.14370633 45.75 66.8125 C46.19811035 67.58770996 46.6462207 68.36291992 47.10791016 69.16162109 C50.06500268 74.29784856 52.95431344 79.46928478 55.75 84.6953125 C56.90835423 86.83102811 58.12900002 88.91468059 59.375 91 C61 94 61 94 61 97 C61.66 97 62.32 97 63 97 C68.14177675 105.89866234 73.15276325 114.86001977 78.05395508 123.89355469 C80.06475393 127.57848448 82.10038375 131.21486665 84.359375 134.75390625 C88.02809812 140.53378717 91.25957752 146.56932651 94.5625 152.5625 C95.55510622 154.35925516 96.54833809 156.15566255 97.54190063 157.95188904 C98.47771165 159.64404066 99.41245525 161.33678247 100.34716797 163.02954102 C101.68246216 165.42932307 103.03857848 167.8129826 104.41796875 170.1875 C105.74533868 172.54726876 106.57575493 174.34846829 107 177 C107.66 177 108.32 177 109 177 C110.61363045 179.82804012 112.21409483 182.66333102 113.8125 185.5 C114.26431641 186.29148437 114.71613281 187.08296875 115.18164062 187.8984375 C120.87924241 198.04599104 124.88558538 208.00524811 122.421875 219.7578125 C119.68448409 228.89074398 114.81189129 236.8509098 110 245 C108.3909016 247.75344919 106.78526141 250.50889861 105.1796875 253.2644043 C104.00929986 255.27010363 102.83607831 257.27415175 101.66015625 259.27661133 C98.32246228 264.96914467 95.04081334 270.68774287 91.82421875 276.44921875 C90.76761518 278.33231579 89.71037886 280.21505661 88.65310669 282.09777832 C87.97852016 283.30490154 87.30786752 284.51423335 86.64157104 285.72595215 C81.5567098 294.97091933 76.43779405 303.74692669 67 309 C64.2366052 305.8554473 62.51517331 302.98603192 60.9921875 299.1015625 C59.2049364 295.31596765 56.76267054 291.91733355 54.42578125 288.453125 C53 286 53 286 53 283 C52.34 283 51.68 283 51 283 C50.61908203 282.20335937 50.61908203 282.20335937 50.23046875 281.390625 C49.88628906 280.68421875 49.54210937 279.9778125 49.1875 279.25 C48.85105469 278.55390625 48.51460937 277.8578125 48.16796875 277.140625 C47.05401608 274.97364933 47.05401608 274.97364933 45.5546875 273.08984375 C43.07446359 269.75587443 41.31716624 266.04188425 39.40234375 262.36328125 C38.21947118 259.88432622 38.21947118 259.88432622 36 259 C35.690625 257.88625 35.38125 256.7725 35.0625 255.625 C33.98776049 251.95824168 33.53599549 251.46660258 31 249 C29.83203125 247.02734375 29.83203125 247.02734375 28.8125 244.9375 C28.46832031 244.24527344 28.12414062 243.55304688 27.76953125 242.83984375 C27 241 27 241 27 239 C26.34 239 25.68 239 25 239 C24.67128906 238.21689453 24.67128906 238.21689453 24.3359375 237.41796875 C21.60069249 231.06908705 18.4863801 224.97042592 15 219 C14.56516296 217.97075409 14.13032593 216.94150818 13.68231201 215.881073 C10.57853779 212.54730718 9.9071156 212.53216309 5.54571533 212.24050903 C3.20424005 212.20529 0.86212863 212.20341162 -1.47949219 212.22705078 C-2.75779404 212.21642105 -4.03609589 212.20579132 -5.35313416 212.19483948 C-8.85514919 212.16639401 -12.3562243 212.17475738 -15.85828686 212.18970728 C-19.51925167 212.19908342 -23.17998647 212.1746404 -26.84088135 212.15377808 C-33.77174018 212.11942316 -40.70226914 212.11550248 -47.63319612 212.12250316 C-55.52441193 212.12899293 -63.41539579 212.10157425 -71.30654287 212.07130075 C-87.53773623 212.0097916 -103.76868942 211.99088599 -120 212 C-114.3793668 197.67523371 -105.66904329 184.45272835 -97.89501953 171.22851562 C-94.6876673 165.76419896 -91.50149568 160.28754259 -88.3125 154.8125 C-87.1631384 152.83962349 -86.01342495 150.86695191 -84.86328125 148.89453125 C-84.14072144 147.65473511 -84.14072144 147.65473511 -83.40356445 146.38989258 C-82.44473512 144.75726424 -81.47625599 143.13027476 -80.49951172 141.50830078 C-79.00969825 139.01622269 -77.56985794 136.50211263 -76.14453125 133.97265625 C-75.60884521 133.02310059 -75.07315918 132.07354492 -74.52124023 131.09521484 C-73.95735596 130.09441895 -73.39347168 129.09362305 -72.8125 128.0625 C-68.25841313 119.99268065 -63.68991865 111.93208945 -59.08251953 103.89257812 C-57.83192326 101.70615001 -56.58579329 99.51720436 -55.33984375 97.328125 C-48.76276515 85.7807172 -42.09998691 74.28578381 -35.39453125 62.8125 C-28.60036128 51.18619501 -21.85055493 39.53402148 -15.1875 27.83203125 C-13.42625553 24.74053915 -11.65145909 21.65699152 -9.875 18.57421875 C-9.32835693 17.62337402 -8.78171387 16.6725293 -8.21850586 15.69287109 C-7.13027562 13.8000596 -6.04000401 11.90842001 -4.94750977 10.01806641 C-4.45049561 9.1522998 -3.95348145 8.2865332 -3.44140625 7.39453125 C-2.99482666 6.61956299 -2.54824707 5.84459473 -2.08813477 5.04614258 C-0.87467677 2.90108942 -0.87467677 2.90108942 0 0 Z " fill="#FEB901" transform="translate(311,97)"/>
<path d="M0 0 C30.85453744 -0.18248892 61.70895152 -0.32407079 92.5638997 -0.40852264 C96.20633767 -0.41852833 99.84877457 -0.4288829 103.49121094 -0.43945312 C104.21635646 -0.44155161 104.94150199 -0.44365009 105.68862163 -0.44581217 C117.43117989 -0.48062578 129.17342494 -0.54370367 140.91579737 -0.61722237 C152.96399901 -0.69202689 165.01203658 -0.73646847 177.06046093 -0.75270796 C183.82827344 -0.76270154 190.59543273 -0.78674198 197.36301041 -0.84584045 C203.73087306 -0.90007326 210.09773149 -0.91690601 216.46580315 -0.90486145 C218.8047716 -0.90706539 221.14377304 -0.92301989 223.48254204 -0.9536438 C226.67401795 -0.99338913 229.86169132 -0.98390795 233.05325317 -0.96203613 C234.44528825 -0.99699023 234.44528825 -0.99699023 235.86544526 -1.03265047 C239.66088555 -0.96222358 242.03235007 -0.89506395 244.89017844 1.74839115 C246.43438966 3.77131338 247.75348563 5.78337994 249 8 C249.51949219 8.91007812 250.03898438 9.82015625 250.57421875 10.7578125 C250.94160156 11.53898437 251.30898438 12.32015625 251.6875 13.125 C252.08710938 13.96417969 252.48671875 14.80335938 252.8984375 15.66796875 C253.26195312 16.43753906 253.62546875 17.20710938 254 18 C254.598125 19.134375 255.19625 20.26875 255.8125 21.4375 C257 24 257 24 257 27 C257.66 27 258.32 27 259 27 C259.83819158 28.62249941 260.6704116 30.24808497 261.5 31.875 C261.9640625 32.77992188 262.428125 33.68484375 262.90625 34.6171875 C264 37 264 37 264 39 C264.99 39.33 265.98 39.66 267 40 C267.33 42.31 267.66 44.62 268 47 C268.99 47.33 269.98 47.66 271 48 C272.46484375 50.328125 272.46484375 50.328125 273.9375 53.25 C275.56435789 56.38260974 277.00912306 59.0111504 279.25 61.75 C281.56592405 64.72761663 282.1398485 67.34435612 283 71 C283.66 71 284.32 71 285 71 C285.38671875 71.72445312 285.7734375 72.44890625 286.171875 73.1953125 C289.48256921 79.42214034 289.48256921 79.42214034 293.25 85.375 C294.9220029 87.88300435 295.96253438 90.18402189 297 93 C297.65691681 94.33816387 298.32215278 95.67231578 299 97 C297.43979133 97.65134925 295.87671421 98.29582964 294.3125 98.9375 C293.00732422 99.47697266 293.00732422 99.47697266 291.67578125 100.02734375 C286.23187253 102.00622444 281.04366414 102.14462065 275.29705811 102.13371277 C274.42117232 102.13597833 273.54528653 102.13824388 272.64285874 102.14057809 C269.70818148 102.14690767 266.77355052 102.14608939 263.83886719 102.14526367 C261.73453207 102.14825584 259.6301975 102.1516585 257.52586365 102.15544128 C251.80879268 102.16428034 246.09173668 102.16661938 240.37465954 102.16725707 C235.60093981 102.16820664 230.82722357 102.17188556 226.05350518 102.17542917 C214.78876077 102.18357364 203.52402436 102.18601344 192.25927734 102.18530273 C180.64353933 102.18470217 169.02784779 102.19524981 157.41212153 102.2110464 C147.43658885 102.22412846 137.46107134 102.22948634 127.48553014 102.22884732 C121.52895935 102.2285925 115.57242985 102.231435 109.61586761 102.24202538 C104.01149001 102.25171733 98.40719305 102.25177795 92.80281258 102.24450874 C90.74896438 102.24346422 88.69511114 102.24581793 86.64127159 102.2518692 C83.83104562 102.25961092 81.02109667 102.25492985 78.21087646 102.24723816 C77.40394875 102.25238172 76.59702104 102.25752529 75.76564097 102.26282471 C65.08811527 102.19853308 55.85515666 99.61204823 47.9831543 92.06689453 C43.04391457 86.57744662 39.36191686 80.92929225 35.875 74.4375 C34.74907093 72.39360759 33.62140999 70.35066844 32.4921875 68.30859375 C31.91823242 67.26558105 31.34427734 66.22256836 30.75292969 65.14794922 C27.91513694 60.05177934 24.95630818 55.02802902 22 50 C17.20994738 41.81447554 12.4486259 33.61339787 7.75 25.375 C7.20085937 24.42109375 6.65171875 23.4671875 6.0859375 22.484375 C2.64262415 16.41924945 -0.10595113 11.4259244 -0.04003906 4.31787109 C-0.03425842 3.50885345 -0.02847778 2.69983582 -0.02252197 1.86630249 C-0.01508972 1.25042267 -0.00765747 0.63454285 0 0 Z " fill="#2684FC" transform="translate(79,309)"/>
<path d="M0 0 C0.66 0 1.32 0 2 0 C3.40112305 2.01269531 3.40112305 2.01269531 5.01171875 4.828125 C5.90213867 6.37113281 5.90213867 6.37113281 6.81054688 7.9453125 C7.42994141 9.03585938 8.04933594 10.12640625 8.6875 11.25 C9.28755859 12.29414063 9.88761719 13.33828125 10.50585938 14.4140625 C11.72450871 16.53459089 12.94030154 18.65676328 14.15332031 20.78051758 C16.55697624 24.97102665 18.998567 29.13883695 21.44506836 33.30444336 C22.97089349 35.94954231 24.43366218 38.62058966 25.875 41.3125 C29.68086778 48.34881257 33.85369246 55.16115201 38 62 C39.56524369 64.58168589 41.1282984 67.16465999 42.6875 69.75 C43.06116699 70.36931396 43.43483398 70.98862793 43.81982422 71.62670898 C46.63125872 76.3159625 49.26805749 81.08356257 51.80859375 85.92578125 C52.95288944 88.12686757 52.95288944 88.12686757 55 90 C55.5878125 91.4540625 55.5878125 91.4540625 56.1875 92.9375 C58.01583345 97.43293842 60.69685912 101.32560788 63.37890625 105.3515625 C65 108 65 108 67 113 C23.77 113 -19.46 113 -64 113 C-58.27638322 98.69095805 -49.68481052 85.47954963 -41.89501953 72.22851562 C-38.6876673 66.76419896 -35.50149568 61.28754259 -32.3125 55.8125 C-31.1631384 53.83962349 -30.01342495 51.86695191 -28.86328125 49.89453125 C-28.14072144 48.65473511 -28.14072144 48.65473511 -27.40356445 47.38989258 C-26.44473512 45.75726424 -25.47625599 44.13027476 -24.49951172 42.50830078 C-23.00969825 40.01622269 -21.56985794 37.50211263 -20.14453125 34.97265625 C-19.60803955 34.02165039 -19.07154785 33.07064453 -18.51879883 32.09082031 C-17.95572021 31.09147461 -17.3926416 30.09212891 -16.8125 29.0625 C-15.64605222 26.99597018 -14.47938593 24.92956369 -13.3125 22.86328125 C-12.74660156 21.86119629 -12.18070313 20.85911133 -11.59765625 19.82666016 C-9.50877935 16.13090576 -7.41486271 12.43809869 -5.3125 8.75 C-4.71050781 7.69296875 -4.10851562 6.6359375 -3.48828125 5.546875 C-2.38629598 3.66106293 -1.21156716 1.81735074 0 0 Z " fill="#FCFEFC" transform="translate(255,196)"/>
<path d="M0 0 C36.96 0 73.92 0 112 0 C110.61629338 12.45335955 106.00634425 21.52113368 99.625 32.125 C98.38204266 34.22220018 97.13988364 36.31987366 95.8984375 38.41796875 C94.9388916 40.03324463 94.9388916 40.03324463 93.95996094 41.68115234 C91.3294044 46.1355352 88.74645281 50.61650274 86.16821289 55.10131836 C84.27631732 58.39172857 82.37474707 61.67641335 80.47265625 64.9609375 C78.33800621 68.65465378 76.23774891 72.36253849 74.18359375 76.1015625 C69.44055539 84.63685834 64.94827972 91.06415706 57 97 C53.5676846 93.93874573 51.57649445 91.40118994 49.95703125 87.1015625 C48.22375524 83.29542988 45.75951182 79.91265106 43.42578125 76.453125 C42 74 42 74 42 71 C41.34 71 40.68 71 40 71 C39.74605469 70.46890625 39.49210937 69.9378125 39.23046875 69.390625 C38.88628906 68.68421875 38.54210937 67.9778125 38.1875 67.25 C37.85105469 66.55390625 37.51460938 65.8578125 37.16796875 65.140625 C36.05401608 62.97364933 36.05401608 62.97364933 34.5546875 61.08984375 C32.07446359 57.75587443 30.31716624 54.04188425 28.40234375 50.36328125 C27.21947118 47.88432622 27.21947118 47.88432622 25 47 C24.690625 45.88625 24.38125 44.7725 24.0625 43.625 C22.98776049 39.95824168 22.53599549 39.46660258 20 37 C18.83203125 35.02734375 18.83203125 35.02734375 17.8125 32.9375 C17.46832031 32.24527344 17.12414062 31.55304688 16.76953125 30.83984375 C16 29 16 29 16 27 C15.34 27 14.68 27 14 27 C13.78085937 26.47792969 13.56171875 25.95585937 13.3359375 25.41796875 C9.6387817 16.83635915 5.27614546 8.71128952 0 1 C0 0.67 0 0.34 0 0 Z " fill="#EA4235" transform="translate(322,309)"/>
<path d="M0 0 C0.81050812 -0.0049649 1.62101624 -0.00992981 2.45608521 -0.01504517 C5.13080709 -0.02961752 7.80546958 -0.03646231 10.48022461 -0.04199219 C11.39842924 -0.04481956 12.31663387 -0.04764694 13.26266289 -0.05056 C18.12644614 -0.06553674 22.99019988 -0.07477439 27.85400391 -0.07910156 C32.8513499 -0.08456868 37.84842103 -0.10856375 42.84568119 -0.13707352 C46.71071631 -0.15580719 50.57568681 -0.16091128 54.44076347 -0.16243744 C56.28135103 -0.16544283 58.12193804 -0.17339888 59.96248055 -0.18662262 C70.00122945 -0.25357102 79.17478072 -0.05039066 88.82006836 3.16113281 C89.94116211 6.86425781 89.94116211 6.86425781 88.85131836 9.53613281 C88.09334961 10.83550781 88.09334961 10.83550781 87.32006836 12.16113281 C86.7619043 13.13179687 86.20374023 14.10246094 85.62866211 15.10253906 C84.7334082 16.61654297 84.7334082 16.61654297 83.82006836 18.16113281 C83.25416992 19.13953125 82.68827148 20.11792969 82.10522461 21.12597656 C80.35570444 24.14498982 78.58898138 27.1534486 76.82006836 30.16113281 C75.65002925 32.16589296 74.4807554 34.17109993 73.31225586 36.17675781 C71.00835584 40.12666783 68.70082946 44.07442503 66.39038086 48.02050781 C58.67448463 61.19712574 58.67448463 61.19712574 51.13256836 74.47363281 C47.74225657 80.53044602 44.33076336 86.57454234 40.88256836 92.59863281 C40.40924072 93.43499268 39.93591309 94.27135254 39.44824219 95.13305664 C39.00504639 95.90415771 38.56185059 96.67525879 38.10522461 97.46972656 C37.71214111 98.1586499 37.31905762 98.84757324 36.9140625 99.55737305 C35.82006836 101.16113281 35.82006836 101.16113281 33.82006836 102.16113281 C33.58674805 101.6596875 33.35342773 101.15824219 33.11303711 100.64160156 C30.13791749 94.47059373 26.80500355 88.52904147 23.38256836 82.59863281 C22.92841553 81.80803467 22.4742627 81.01743652 22.00634766 80.20288086 C19.21796969 75.40285542 16.26499885 70.80253198 13.03466797 66.28637695 C11.67778395 63.91217085 11.21758758 61.85209994 10.82006836 59.16113281 C10.16006836 59.16113281 9.50006836 59.16113281 8.82006836 59.16113281 C8.40756836 58.10925781 7.99506836 57.05738281 7.57006836 55.97363281 C6.45962209 53.33831536 5.48429902 51.7486162 3.63256836 49.47363281 C1.82006836 47.16113281 1.82006836 47.16113281 1.82006836 43.16113281 C1.22194336 42.99613281 0.62381836 42.83113281 0.00756836 42.66113281 C-2.77532263 40.75286471 -3.11177865 38.81539603 -4.13696289 35.70019531 C-5.95413916 31.27635795 -8.6956882 27.38868978 -11.25024414 23.36035156 C-13.28399189 19.98861188 -14.87550799 16.63110615 -16.29321289 12.96582031 C-17.29217482 10.93269075 -18.58119305 9.7420084 -20.17993164 8.16113281 C-20.24243164 6.16113281 -20.24243164 6.16113281 -19.17993164 4.16113281 C-12.95573081 0.34173685 -7.14188242 0.0105327 0 0 Z " fill="#01822D" transform="translate(221.179931640625,92.8388671875)"/>
<path d="M0 0 C36.96 0 73.92 0 112 0 C111.34 0.33 110.68 0.66 110 1 C109.32273136 2.66238666 108.65817741 4.32996266 108 6 C106.25424658 8.84239298 104.40965994 11.60423115 102.55859375 14.37890625 C101.18759819 16.68451532 100.44913252 18.38518738 100 21 C99.34 21 98.68 21 98 21 C97.01 24.465 97.01 24.465 96 28 C95.34 28 94.68 28 94 28 C93.7628125 28.65871094 93.525625 29.31742187 93.28125 29.99609375 C91.63387768 33.85837825 89.58770747 37.42401942 87.5 41.0625 C86.69706233 42.4695649 85.8949524 43.87710254 85.09375 45.28515625 C84.73990234 45.90269775 84.38605469 46.52023926 84.02148438 47.15649414 C82.95662312 49.07828366 81.96927066 51.02851436 81 53 C80.34 53 79.68 53 79 53 C78.90460938 53.52851563 78.80921875 54.05703125 78.7109375 54.6015625 C77.76543045 57.79135001 76.23294133 60.46442265 74.625 63.375 C72.32941296 67.5461305 70.11708834 71.7355792 68 76 C65.4214876 80.61983471 65.4214876 80.61983471 63.60546875 82.2578125 C61.4046592 84.64603892 60.22394116 87.2705216 58.8125 90.1875 C58.28269531 91.27417969 57.75289062 92.36085938 57.20703125 93.48046875 C56.80871094 94.31191406 56.41039062 95.14335937 56 96 C49.81146741 94.8622634 45.66724513 90.39738966 42.17480469 85.37548828 C40.33115489 82.30875688 38.58942053 79.20327935 36.875 76.0625 C35.8961638 74.31703575 34.91730211 72.57158489 33.93655396 70.82719421 C32.93661209 69.04529273 31.94280348 67.2600616 30.94921875 65.47460938 C27.99657695 60.21133306 24.9346263 55.01403665 21.875 49.8125 C17.12819825 41.68871099 12.41267373 33.5473883 7.75 25.375 C7.20069824 24.42085205 6.65139648 23.4667041 6.08544922 22.48364258 C1.43921737 14.29928526 0 9.83811833 0 0 Z " fill="#0166D8" transform="translate(79,309)"/>
<path d="M0 0 C0.95698304 0.973944 0.95698304 0.973944 1.93329906 1.96756363 C6.08515112 4.71917694 9.19312067 4.56331934 14.06721497 4.51898193 C14.98211927 4.52648319 15.89702357 4.53398444 16.83965224 4.541713 C19.90610831 4.56201688 22.97182687 4.55388207 26.03833008 4.54589844 C28.23609144 4.55463196 30.43384644 4.56511696 32.6315918 4.57722473 C38.60016403 4.60513219 44.56852928 4.60848836 50.5371573 4.60750484 C56.77389831 4.61062985 63.01054553 4.63623947 69.24723816 4.65948486 C79.71584824 4.69546591 90.18441194 4.71755494 100.65307617 4.72900391 C111.43501313 4.74083353 122.21688093 4.76103241 132.9987793 4.79248047 C133.99595889 4.79538462 133.99595889 4.79538462 135.01328353 4.79834744 C138.34837867 4.80811207 141.68347324 4.81805014 145.01856768 4.82805204 C172.67901352 4.91049906 200.33945682 4.96456119 228 5 C228 5.33 228 5.66 228 6 C223.44377805 7.14517315 218.96278436 7.14256899 214.29705811 7.13371277 C213.42117232 7.13597833 212.54528653 7.13824388 211.64285874 7.14057809 C208.70818148 7.14690767 205.77355052 7.14608939 202.83886719 7.14526367 C200.73453207 7.14825584 198.6301975 7.1516585 196.52586365 7.15544128 C190.80879268 7.16428034 185.09173668 7.16661938 179.37465954 7.16725707 C174.60093981 7.16820664 169.82722357 7.17188556 165.05350518 7.17542917 C153.78876077 7.18357364 142.52402436 7.18601344 131.25927734 7.18530273 C119.64353933 7.18470217 108.02784779 7.19524981 96.41212153 7.2110464 C86.43658885 7.22412846 76.46107134 7.22948634 66.48553014 7.22884732 C60.52895935 7.2285925 54.57242985 7.231435 48.61586761 7.24202538 C43.01149001 7.25171733 37.40719305 7.25177795 31.80281258 7.24450874 C29.74896438 7.24346422 27.69511114 7.24581793 25.64127159 7.2518692 C22.83104562 7.25961092 20.02109667 7.25492985 17.21087646 7.24723816 C16.40394875 7.25238172 15.59702104 7.25752529 14.76564097 7.26282471 C6.8946876 7.21543205 -0.08373817 5.90148103 -7 2 C-3.98968256 1.06576355 -3.13349732 0.95550089 0 2 C0 1.34 0 0.68 0 0 Z " fill="#4589DD" transform="translate(140,404)"/>
<path d="M0 0 C36.96 0 73.92 0 112 0 C111 9 111 9 109 12 C109 8.7 109 5.4 109 2 C76.99 2 44.98 2 12 2 C11.34 3.65 10.68 5.3 10 7 C9.34786461 8.34050052 8.68620031 9.67661368 8 11 C8.66 11 9.32 11 10 11 C10.33 13.31 10.66 15.62 11 18 C8.02561539 14.51279046 6.00996834 11.10368536 4 7 C2.67541292 4.99419671 1.3440093 2.99284138 0 1 C0 0.67 0 0.34 0 0 Z " fill="#DA4F16" transform="translate(322,309)"/>
<path d="M0 0 C1.13643966 3.40931897 0.86747764 4.00335456 -0.4375 7.1875 C-0.72496094 7.90292969 -1.01242188 8.61835938 -1.30859375 9.35546875 C-1.53675781 9.89816406 -1.76492187 10.44085938 -2 11 C-2.66 11 -3.32 11 -4 11 C-4.19335938 11.63808594 -4.38671875 12.27617187 -4.5859375 12.93359375 C-4.84632812 13.75988281 -5.10671875 14.58617187 -5.375 15.4375 C-5.63023438 16.26121094 -5.88546875 17.08492188 -6.1484375 17.93359375 C-7 20 -7 20 -9 21 C-9.66 24.3 -10.32 27.6 -11 31 C25.63 31 62.26 31 100 31 C100 31.66 100 32.32 100 33 C63.04 33 26.08 33 -12 33 C-12 34.65 -12 36.3 -12 38 C-12.33 38 -12.66 38 -13 38 C-13.9615258 22.69571439 -7.90586825 12.51762473 0 0 Z " fill="#0CA077" transform="translate(91,276)"/>
<path d="M0 0 C0 0.66 0 1.32 0 2 C-4.70487432 4.40291562 -8.99128082 4.27537155 -14.1431427 4.24050903 C-15.06621411 4.24221788 -15.98928551 4.24392673 -16.94032878 4.24568737 C-20.03427269 4.24898238 -23.12799988 4.23797827 -26.22192383 4.22705078 C-28.43938187 4.22648667 -30.65684028 4.22680322 -32.8742981 4.22793579 C-38.89656987 4.22851031 -44.91876219 4.21673991 -50.94101548 4.20278788 C-57.23375945 4.19029706 -63.52650519 4.18911132 -69.81925964 4.18673706 C-80.38204296 4.18122438 -90.9448002 4.1687265 -101.50756836 4.15087891 C-112.38647313 4.13251628 -123.26536997 4.11836165 -134.14428711 4.10986328 C-134.8150475 4.10933783 -135.48580788 4.10881239 -136.17689434 4.10827102 C-139.54195715 4.10566091 -142.90702002 4.1031335 -146.27208292 4.10064721 C-174.18140894 4.07973431 -202.09070242 4.04454896 -230 4 C-230.33 3.34 -230.66 2.68 -231 2 C-229.31171255 2.00276538 -229.31171255 2.00276538 -227.58931828 2.00558662 C-200.19721854 2.04999448 -172.80512347 2.08285571 -145.41299534 2.10362434 C-132.16634911 2.11393496 -118.91972667 2.12799125 -105.6730957 2.15087891 C-94.12674584 2.17081929 -82.5804132 2.183718 -71.03404659 2.18817699 C-64.92090054 2.19078325 -58.80780378 2.19690477 -52.69467354 2.21146011 C-46.93852627 2.22505419 -41.1824485 2.22921892 -35.4262867 2.22621536 C-33.31600059 2.2267647 -31.20571211 2.23073122 -29.09543991 2.23841095 C-26.20832239 2.24840071 -23.32146532 2.24595415 -20.43434143 2.24050903 C-19.60454838 2.24633472 -18.77475533 2.2521604 -17.91981703 2.25816262 C-13.01776722 2.23327256 -8.58867935 1.62930549 -3.83238643 0.4290446 C-2 0 -2 0 0 0 Z " fill="#E5FEFF" transform="translate(374,408)"/>
<path d="M0 0 C0.99 0 1.98 0 3 0 C3.33 0.99 3.66 1.98 4 3 C4.66 3 5.32 3 6 3 C6 3.66 6 4.32 6 5 C6.66 5 7.32 5 8 5 C8 4.34 8 3.68 8 3 C8.66 3 9.32 3 10 3 C9.47731534 5.76276177 8.89130413 8.3260876 8 11 C9.65 10.67 11.3 10.34 13 10 C13.33 10.99 13.66 11.98 14 13 C15.65 11.68 17.3 10.36 19 9 C19.33 9.66 19.66 10.32 20 11 C20.99 11.66 21.98 12.32 23 13 C19.7 15.97 16.4 18.94 13 22 C8.85838286 18.30612526 7.07408339 15.09878834 5 10 C3.71656262 7.85964522 2.3715686 5.77619002 0.98828125 3.69921875 C0 2 0 2 0 0 Z " fill="#DE4A43" transform="translate(366,384)"/>
<path d="M0 0 C0.97272858 -0.00525696 1.94545715 -0.01051392 2.94766235 -0.01593018 C6.16302542 -0.02913489 9.37789362 -0.02039161 12.59326172 -0.01025391 C14.82477921 -0.01227417 17.05629605 -0.01518521 19.28781128 -0.01895142 C23.96342254 -0.02337514 28.63886185 -0.01694079 33.31445312 -0.00292969 C39.31837165 0.01418188 45.32188845 0.00430864 51.32579231 -0.01364708 C55.93247528 -0.02446663 60.53906235 -0.02104732 65.14574814 -0.0132637 C67.36021853 -0.01125766 69.57469753 -0.01373506 71.78915787 -0.02070236 C74.87790393 -0.02828888 77.96599077 -0.01675273 81.0546875 0 C81.97628662 -0.00607269 82.89788574 -0.01214539 83.84741211 -0.0184021 C84.6857962 -0.00994263 85.5241803 -0.00148315 86.38796997 0.00723267 C87.48356326 0.00892928 87.48356326 0.00892928 88.60128975 0.01066017 C90.39794922 0.38818359 90.39794922 0.38818359 92.39794922 3.38818359 C91.25368469 3.22650696 90.10942017 3.06483032 88.93048096 2.89825439 C84.56518783 2.35533607 80.27219656 2.23362563 75.87744141 2.22705078 C75.06649521 2.22208588 74.25554901 2.21712097 73.42002869 2.21200562 C70.76161827 2.19751083 68.10326751 2.19060347 65.44482422 2.18505859 C64.5293708 2.18223122 63.61391739 2.17940384 62.67072296 2.17649078 C57.82637753 2.16154997 52.98206148 2.15228816 48.13769531 2.14794922 C43.16397665 2.142471 38.1905326 2.11844186 33.21689987 2.08997726 C29.36473836 2.07124914 25.5126417 2.06613991 21.66043854 2.06461334 C19.82822417 2.06160941 17.99601031 2.05365843 16.16384125 2.04042816 C6.15326114 1.97329641 -2.98245546 2.19133648 -12.60205078 5.38818359 C-12.93205078 4.72818359 -13.26205078 4.06818359 -13.60205078 3.38818359 C-9.73681693 -0.68652839 -5.22740764 -0.03459694 0 0 Z " fill="#DDFBEA" transform="translate(213.60205078125,91.61181640625)"/>
<path d="M0 0 C0 0.66 0 1.32 0 2 C35.31 2.33 70.62 2.66 107 3 C107.33 2.01 107.66 1.02 108 0 C108 1.32 108 2.64 108 4 C71.37 4 34.74 4 -3 4 C-3.33 3.01 -3.66 2.02 -4 1 C-2 0 -2 0 0 0 Z " fill="#FEB10E" transform="translate(324,304)"/>
<path d="M0 0 C0.66 0 1.32 0 2 0 C2 0.66 2 1.32 2 2 C2.66 2 3.32 2 4 2 C4.5775 3.175625 5.155 4.35125 5.75 5.5625 C7.1590871 8.39577157 8.6432675 11.14929308 10.25 13.875 C12 17 12 17 12 19 C12.66 19 13.32 19 14 19 C14 19.99 14 20.98 14 22 C14.66 22 15.32 22 16 22 C16.12375 22.639375 16.2475 23.27875 16.375 23.9375 C16.58125 24.618125 16.7875 25.29875 17 26 C17.66 26.33 18.32 26.66 19 27 C19 27.99 19 28.98 19 30 C19.99 30 20.98 30 22 30 C22.33 32.31 22.66 34.62 23 37 C24.485 37.495 24.485 37.495 26 38 C26.33 39.65 26.66 41.3 27 43 C23.08965663 40.17590965 20.83431951 37.53743741 18.4765625 33.34375 C17.8475 32.23773438 17.2184375 31.13171875 16.5703125 29.9921875 C15.92835937 28.83976562 15.28640625 27.68734375 14.625 26.5 C13.34661271 24.2394371 12.06796802 21.97901975 10.7890625 19.71875 C9.85562012 18.05585938 9.85562012 18.05585938 8.90332031 16.359375 C6.40924548 11.95731373 3.84237513 7.60083504 1.26318359 3.24804688 C0 1 0 1 0 0 Z " fill="#1D69BE" transform="translate(101,358)"/>
<path d="M0 0 C0.33 0.66 0.66 1.32 1 2 C-0.23168945 4.68969727 -0.23168945 4.68969727 -2.11328125 8.06640625 C-2.44289352 8.66049789 -2.7725058 9.25458954 -3.11210632 9.86668396 C-3.81199897 11.12381459 -4.51587845 12.3787325 -5.22338867 13.6315918 C-6.30705713 15.55285021 -7.37606446 17.48171697 -8.44335938 19.41210938 C-13.72220018 28.86110009 -13.72220018 28.86110009 -16 30 C-15.67 28.02 -15.34 26.04 -15 24 C-14.34 24 -13.68 24 -13 24 C-13 22.35 -13 20.7 -13 19 C-13.66 18.67 -14.32 18.34 -15 18 C-14.39816251 15.97954558 -13.72693904 13.97888961 -13 12 C-12.34 11.67 -11.68 11.34 -11 11 C-10.67 11.99 -10.34 12.98 -10 14 C-9.34 14.33 -8.68 14.66 -8 15 C-7.731875 14.29875 -7.46375 13.5975 -7.1875 12.875 C-5.25741108 8.20215314 -3.18719406 3.94604978 0 0 Z " fill="#078222" transform="translate(288,136)"/>
<path d="M0 0 C0.33 0.66 0.66 1.32 1 2 C1.7425 2.28875 2.485 2.5775 3.25 2.875 C8.85117197 5.16638853 12.01786282 8.80887232 15 14 C15 14.99 15 15.98 15 17 C15.66 17 16.32 17 17 17 C17.33 18.32 17.66 19.64 18 21 C17.34 21 16.68 21 16 21 C16 20.34 16 19.68 16 19 C15.34 19 14.68 19 14 19 C13.566875 17.88625 13.13375 16.7725 12.6875 15.625 C11.30088881 11.82487666 11.30088881 11.82487666 8 10 C8 9.01 8 8.02 8 7 C5.69 6.67 3.38 6.34 1 6 C0.5978125 6.8353125 0.5978125 6.8353125 0.1875 7.6875 C-1.10122647 10.19712523 -2.52926478 12.59334236 -4 15 C-4.66 14.67 -5.32 14.34 -6 14 C-4.50829734 9.0276578 -2.39542583 4.58154261 0 0 Z " fill="#E2BD11" transform="translate(311,97)"/>
<path d="M0 0 C3.96 0.33 7.92 0.66 12 1 C11.06588007 4.7364797 9.77257035 7.60899585 8 11 C8.66 11 9.32 11 10 11 C10.33 13.31 10.66 15.62 11 18 C8.02561539 14.51279046 6.00996834 11.10368536 4 7 C2.67541292 4.99419671 1.3440093 2.99284138 0 1 C0 0.67 0 0.34 0 0 Z " fill="#D94745" transform="translate(322,309)"/>
<path d="M0 0 C0.99149765 3.9659906 1.24774295 5.25677116 0 9 C-1.51468394 11.24810984 -3.11088756 13.01873573 -5 15 C-5.66 15 -6.32 15 -7 15 C-6.938125 15.763125 -6.87625 16.52625 -6.8125 17.3125 C-7 20 -7 20 -8.5 21.8125 C-8.995 22.204375 -9.49 22.59625 -10 23 C-10.99 22.67 -11.98 22.34 -13 22 C-8.71 14.74 -4.42 7.48 0 0 Z " fill="#F9FCF6" transform="translate(405,368)"/>
<path d="M0 0 C0.33 0.66 0.66 1.32 1 2 C1.66 2 2.32 2 3 2 C4.7265625 4.5546875 4.7265625 4.5546875 6.625 7.875 C7.57246094 9.51082031 7.57246094 9.51082031 8.5390625 11.1796875 C10 14 10 14 10 16 C9.01 15.67 8.02 15.34 7 15 C7 14.01 7 13.02 7 12 C5.02 12.66 3.04 13.32 1 14 C1 14.66 1 15.32 1 16 C0.34 16 -0.32 16 -1 16 C-0.835 14.906875 -0.67 13.81375 -0.5 12.6875 C0.06718184 9.12474127 0.06718184 9.12474127 0 6 C0 4 0 2 0 0 Z " fill="#FAB80C" transform="translate(417,272)"/>
<path d="M0 0 C1.13643966 3.40931897 0.86747764 4.00335456 -0.4375 7.1875 C-0.72496094 7.90292969 -1.01242188 8.61835938 -1.30859375 9.35546875 C-1.53675781 9.89816406 -1.76492187 10.44085938 -2 11 C-2.66 11 -3.32 11 -4 11 C-4.19335938 11.63808594 -4.38671875 12.27617187 -4.5859375 12.93359375 C-4.97652344 14.17302734 -4.97652344 14.17302734 -5.375 15.4375 C-5.63023438 16.26121094 -5.88546875 17.08492188 -6.1484375 17.93359375 C-7 20 -7 20 -9 21 C-9.68931344 23.34907875 -9.68931344 23.34907875 -10.125 26.0625 C-10.29257813 26.98160156 -10.46015625 27.90070313 -10.6328125 28.84765625 C-10.75398438 29.55792969 -10.87515625 30.26820313 -11 31 C-11.33 31 -11.66 31 -12 31 C-13.19271574 19.07284255 -6.09633688 9.77143358 0 0 Z " fill="#26A45E" transform="translate(91,276)"/>
<path d="M0 0 C0.66 0 1.32 0 2 0 C2 0.66 2 1.32 2 2 C2.66 2 3.32 2 4 2 C4.24234375 2.50789062 4.4846875 3.01578125 4.734375 3.5390625 C6.39290769 6.94543348 8.06583596 10.09781343 10.1875 13.25 C12 16 12 16 12.5625 18.3125 C12.706875 18.869375 12.85125 19.42625 13 20 C13.99 20.33 14.98 20.66 16 21 C16.33 23.64 16.66 26.28 17 29 C14.69859704 26.86959397 13.16802284 24.79478329 11.66015625 22.05078125 C11.23669922 21.28443359 10.81324219 20.51808594 10.37695312 19.72851562 C9.94318359 18.93123047 9.50941406 18.13394531 9.0625 17.3125 C8.63259766 16.53455078 8.20269531 15.75660156 7.75976562 14.95507812 C5.0510695 10.0268131 2.48485916 5.04466767 0 0 Z " fill="#EFBE28" transform="translate(261,203)"/>
<path d="M0 0 C1.38993698 4.9437973 0.16137831 8.40604383 -2 13 C-4.5625 15.875 -4.5625 15.875 -7 18 C-7.66 18.99 -8.32 19.98 -9 21 C-9.66 21 -10.32 21 -11 21 C-9.53171057 15.82064939 -7.18508737 11.65626588 -4.375 7.125 C-3.95476562 6.43664062 -3.53453125 5.74828125 -3.1015625 5.0390625 C-2.07307528 3.35608342 -1.037279 1.67757468 0 0 Z " fill="#D8FAE9" transform="translate(214,267)"/>
<path d="M0 0 C2 0 2 0 4.5625 2.3125 C7 5 7 5 8 8 C8.66 8 9.32 8 10 8 C9.979375 8.9075 9.95875 9.815 9.9375 10.75 C9.9889755 13.42672588 10.2215017 15.46988052 11 18 C11.66 18 12.32 18 13 18 C12.67 18.99 12.34 19.98 12 21 C11.66226562 20.43410156 11.32453125 19.86820312 10.9765625 19.28515625 C10.53054688 18.55167969 10.08453125 17.81820313 9.625 17.0625 C9.18414062 16.33160156 8.74328125 15.60070312 8.2890625 14.84765625 C7.1226016 12.86227728 7.1226016 12.86227728 5 12 C4.690625 10.88625 4.38125 9.7725 4.0625 8.625 C3.05446657 5.18582713 2.57102741 4.22043276 0 2 C0 1.34 0 0.68 0 0 Z " fill="#B65368" transform="translate(342,344)"/>
<path d="M0 0 C0.66 0.33 1.32 0.66 2 1 C-2.62 8.92 -7.24 16.84 -12 25 C-12.33 23.68 -12.66 22.36 -13 21 C-12.34 21 -11.68 21 -11 21 C-10.896875 20.319375 -10.79375 19.63875 -10.6875 18.9375 C-9.85274981 15.37084011 -8.50527246 12.33777806 -7 9 C-6.34 9 -5.68 9 -5 9 C-4.731875 8.2575 -4.46375 7.515 -4.1875 6.75 C-3.05770579 4.13363446 -1.79106798 2.19812889 0 0 Z " fill="#D7FBE7" transform="translate(101,256)"/>
<path d="M0 0 C0.99 0.33 1.98 0.66 3 1 C-1.62072341 9.35909763 -6.31308496 17.67791774 -11 26 C-12.09716797 22.26757812 -12.09716797 22.26757812 -11.22265625 19.859375 C-10.64837891 18.81523437 -10.64837891 18.81523437 -10.0625 17.75 C-9.68222656 17.04359375 -9.30195312 16.3371875 -8.91015625 15.609375 C-8.60980469 15.07828125 -8.30945313 14.5471875 -8 14 C-7.34 14 -6.68 14 -6 14 C-5.87625 13.46375 -5.7525 12.9275 -5.625 12.375 C-4.87394317 9.52098405 -4.04340771 6.76196159 -3 4 C-2.34 3.67 -1.68 3.34 -1 3 C-0.67 2.01 -0.34 1.02 0 0 Z " fill="#D6FBE9" transform="translate(128,207)"/>
<path d="M0 0 C1 2 1 2 0.25 4.8125 C-1.19596527 8.49971145 -2.67886189 11.73170742 -5.5625 14.5 C-7.43229542 16.45109087 -8.05732903 18.48621076 -9 21 C-9.66 21.99 -10.32 22.98 -11 24 C-11.66 24 -12.32 24 -13 24 C-11.54349378 18.89431245 -9.26847809 14.78363634 -6.5 10.3125 C-5.89478516 9.31766602 -5.89478516 9.31766602 -5.27734375 8.30273438 C-3.56672808 5.49969583 -1.82164506 2.7324676 0 0 Z " fill="#22A85D" transform="translate(172,136)"/>
<path d="M0 0 C3.37196967 2.19786558 4.87193121 4.18028785 6.5625 7.8125 C6.97886719 8.69550781 7.39523437 9.57851563 7.82421875 10.48828125 C8.40623047 11.73158203 8.40623047 11.73158203 9 13 C9.61875 14.155 10.2375 15.31 10.875 16.5 C11.24625 17.325 11.6175 18.15 12 19 C11.67 19.66 11.34 20.32 11 21 C10.34 20.67 9.68 20.34 9 20 C9 19.01 9 18.02 9 17 C8.01 16.67 7.02 16.34 6 16 C6.33 15.01 6.66 14.02 7 13 C6.01 13 5.02 13 4 13 C2.64560332 10.29120665 2.93498549 7.99066732 3 5 C2.34 5 1.68 5 1 5 C0.67 3.35 0.34 1.7 0 0 Z " fill="#5474D0" transform="translate(324,314)"/>
<path d="M0 0 C0.66 0 1.32 0 2 0 C2.33 1.32 2.66 2.64 3 4 C3.66 4 4.32 4 5 4 C5.26554687 4.56589844 5.53109375 5.13179688 5.8046875 5.71484375 C6.15789062 6.44832031 6.51109375 7.18179687 6.875 7.9375 C7.22304688 8.66839844 7.57109375 9.39929688 7.9296875 10.15234375 C8.8684977 12.16332459 8.8684977 12.16332459 11 13 C11 14.65 11 16.3 11 18 C11.66 18 12.32 18 13 18 C13 19.65 13 21.3 13 23 C10 19.25 10 19.25 10 17 C9.34 17 8.68 17 8 17 C7.67386719 16.33613281 7.34773438 15.67226563 7.01171875 14.98828125 C4.25338463 9.4110217 4.25338463 9.4110217 1.1875 4 C0 2 0 2 0 0 Z " fill="#FEF5C7" transform="translate(410,257)"/>
<path d="M0 0 C0.66 0 1.32 0 2 0 C0.2010497 5.07634826 -2.49026455 9.63713611 -5.125 14.3125 C-5.59292969 15.14845703 -6.06085938 15.98441406 -6.54296875 16.84570312 C-7.6926259 18.89866233 -8.84503802 20.95002202 -10 23 C-10.33 23 -10.66 23 -11 23 C-11.36637589 16.64948454 -11.36637589 16.64948454 -9.625 13.5625 C-8 12 -8 12 -6 12 C-5.7525 11.319375 -5.505 10.63875 -5.25 9.9375 C-3.75802092 6.43134917 -1.93164489 3.28379632 0 0 Z " fill="#1CA357" transform="translate(206,277)"/>
<path d="M0 0 C0.33 0 0.66 0 1 0 C1.32309043 8.23880597 1.32309043 8.23880597 -1 12 C-3.625 12.8125 -3.625 12.8125 -6 13 C-6.33 12.34 -6.66 11.68 -7 11 C-5.8203125 8.65234375 -5.8203125 8.65234375 -4.125 5.9375 C-3.57070312 5.03902344 -3.01640625 4.14054687 -2.4453125 3.21484375 C-1 1 -1 1 0 0 Z " fill="#15A551" transform="translate(190,106)"/>
<path d="M0 0 C0.33 0.66 0.66 1.32 1 2 C0.690625 2.598125 0.38125 3.19625 0.0625 3.8125 C-1.7067306 7.45503359 -1.25499502 10.23501494 0 14 C-0.4375 16.6875 -0.4375 16.6875 -1 19 C-5.69110764 13.55226209 -5.69110764 13.55226209 -6 10 C-4.78515625 7.421875 -4.78515625 7.421875 -3.0625 4.75 C-2.49660156 3.85796875 -1.93070312 2.9659375 -1.34765625 2.046875 C-0.90292969 1.37140625 -0.45820313 0.6959375 0 0 Z " fill="#EABC15" transform="translate(262,184)"/>
<path d="M0 0 C0.99 0 1.98 0 3 0 C3.33 0.99 3.66 1.98 4 3 C4.66 3 5.32 3 6 3 C6 3.66 6 4.32 6 5 C6.66 5 7.32 5 8 5 C8 4.34 8 3.68 8 3 C8.66 3 9.32 3 10 3 C9.67 4.65 9.34 6.3 9 8 C8.34 8 7.68 8 7 8 C6.67 9.32 6.34 10.64 6 12 C4.99466333 10.37829621 3.99588093 8.75252763 3 7.125 C2.443125 6.22007812 1.88625 5.31515625 1.3125 4.3828125 C0 2 0 2 0 0 Z " fill="#D44949" transform="translate(366,384)"/>
<path d="M0 0 C0.78744155 2.29120089 1.14674563 3.56336424 0.36328125 5.89453125 C0.01652344 6.52746094 -0.33023438 7.16039063 -0.6875 7.8125 C-1.05746094 8.49957031 -1.42742187 9.18664062 -1.80859375 9.89453125 C-2.20175781 10.58933594 -2.59492188 11.28414062 -3 12 C-3.38285156 12.68449219 -3.76570312 13.36898437 -4.16015625 14.07421875 C-5.09361364 15.72366139 -6.0450343 17.36291594 -7 19 C-7.66 18.67 -8.32 18.34 -9 18 C-7.65072455 13.46152802 -5.80840652 9.68067754 -3.375 5.625 C-2.74335938 4.56539063 -2.11171875 3.50578125 -1.4609375 2.4140625 C-0.73777344 1.21910156 -0.73777344 1.21910156 0 0 Z " fill="#25AB5D" transform="translate(182,118)"/>
<path d="M0 0 C2.4375 0.8125 2.4375 0.8125 5 2 C5.33 2.99 5.66 3.98 6 5 C6.66 5 7.32 5 8 5 C11 10.75 11 10.75 11 13 C10.34 13 9.68 13 9 13 C8.67 12.01 8.34 11.02 8 10 C5.98491642 9.26676204 5.98491642 9.26676204 4 9 C4.33 7.68 4.66 6.36 5 5 C3.35 5.33 1.7 5.66 0 6 C0 4.02 0 2.04 0 0 Z " fill="#4579DD" transform="translate(356,375)"/>
<path d="M0 0 C0.66 0 1.32 0 2 0 C2 0.99 2 1.98 2 3 C2.66 3 3.32 3 4 3 C4 3.99 4 4.98 4 6 C4.99 6 5.98 6 7 6 C7.33 8.64 7.66 11.28 8 14 C8.66 14 9.32 14 10 14 C10.33 15.65 10.66 17.3 11 19 C10.34 18.67 9.68 18.34 9 18 C9 17.01 9 16.02 9 15 C8.34 15 7.68 15 7 15 C6.74605469 14.46890625 6.49210937 13.9378125 6.23046875 13.390625 C4.72788069 10.3066615 3.32578272 7.43049859 1.25 4.6875 C0 3 0 3 0 0 Z " fill="#BD515F" transform="translate(355,365)"/>
<path d="M0 0 C0.99 0 1.98 0 3 0 C3.33 0.66 3.66 1.32 4 2 C2.6015625 4.8203125 2.6015625 4.8203125 0.625 8.125 C-0.02210938 9.22070312 -0.66921875 10.31640625 -1.3359375 11.4453125 C-1.88507813 12.28835937 -2.43421875 13.13140625 -3 14 C-3.33 14 -3.66 14 -4 14 C-4.33 11.36 -4.66 8.72 -5 6 C-4.67 6.66 -4.34 7.32 -4 8 C-3.34 8 -2.68 8 -2 8 C-2.061875 6.576875 -2.061875 6.576875 -2.125 5.125 C-2 2 -2 2 0 0 Z " fill="#178319" transform="translate(297,116)"/>
<path d="M0 0 C4.43855366 4.13244651 6.84064615 8.38567998 9 14 C9.65213539 15.34050052 10.31379969 16.67661368 11 18 C10.01 18.33 9.02 18.66 8 19 C7.87625 18.360625 7.7525 17.72125 7.625 17.0625 C7.41875 16.381875 7.2125 15.70125 7 15 C6.34 14.67 5.68 14.34 5 14 C2 7.76923077 2 7.76923077 2 4 C1.34 4 0.68 4 0 4 C0 2.68 0 1.36 0 0 Z " fill="#6D6CB1" transform="translate(367,388)"/>
<path d="M0 0 C0.99 0.99 1.98 1.98 3 3 C0.03 8.28 -2.94 13.56 -6 19 C-6.33 19 -6.66 19 -7 19 C-7 17.35 -7 15.7 -7 14 C-6.34 14 -5.68 14 -5 14 C-5 12.68 -5 11.36 -5 10 C-4.34 10 -3.68 10 -3 10 C-2.01 6.7 -1.02 3.4 0 0 Z " fill="#D75346" transform="translate(412,349)"/>
<path d="M0 0 C2.375 0.1875 2.375 0.1875 5 1 C7.3920794 4.94693102 7.54146084 9.49103157 8 14 C7.34 13.67 6.68 13.34 6 13 C5.26924352 10.6859378 4.59861742 8.35171131 4 6 C3.34 6 2.68 6 2 6 C1.34 4.02 0.68 2.04 0 0 Z " fill="#B55465" transform="translate(334,330)"/>
<path d="M0 0 C1.20272819 2.40545638 1.10071472 3.94996953 1.0625 6.625 C1.05347656 7.44226563 1.04445312 8.25953125 1.03515625 9.1015625 C1.02355469 9.72804687 1.01195312 10.35453125 1 11 C0.34 10.67 -0.32 10.34 -1 10 C-1 9.34 -1 8.68 -1 8 C-1.66 8 -2.32 8 -3 8 C-3 9.98 -3 11.96 -3 14 C-4.32 14 -5.64 14 -7 14 C-5.23570801 9.02790438 -2.6060834 4.56561939 0 0 Z " fill="#E0FAEC" transform="translate(247,210)"/>
<path d="M0 0 C0.66 0 1.32 0 2 0 C1.7834375 0.6084375 1.566875 1.216875 1.34375 1.84375 C-1.34957925 10.32274949 -1.29758959 18.21559631 -1 27 C-3.03875926 23.9418611 -3.25490139 23.28939991 -3.265625 19.83984375 C-3.26820312 19.04642578 -3.27078125 18.25300781 -3.2734375 17.43554688 C-3.26570313 16.61119141 -3.25796875 15.78683594 -3.25 14.9375 C-3.25773437 14.10927734 -3.26546875 13.28105469 -3.2734375 12.42773438 C-3.27085938 11.63560547 -3.26828125 10.84347656 -3.265625 10.02734375 C-3.26336914 9.30281006 -3.26111328 8.57827637 -3.25878906 7.83178711 C-3 6 -3 6 -1 4 C-0.3574765 1.93125966 -0.3574765 1.93125966 0 0 Z " fill="#DCFBF2" transform="translate(80,291)"/>
<path d="M0 0 C0.33 0.66 0.66 1.32 1 2 C0.37915039 3.69580078 0.37915039 3.69580078 -0.65234375 5.6953125 C-1.01650391 6.41074219 -1.38066406 7.12617188 -1.75585938 7.86328125 C-2.14580078 8.60964844 -2.53574219 9.35601562 -2.9375 10.125 C-3.32357422 10.87910156 -3.70964844 11.63320312 -4.10742188 12.41015625 C-5.06452132 14.27709097 -6.03136106 16.13902628 -7 18 C-7.99 17.67 -8.98 17.34 -10 17 C-6.7 11.39 -3.4 5.78 0 0 Z " fill="#2BA661" transform="translate(120,226)"/>
<path d="M0 0 C1.32 0.33 2.64 0.66 4 1 C4 2.32 4 3.64 4 5 C4.66 5 5.32 5 6 5 C6.64995297 6.41478135 7.29478722 7.83191487 7.9375 9.25 C8.29714844 10.03890625 8.65679687 10.8278125 9.02734375 11.640625 C9.90033279 13.75823698 10.51338508 15.76669362 11 18 C7.73171993 15.21629142 5.87542089 11.56811335 3.8125 7.875 C3.44447266 7.22917969 3.07644531 6.58335937 2.69726562 5.91796875 C0 1.14395872 0 1.14395872 0 0 Z " fill="#FEF8CB" transform="translate(333,124)"/>
<path d="M0 0 C0.66 0 1.32 0 2 0 C3.85776765 3.13498292 4.20140476 5.37471432 4 9 C4.99 9 5.98 9 7 9 C6.67 12.3 6.34 15.6 6 19 C5.67 19 5.34 19 5 19 C4.35377959 16.58343624 3.70800996 14.16675354 3.0625 11.75 C2.88009766 11.06808594 2.69769531 10.38617188 2.50976562 9.68359375 C1.64946879 6.46139106 0.79316866 3.23946777 0 0 Z " fill="#FEFAD2" transform="translate(429,290)"/>
<path d="M0 0 C0.99 0.33 1.98 0.66 3 1 C0.36 5.62 -2.28 10.24 -5 15 C-5.33 13.68 -5.66 12.36 -6 11 C-5.34 11 -4.68 11 -4 11 C-4.04125 10.236875 -4.0825 9.47375 -4.125 8.6875 C-4 6 -4 6 -2 3 C-1.34 3 -0.68 3 0 3 C0 2.01 0 1.02 0 0 Z " fill="#2B8010" transform="translate(263,177)"/>
<path d="M0 0 C0.33 0 0.66 0 1 0 C1.375 3.1875 1.375 3.1875 1 7 C-0.81188028 9.1403498 -2.65801167 10.38988302 -5 12 C-5.33 11.34 -5.66 10.68 -6 10 C-4.8203125 7.6171875 -4.8203125 7.6171875 -3.125 4.875 C-2.57070313 3.96492187 -2.01640625 3.05484375 -1.4453125 2.1171875 C-0.96835937 1.41851562 -0.49140625 0.71984375 0 0 Z " fill="#DBBA18" transform="translate(292,132)"/>
<path d="M0 0 C0.66 0 1.32 0 2 0 C2 0.66 2 1.32 2 2 C2.66 2 3.32 2 4 2 C4.99 4.97 5.98 7.94 7 11 C7.66 11 8.32 11 9 11 C9.33 12.98 9.66 14.96 10 17 C5.76592422 11.98183611 1.32789137 6.55190357 0 0 Z " fill="#EEC130" transform="translate(279,234)"/>
<path d="M0 0 C0.8971875 0.5259375 0.8971875 0.5259375 1.8125 1.0625 C4.10813214 2.33304698 4.10813214 2.33304698 7 1 C6.79375 1.928125 6.5875 2.85625 6.375 3.8125 C5.63307034 7.15173402 5.63307034 7.15173402 8 10 C7.67 10.99 7.34 11.98 7 13 C5.83072457 11.02237345 4.66464427 9.04285742 3.5 7.0625 C2.8503125 5.96035156 2.200625 4.85820312 1.53125 3.72265625 C0 1 0 1 0 0 Z " fill="#FDF7D3" transform="translate(374,195)"/>
<path d="M0 0 C4.428413 2.2142065 6.57895218 4.69591499 9 9 C9 9.99 9 10.98 9 12 C9.66 12 10.32 12 11 12 C11.33 13.32 11.66 14.64 12 16 C11.34 16 10.68 16 10 16 C10 15.34 10 14.68 10 14 C9.34 14 8.68 14 8 14 C7.566875 12.88625 7.13375 11.7725 6.6875 10.625 C5.30088881 6.82487666 5.30088881 6.82487666 2 5 C2 4.01 2 3.02 2 2 C1.34 2 0.68 2 0 2 C0 1.34 0 0.68 0 0 Z " fill="#EFC442" transform="translate(317,102)"/>
<path d="M0 0 C0.33 0 0.66 0 1 0 C1 1.65 1 3.3 1 5 C0.34 5 -0.32 5 -1 5 C-0.938125 5.763125 -0.87625 6.52625 -0.8125 7.3125 C-1 10 -1 10 -2.5 11.8125 C-2.995 12.204375 -3.49 12.59625 -4 13 C-4.99 12.67 -5.98 12.34 -7 12 C-5.85865673 9.99743426 -4.71181367 7.99800203 -3.5625 6 C-2.92441406 4.88625 -2.28632813 3.7725 -1.62890625 2.625 C-1.09136719 1.75875 -0.55382812 0.8925 0 0 Z " fill="#FDE5DE" transform="translate(399,378)"/>
<path d="M0 0 C0.99 0.495 0.99 0.495 2 1 C2.40729228 3.32156597 2.74438677 5.6568787 3 8 C3.99 8.33 4.98 8.66 6 9 C7.1875 11.5625 7.1875 11.5625 8 14 C7.01 14.33 6.02 14.66 5 15 C4.67 13.35 4.34 11.7 4 10 C2.68 10 1.36 10 0 10 C0 6.7 0 3.4 0 0 Z " fill="#4878DA" transform="translate(344,348)"/>
<path d="M0 0 C1.2077558 3.62326739 0.54311128 4.64146369 -1 8 C-1.66 8 -2.32 8 -3 8 C-3.12375 8.5775 -3.2475 9.155 -3.375 9.75 C-4.00648824 12.02335767 -4.88858191 13.9253529 -6 16 C-6.66 16 -7.32 16 -8 16 C-6.42986223 10.03347646 -3.24970218 5.17090975 0 0 Z " fill="#D2BC1E" transform="translate(301,116)"/>
<path d="M0 0 C0.99 0.33 1.98 0.66 3 1 C0.03 6.28 -2.94 11.56 -6 17 C-7 14 -7 14 -6.07421875 11.9140625 C-5.61660156 11.15867187 -5.15898437 10.40328125 -4.6875 9.625 C-2.8386763 6.4768641 -1.22555175 3.45382765 0 0 Z " fill="#D3554F" transform="translate(401,370)"/>
<path d="M0 0 C0.99 0.33 1.98 0.66 3 1 C0.69 4.96 -1.62 8.92 -4 13 C-5.07349791 8.70600835 -4.79682816 7.80504787 -3 4 C-2.34 4 -1.68 4 -1 4 C-0.67 2.68 -0.34 1.36 0 0 Z " fill="#1DA558" transform="translate(253,195)"/>
<path d="M0 0 C0.33 0 0.66 0 1 0 C1.05406122 1.93719378 1.09282025 3.87481921 1.125 5.8125 C1.14820312 6.89144531 1.17140625 7.97039062 1.1953125 9.08203125 C1 12 1 12 -1 15 C-2 14 -2 14 -2.1875 10.875 C-1.99165552 6.82754737 -1.24854964 3.82368327 0 0 Z " fill="#F8FEF0" transform="translate(76,302)"/>
<path d="M0 0 C0.33 0 0.66 0 1 0 C1.70731186 4.66825827 -0.07722471 7.03280231 -2.7109375 10.64453125 C-3.13632813 11.09183594 -3.56171875 11.53914062 -4 12 C-4.66 12 -5.32 12 -6 12 C-4.43358249 7.69235185 -2.31663844 3.93828536 0 0 Z " fill="#26A35C" transform="translate(135,200)"/>
<path d="M0 0 C0.33 0.66 0.66 1.32 1 2 C-0.24282012 4.45038293 -1.52882339 6.773325 -2.9375 9.125 C-3.32357422 9.78371094 -3.70964844 10.44242188 -4.10742188 11.12109375 C-5.06446578 12.751613 -6.03132815 14.37636184 -7 16 C-8 13 -8 13 -7.109375 10.87890625 C-6.43648438 9.73228516 -6.43648438 9.73228516 -5.75 8.5625 C-5.31171875 7.80066406 -4.8734375 7.03882813 -4.421875 6.25390625 C-3.04823592 4.07646188 -1.57578244 2.03461321 0 0 Z " fill="#317C06" transform="translate(288,136)"/>
<path d="M0 0 C1.65 1.65 3.3 3.3 5 5 C1.35839192 6.21386936 0.66834531 5.6674695 -2.6875 4.0625 C-3.89986328 3.49208984 -3.89986328 3.49208984 -5.13671875 2.91015625 C-5.75160156 2.60980469 -6.36648437 2.30945313 -7 2 C-3.98968256 1.06576355 -3.13349732 0.95550089 0 2 C0 1.34 0 0.68 0 0 Z " fill="#418DE5" transform="translate(140,404)"/>
<path d="M0 0 C0.99 0.33 1.98 0.66 3 1 C3 1.99 3 2.98 3 4 C3.99 4.33 4.98 4.66 6 5 C6.33 6.98 6.66 8.96 7 11 C7.66 11 8.32 11 9 11 C8.67 12.32 8.34 13.64 8 15 C6.66407203 12.6889639 5.33115569 10.37628245 4 8.0625 C3.6184375 7.40314453 3.236875 6.74378906 2.84375 6.06445312 C0 1.11328125 0 1.11328125 0 0 Z " fill="#1A6BC2" transform="translate(86,332)"/>
<path d="M0 0 C3.65427749 1.2180925 4.13131136 2.63824799 5.80078125 5.96679688 C6.11402344 6.61712891 6.42726563 7.26746094 6.75 7.9375 C7.07871094 8.58396484 7.40742188 9.23042969 7.74609375 9.89648438 C8.56735963 11.56500556 9.29139996 13.28060285 10 15 C9.67 15.66 9.34 16.32 9 17 C7.49462965 14.54481265 5.99555574 12.0861548 4.5 9.625 C4.07074219 8.92632812 3.64148438 8.22765625 3.19921875 7.5078125 C0 2.2265625 0 2.2265625 0 0 Z " fill="#ECBF32" transform="translate(289,251)"/>
<path d="M0 0 C-1.44950455 3.7910119 -3.15172566 7.3874638 -5 11 C-5.33 11 -5.66 11 -6 11 C-6.48951049 4.63636364 -6.48951049 4.63636364 -4.125 1.5625 C-2 0 -2 0 0 0 Z " fill="#D6FBE8" transform="translate(144,184)"/>
<path d="M0 0 C0.66 0.99 1.32 1.98 2 3 C0.54744301 6.82946843 -1.42895561 8.12050295 -5 10 C-3.84414715 6.08788267 -2.64465038 3.1254959 0 0 Z " fill="#24A85E" transform="translate(149,176)"/>
<path d="M0 0 C0.99 0.33 1.98 0.66 3 1 C1.66654496 4.59007126 0.1056769 7.79570907 -2 11 C-2.33 11 -2.66 11 -3 11 C-2.53199289 6.94393835 -2.12046792 3.53411321 0 0 Z " fill="#1C7E13" transform="translate(269,165)"/>
<path d="M0 0 C0.66 0.33 1.32 0.66 2 1 C-0.64 5.62 -3.28 10.24 -6 15 C-7.05609899 11.83170302 -7.13055309 11.01480825 -6 8 C-5.0206121 6.97980427 -4.02104551 5.97850195 -3 5 C-2.67 4.01 -2.34 3.02 -2 2 C-1.34 2 -0.68 2 0 2 C0 1.34 0 0.68 0 0 Z " fill="#DCFCE6" transform="translate(166,143)"/>
<path d="M0 0 C2.31242092 2.16323247 4.0156396 4.37647804 5.6875 7.0625 C6.12449219 7.75472656 6.56148438 8.44695312 7.01171875 9.16015625 C8 11 8 11 8 13 C5 12 5 12 3 9 C3 8.01 3 7.02 3 6 C2.34 6 1.68 6 1 6 C0.67 4.02 0.34 2.04 0 0 Z " fill="#EEC236" transform="translate(388,221)"/>
<path d="M0 0 C0.99 0.495 0.99 0.495 2 1 C2 1.99 2 2.98 2 4 C2.66 4 3.32 4 4 4 C4.66 5.98 5.32 7.96 6 10 C5.34 10 4.68 10 4 10 C3.34 9.34 2.68 8.68 2 8 C1.01 8.495 1.01 8.495 0 9 C0 6.03 0 3.06 0 0 Z " fill="#F2C022" transform="translate(370,190)"/>
<path d="M0 0 C0 0.66 0 1.32 0 2 C-4.64849515 4.3992233 -8.91086074 4.19957409 -14 4 C-11.17991324 2.11994216 -9.65676336 1.54324907 -6.4375 0.875 C-5.65246094 0.70742188 -4.86742187 0.53984375 -4.05859375 0.3671875 C-2 0 -2 0 0 0 Z " fill="#D4F0FE" transform="translate(374,408)"/>
<path d="M0 0 C1 4 1 4 -0.1875 7.1875 C-2 10 -2 10 -6 11 C-4.02 7.37 -2.04 3.74 0 0 Z " fill="#FEE5DE" transform="translate(424,335)"/>
<path d="M0 0 C2.65262179 1.32631089 3.21099749 2.85343108 4.625 5.4375 C5.07101562 6.24058594 5.51703125 7.04367187 5.9765625 7.87109375 C7 10 7 10 7 12 C6.01 11.67 5.02 11.34 4 11 C4 10.01 4 9.02 4 8 C2.68 7.34 1.36 6.68 0 6 C0 4.02 0 2.04 0 0 Z " fill="#F5C440" transform="translate(420,276)"/>
<path d="M0 0 C0.66 0.66 1.32 1.32 2 2 C2.66 1.34 3.32 0.68 4 0 C4.33 0.66 4.66 1.32 5 2 C4.00390625 3.9453125 4.00390625 3.9453125 2.5625 6.125 C2.08941406 6.84945313 1.61632812 7.57390625 1.12890625 8.3203125 C0.75636719 8.87460937 0.38382812 9.42890625 0 10 C-1.231394 6.30581799 -0.64432764 3.7943739 0 0 Z " fill="#DCFAE9" transform="translate(83,281)"/>
<path d="M0 0 C-0.5640854 3.94859783 -1.7431706 6.70879046 -4 10 C-4.33 10 -4.66 10 -5 10 C-5.3669579 3.51707705 -5.3669579 3.51707705 -3.625 1.0625 C-2 0 -2 0 0 0 Z " fill="#D94F4A" transform="translate(431,321)"/>
<path d="M0 0 C2.25245881 2.68841859 3.88213958 4.64641875 5 8 C4.34 8 3.68 8 3 8 C2.67 8.99 2.34 9.98 2 11 C1.67 11 1.34 11 1 11 C0.67 7.37 0.34 3.74 0 0 Z " fill="#F5BC23" transform="translate(411,261)"/>
<path d="M0 0 C1.24546405 2.49092811 0.7767578 3.41080733 0 6 C-0.66 6 -1.32 6 -2 6 C-2.33 7.65 -2.66 9.3 -3 11 C-3.99 11.33 -4.98 11.66 -6 12 C-4.43358249 7.69235185 -2.31663844 3.93828536 0 0 Z " fill="#D6BB19" transform="translate(285,144)"/>
<path d="M0 0 C3.09592835 3.5087188 4.74194623 6.49197399 6 11 C5.01 11.495 5.01 11.495 4 12 C4 11.01 4 10.02 4 9 C3.34 8.67 2.68 8.34 2 8 C-0.1519437 4.77208445 -0.20086443 3.71599191 0 0 Z " fill="#D8F0FD" transform="translate(97,352)"/>
<path d="M0 0 C3.96 0.33 7.92 0.66 12 1 C12 1.33 12 1.66 12 2 C9.69 2 7.38 2 5 2 C5 3.32 5 4.64 5 6 C4.01 5.67 3.02 5.34 2 5 C1.34 3.35 0.68 1.7 0 0 Z " fill="#CF5041" transform="translate(322,309)"/>
<path d="M0 0 C1.32 0 2.64 0 4 0 C2.90931332 3.77545388 2.0916909 6.47043472 -1 9 C-1.99 7.68 -2.98 6.36 -4 5 C-2.68 4.34 -1.36 3.68 0 3 C0.33 3.33 0.66 3.66 1 4 C1.33 3.01 1.66 2.02 2 1 C1.34 0.67 0.68 0.34 0 0 Z " fill="#2CB163" transform="translate(229,234)"/>
<path d="M0 0 C3.29078593 2.79716804 5.06305458 6.19528578 7 10 C6.67 10.66 6.34 11.32 6 12 C3.10067643 9.60490662 2.49831724 7.68754757 2 4 C1.34 4 0.68 4 0 4 C0 2.68 0 1.36 0 0 Z " fill="#F0C03C" transform="translate(377,202)"/>
<path d="M0 0 C0.33 0 0.66 0 1 0 C1.66 2.97 2.32 5.94 3 9 C2.34 8.67 1.68 8.34 1 8 C1 7.34 1 6.68 1 6 C0.01 6 -0.98 6 -2 6 C-2.33 6.99 -2.66 7.98 -3 9 C-3.33 8.34 -3.66 7.68 -4 7 C-3.22265625 5.2734375 -3.22265625 5.2734375 -2.0625 3.375 C-1.381875 2.26125 -0.70125 1.1475 0 0 Z " fill="#DDBA19" transform="translate(267,175)"/>
<path d="M0 0 C1.32 0.33 2.64 0.66 4 1 C1.03 5.95 1.03 5.95 -2 11 C-3 8 -3 8 -2 5 C-1.34 5 -0.68 5 0 5 C0 3.35 0 1.7 0 0 Z " fill="#31800E" transform="translate(275,155)"/>
<path d="M0 0 C0.66 0.33 1.32 0.66 2 1 C-0.97 5.95 -0.97 5.95 -4 11 C-4.66 10.67 -5.32 10.34 -6 10 C-5.67 9.01 -5.34 8.02 -5 7 C-4.34 7 -3.68 7 -3 7 C-2.87625 6.030625 -2.7525 5.06125 -2.625 4.0625 C-2.41875 3.051875 -2.2125 2.04125 -2 1 C-1.34 0.67 -0.68 0.34 0 0 Z " fill="#D9FBE7" transform="translate(187,107)"/>
<path d="M0 0 C-1.45804169 0.81302325 -2.91644315 1.62540131 -4.375 2.4375 C-5.18710938 2.88996094 -5.99921875 3.34242187 -6.8359375 3.80859375 C-8.20996622 4.5650536 -9.59709261 5.29854631 -11 6 C-10.875 4.1875 -10.875 4.1875 -10 2 C-6.24352856 -0.42083715 -4.248227 -1.35464071 0 0 Z " fill="#198140" transform="translate(212,95)"/>
<path d="M0 0 C1 3 1 3 1 7 C2.32 7.33 3.64 7.66 5 8 C2.36 8 -0.28 8 -3 8 C-2.37240135 5.07120629 -1.41377341 2.63904371 0 0 Z " fill="#E4FCF4" transform="translate(195,300)"/>
<path d="M0 0 C0.66 1.32 1.32 2.64 2 4 C0.625 6 0.625 6 -1 8 C-1.66 8 -2.32 8 -3 8 C-3 8.99 -3 9.98 -3 11 C-3.66 11 -4.32 11 -5 11 C-3.77472971 6.94718288 -2.30119506 3.55639236 0 0 Z " fill="#CEF5DC" transform="translate(201,289)"/>
<path d="M0 0 C1.5 1.375 1.5 1.375 3 3 C3 3.66 3 4.32 3 5 C2.34 5 1.68 5 1 5 C0.34 6.32 -0.32 7.64 -1 9 C-1.99 8.01 -2.98 7.02 -4 6 C-2.68 5.67 -1.36 5.34 0 5 C0 3.35 0 1.7 0 0 Z " fill="#FAF8DC" transform="translate(297,267)"/>
<path d="M0 0 C0.33 0 0.66 0 1 0 C1 2.64 1 5.28 1 8 C1.66 8 2.32 8 3 8 C2.67 9.32 2.34 10.64 2 12 C-0.99481865 7.50777202 -0.99481865 7.50777202 -2 5 C-1.25 2.0625 -1.25 2.0625 0 0 Z " fill="#DFC533" transform="translate(258,191)"/>
<path d="M0 0 C3.53229144 2.35486096 4.2510101 4.19784805 6 8 C6.391875 8.78375 6.78375 9.5675 7.1875 10.375 C7.455625 10.91125 7.72375 11.4475 8 12 C5.6875 11.625 5.6875 11.625 3 10 C1.62425447 6.75410038 0.77907956 3.43301724 0 0 Z " fill="#5C72C6" transform="translate(352,363)"/>
<path d="M0 0 C0.33 0 0.66 0 1 0 C0.88541307 1.43836751 0.75790884 2.87570966 0.625 4.3125 C0.55539062 5.11300781 0.48578125 5.91351563 0.4140625 6.73828125 C0 9 0 9 -2 12 C-2 8.7 -2 5.4 -2 2 C-1.34 2 -0.68 2 0 2 C0 1.34 0 0.68 0 0 Z " fill="#DA5846" transform="translate(433,309)"/>
<path d="M0 0 C0.66 0 1.32 0 2 0 C1.40312566 3.34249629 0.26396123 5.46436342 -2 8 C-2.66 8 -3.32 8 -4 8 C-3.40312566 4.65750371 -2.26396123 2.53563658 0 0 Z " fill="#F1402C" transform="translate(334,312)"/>
<path d="M0 0 C3.09592835 3.5087188 4.74194623 6.49197399 6 11 C5.01 10.67 4.02 10.34 3 10 C3 8.68 3 7.36 3 6 C2.01 5.67 1.02 5.34 0 5 C0 3.35 0 1.7 0 0 Z " fill="#FEF1C1" transform="translate(288,251)"/>
<path d="M0 0 C0.66 0 1.32 0 2 0 C2.33 0.66 2.66 1.32 3 2 C3.99 2.33 4.98 2.66 6 3 C6 5.31 6 7.62 6 10 C3.47650757 6.87567603 1.72743854 3.61939504 0 0 Z " fill="#FFFAD6" transform="translate(423,280)"/>
<path d="M0 0 C1.28163292 3.84489875 0.69835501 5.37169613 -1 9 C-2.65 9.66 -4.3 10.32 -6 11 C-4.02 7.37 -2.04 3.74 0 0 Z " fill="#2DA462" transform="translate(103,255)"/>
<path d="M0 0 C2.61500768 2.36595933 4.38999603 4.86049226 6 8 C5.67 8.66 5.34 9.32 5 10 C1.95623822 7.97082548 1.25189126 7.27417715 0 4 C0 2.68 0 1.36 0 0 Z " fill="#ECC125" transform="translate(400,242)"/>
<path d="M0 0 C0.66 0.33 1.32 0.66 2 1 C0.35 3.64 -1.3 6.28 -3 9 C-3.66 8.67 -4.32 8.34 -5 8 C-5 7.34 -5 6.68 -5 6 C-4.34 6 -3.68 6 -3 6 C-2.87625 5.195625 -2.7525 4.39125 -2.625 3.5625 C-2.41875 2.716875 -2.2125 1.87125 -2 1 C-1.34 0.67 -0.68 0.34 0 0 Z " fill="#25A75B" transform="translate(238,223)"/>
<path d="M0 0 C0 3.15084005 -0.45473667 4.33871316 -2 7 C-2.66 7.66 -3.32 8.32 -4 9 C-5 6 -5 6 -4.25 3.9375 C-3 2 -3 2 0 0 Z " fill="#15A654" transform="translate(178,128)"/>
<path d="M0 0 C0.66 0.33 1.32 0.66 2 1 C-0.475 5.455 -0.475 5.455 -3 10 C-3.33 10 -3.66 10 -4 10 C-4.25 7.25 -4.25 7.25 -4 4 C-2 1.625 -2 1.625 0 0 Z " fill="#DAFBE7" transform="translate(174,129)"/>
<path d="M0 0 C2.5 2.25 2.5 2.25 5 5 C5 6.32 5 7.64 5 9 C4.34 9 3.68 9 3 9 C2.87625 8.360625 2.7525 7.72125 2.625 7.0625 C2.315625 6.0415625 2.315625 6.0415625 2 5 C1.34 4.67 0.68 4.34 0 4 C0 2.68 0 1.36 0 0 Z " fill="#5F77BD" transform="translate(372,398)"/>
<path d="M0 0 C0.6875 1.6875 0.6875 1.6875 1 4 C-0.25 6.6875 -0.25 6.6875 -2 9 C-2.99 9.33 -3.98 9.66 -5 10 C-3.66511872 6.40608886 -2.03977277 3.24509304 0 0 Z " fill="#FDDDD6" transform="translate(405,368)"/>
<path d="M0 0 C1.32 0 2.64 0 4 0 C2.7508258 3.45925163 1.32472205 6.14693203 -1 9 C-1.33 8.01 -1.66 7.02 -2 6 C-1.34 6 -0.68 6 0 6 C0 4.02 0 2.04 0 0 Z " fill="#1CA95E" transform="translate(211,265)"/>
<path d="M0 0 C0.66 0 1.32 0 2 0 C5.125 6.625 5.125 6.625 4 10 C0 3.375 0 3.375 0 0 Z " fill="#1B68C3" transform="translate(81,321)"/>
<path d="M0 0 C2.475 0.99 2.475 0.99 5 2 C5 3.98 5 5.96 5 8 C2.74754119 5.31158141 1.11786042 3.35358125 0 0 Z " fill="#F4BE1D" transform="translate(314,295)"/>
<path d="M0 0 C0.66 0.33 1.32 0.66 2 1 C1.67 1.99 1.34 2.98 1 4 C0.01 4 -0.98 4 -2 4 C-2.33 5.32 -2.66 6.64 -3 8 C-3.66 7.67 -4.32 7.34 -5 7 C-4.6875 5.0625 -4.6875 5.0625 -4 3 C-3.01 2.67 -2.02 2.34 -1 2 C-0.67 1.34 -0.34 0.68 0 0 Z " fill="#14A753" transform="translate(208,273)"/>
<path d="M0 0 C3.0916909 2.52956528 3.90931332 5.22454612 5 9 C4.01 9 3.02 9 2 9 C2 7.35 2 5.7 2 4 C1.34 4 0.68 4 0 4 C0 2.68 0 1.36 0 0 Z " fill="#FEF4C3" transform="translate(267,215)"/>
<path d="M0 0 C0.99 0.33 1.98 0.66 3 1 C1.35 3.64 -0.3 6.28 -2 9 C-2.33 7.68 -2.66 6.36 -3 5 C-2.34 5 -1.68 5 -1 5 C-0.67 3.35 -0.34 1.7 0 0 Z " fill="#D4F9E8" transform="translate(156,159)"/>
<path d="M0 0 C0.66 1.32 1.32 2.64 2 4 C1.525625 4.45375 1.05125 4.9075 0.5625 5.375 C-1.09027808 6.93258204 -1.09027808 6.93258204 -2 9 C-2.66 9 -3.32 9 -4 9 C-2.94124926 5.59687262 -1.99097846 2.98646769 0 0 Z " fill="#D8F9E2" transform="translate(229,241)"/>
<path d="M0 0 C0.66 0 1.32 0 2 0 C0.125 4.75 0.125 4.75 -1 7 C-1.99 6.67 -2.98 6.34 -4 6 C-2.7260411 3.96166576 -1.38938077 1.96147874 0 0 Z " fill="#1CA657" transform="translate(114,237)"/>
<path d="M0 0 C2.89932357 2.39509338 3.50168276 4.31245243 4 8 C3.01 7.34 2.02 6.68 1 6 C0.01 6.495 0.01 6.495 -1 7 C-0.67 4.69 -0.34 2.38 0 0 Z " fill="#FDF3C6" transform="translate(277,232)"/>
<path d="M0 0 C0.33 0.66 0.66 1.32 1 2 C2.64363134 2.72159424 4.31050386 3.39351421 6 4 C6 4.66 6 5.32 6 6 C4.68 6 3.36 6 2 6 C1.67 5.34 1.34 4.68 1 4 C0.01 4.495 0.01 4.495 -1 5 C-0.67 3.35 -0.34 1.7 0 0 Z " fill="#D9B825" transform="translate(311,97)"/>
<path d="M0 0 C0.66 0.33 1.32 0.66 2 1 C1.67 1.66 1.34 2.32 1 3 C0.34 3 -0.32 3 -1 3 C-1.33 3.99 -1.66 4.98 -2 6 C-3.32 5.67 -4.64 5.34 -6 5 C-4.02 3.35 -2.04 1.7 0 0 Z " fill="#26A15B" transform="translate(200,97)"/>
<path d="M0 0 C1.32 0 2.64 0 4 0 C4 0.66 4 1.32 4 2 C5.32 2 6.64 2 8 2 C8.33 3.32 8.66 4.64 9 6 C6.03 4.35 3.06 2.7 0 1 C0 0.67 0 0.34 0 0 Z " fill="#FDF1B6" transform="translate(312,98)"/>
<path d="M0 0 C2.4375 0.6875 2.4375 0.6875 5 2 C5.8125 4.625 5.8125 4.625 6 7 C1.125 3.375 1.125 3.375 0 0 Z " fill="#1E6DBF" transform="translate(122,394)"/>
<path d="M0 0 C0.33 0 0.66 0 1 0 C1 2.31 1 4.62 1 7 C-0.98 7.99 -0.98 7.99 -3 9 C-2.01 6.03 -1.02 3.06 0 0 Z " fill="#FCDFD7" transform="translate(431,321)"/>
<path d="M0 0 C3.03869411 1.51934706 3.64410306 3.98004772 5 7 C5 7.66 5 8.32 5 9 C2 8 2 8 0.8125 6.1875 C0 4 0 4 0 0 Z " fill="#FEF1BC" transform="translate(300,272)"/>
<path d="M0 0 C1 3 1 3 -0.4375 6.1875 C-1.2109375 7.5796875 -1.2109375 7.5796875 -2 9 C-2.66 9 -3.32 9 -4 9 C-2.94124926 5.59687262 -1.99097846 2.98646769 0 0 Z " fill="#29A661" transform="translate(125,217)"/>
<path d="M0 0 C0.66 0 1.32 0 2 0 C1.1875 2.9375 1.1875 2.9375 0 6 C-0.99 6.33 -1.98 6.66 -3 7 C-2.38722388 4.03824877 -1.74627478 2.61941217 0 0 Z " fill="#FCFFEF" transform="translate(393,208)"/>
<path d="M0 0 C0.99 0 1.98 0 3 0 C3 0.99 3 1.98 3 3 C3.66 3 4.32 3 5 3 C5 4.65 5 6.3 5 8 C2.74754119 5.31158141 1.11786042 3.35358125 0 0 Z " fill="#FEF7BF" transform="translate(364,178)"/>
<path d="M0 0 C0.33 0 0.66 0 1 0 C1.36923077 4.55384615 1.36923077 4.55384615 -0.5 6.8125 C-0.995 7.204375 -1.49 7.59625 -2 8 C-2.66 7.67 -3.32 7.34 -4 7 C-2.68 4.69 -1.36 2.38 0 0 Z " fill="#1DA85D" transform="translate(158,160)"/>
<path d="M0 0 C0.66 0 1.32 0 2 0 C2 0.66 2 1.32 2 2 C2.66 2 3.32 2 4 2 C4 3.65 4 5.3 4 7 C3.34 7 2.68 7 2 7 C1.34 4.69 0.68 2.38 0 0 Z " fill="#F3BF01" transform="translate(298,128)"/>
</svg>
