<?xml version="1.0" encoding="utf-8"?>
<!-- Generator: Adobe Illustrator 24.0.1, SVG Export Plug-In . SVG Version: 6.00 Build 0)  -->
<svg version="1.1" id="Layer_1" xmlns="http://www.w3.org/2000/svg" xmlns:xlink="http://www.w3.org/1999/xlink" x="0px" y="0px"
	 viewBox="0 0 32 32" style="enable-background:new 0 0 32 32;" xml:space="preserve">
<style type="text/css">
	.st0{fill:none;}
	.st1{fill:#666666;}
</style>
<g id="FB:_Blockquote" transform="translate(-7068 -10737.999)">
	<path id="Rectangle_2306" class="st0" d="M7070,10738h28c1.1,0,2,0.9,2,2v28c0,1.1-0.9,2-2,2h-28c-1.1,0-2-0.9-2-2v-28
		C7068,10738.9,7068.9,10738,7070,10738z"/>
	<path id="Path_1832" class="st1" d="M7087.3,10753.9h-1.5c0,0.2,0,0.3,0,0.5c0,0.2,0,0.4,0.1,0.6c0,0.2,0.1,0.4,0.1,0.5
		c0.1,0.2,0.1,0.3,0.3,0.5c0.1,0.1,0.2,0.2,0.4,0.3c0.2,0.1,0.3,0.1,0.5,0.1v1.3c-0.3,0-0.6,0-0.9-0.2c-0.3-0.1-0.5-0.3-0.7-0.4
		c-0.2-0.2-0.4-0.4-0.5-0.7c-0.1-0.3-0.3-0.5-0.3-0.8c-0.1-0.3-0.2-0.6-0.2-0.9c0-0.3-0.1-0.6-0.1-0.9v-2.9h2.8V10753.9z
		 M7082.7,10751v2.9h-1.5c0,0.3,0,0.5,0.1,0.8c0,0.3,0.1,0.5,0.2,0.8c0.1,0.2,0.2,0.5,0.4,0.6c0.2,0.2,0.5,0.3,0.7,0.3v1.3
		c-0.5,0-0.9-0.1-1.3-0.3c-0.3-0.2-0.6-0.5-0.8-0.9c-0.2-0.4-0.4-0.8-0.4-1.2c-0.1-0.4-0.1-0.9-0.1-1.3v-2.9H7082.7z"/>
</g>
</svg>
