<?xml version="1.0" encoding="UTF-8"?>
<svg version="1.1" xmlns="http://www.w3.org/2000/svg" width="512" height="512">
<path d="M0 0 C168.96 0 337.92 0 512 0 C512 168.96 512 337.92 512 512 C343.04 512 174.08 512 0 512 C0 343.04 0 174.08 0 0 Z " fill="#FEFEFE" transform="translate(0,0)"/>
<path d="M0 0 C15.69635488 12.78791265 15.69635488 12.78791265 19 22 C19.49177734 21.74307373 19.98355469 21.48614746 20.49023438 21.22143555 C40.13236158 11.09260881 59.57977973 6.29878905 81.41162109 12.66699219 C93.3705242 16.508981 103.17154552 23.06369354 112 32 C113.06154297 33.02867187 113.06154297 33.02867187 114.14453125 34.078125 C126.83319971 47.17923584 131.25798778 64.28483916 131 82 C132.03125 81.9175 133.0625 81.835 134.125 81.75 C147.46984621 81.8207324 160.28543561 88.30080719 169.875 97.25 C174.32770831 102.00062912 177.28359916 107.11308877 180 113 C180.41378906 113.80566406 180.82757813 114.61132812 181.25390625 115.44140625 C186.43007721 126.9660517 185.59618483 142.43686064 181.3203125 154.11328125 C175.16326942 167.57498196 165.40724154 178.30831195 151.578125 183.99609375 C141.36469757 187.577648 131.0848209 187.2854516 120.39550781 187.35009766 C118.37813845 187.3667297 116.36082972 187.39411371 114.34375 187.43212891 C111.42417083 187.48677598 108.50595841 187.50874252 105.5859375 187.5234375 C104.68483246 187.54610687 103.78372742 187.56877625 102.85531616 187.59213257 C96.63499972 187.57105836 96.63499972 187.57105836 93.40087891 184.66259766 C92 182 92 182 92 178.875 C93.20544632 175.40934182 93.78497613 174.72084012 97 173 C100.07417556 172.55838299 103.12509421 172.58293834 106.2265625 172.59375 C107.12941986 172.58291382 108.03227722 172.57207764 108.9624939 172.56091309 C111.85006822 172.52666655 114.73724947 172.51107525 117.625 172.5 C121.40922641 172.48532504 125.19258994 172.45137868 128.9765625 172.40625 C129.83110016 172.40927124 130.68563782 172.41229248 131.56607056 172.41540527 C142.17984337 172.28567119 151.05811079 169.11571953 159 162 C165.97878356 153.94553928 169.58537495 145.83449648 169.4375 135.1875 C169.42775146 134.39923828 169.41800293 133.61097656 169.40795898 132.79882812 C169.08273813 122.04779823 165.88276908 114.91711975 158.359375 107.16015625 C155.11951934 104.19386457 151.95801194 101.90139789 148 100 C147.38382812 99.69449219 146.76765625 99.38898438 146.1328125 99.07421875 C140.06527975 96.58346114 133.77152321 96.5775056 127.29541016 96.55371094 C123.85785864 96.47874189 121.54885789 96.29448829 118.48828125 94.65234375 C116.05915414 90.32326945 116.49613427 85.87584525 116.5 81 C116.14813876 65.5504193 112.13644738 52.37417945 101.375 40.75 C88.24151192 28.62678023 73.11866125 23.96891752 55.56640625 24.61328125 C43.93588024 25.37898774 33.80277979 30.10331337 24.8125 37.3125 C22.26840016 39.2559096 21.00586674 39.99861959 17.8125 40.75 C13.80049455 39.68013188 12.15824487 37.35060855 10 34 C9.07866802 32.39850824 8.16234455 30.79412873 7.25 29.1875 C-1.2776245 14.64680695 -17.59090921 3.8324577 -33.6875 -0.4375 C-53.35063423 -5.10582882 -72.83464822 -1.42697239 -90 9 C-100.40603759 16.20521007 -107.61217373 24.795095 -113.3125 36 C-113.63822998 36.6401001 -113.96395996 37.2802002 -114.29956055 37.93969727 C-119.06877444 47.77209221 -120.44774427 56.461988 -120.25 67.375 C-120.24226563 69.11716797 -120.24226563 69.11716797 -120.234375 70.89453125 C-120.21549796 77.52308676 -120.21549796 77.52308676 -119 84 C-118.796875 86 -118.796875 86 -118.75 88 C-118.72421875 88.66 -118.6984375 89.32 -118.671875 90 C-119.11854046 92.72253231 -120.12682278 93.98954075 -122 96 C-124.16967773 96.46655273 -124.16967773 96.46655273 -126.68359375 96.43359375 C-128.06671753 96.44253662 -128.06671753 96.44253662 -129.4777832 96.45166016 C-130.45448975 96.4469873 -131.43119629 96.44231445 -132.4375 96.4375 C-145.24018822 96.70899367 -155.78535844 99.56639666 -165 109 C-172.96932271 119.64290194 -174.40786602 131.07821328 -173 144 C-170.47879771 154.25363966 -164.86308272 161.78009498 -156 167.375 C-147.44458949 172.41256079 -139.39324049 172.28136587 -129.69873047 172.23950195 C-128.24770001 172.240616 -126.79667002 172.24267563 -125.34564209 172.24560547 C-122.23164221 172.25031293 -119.11771784 172.24922317 -116.00371933 172.24382973 C-111.07860659 172.23620109 -106.15363839 172.24689547 -101.22854614 172.2610321 C-87.22739054 172.29872178 -73.22630176 172.31694425 -59.22509766 172.30541992 C-51.48417689 172.29920553 -43.74349056 172.3107693 -36.00262749 172.34186524 C-31.10731706 172.36052207 -26.2126706 172.35720033 -21.31737113 172.33769763 C-18.27307065 172.33081761 -15.22913072 172.34476832 -12.18489838 172.36464691 C-10.7743966 172.36969498 -9.36383428 172.36620702 -7.95338058 172.35351372 C4.03582374 172.25329054 4.03582374 172.25329054 7.37765503 175.34391785 C9 178 9 178 9 181.125 C7.96603297 184.0976552 7.47755411 185.15581224 5 187 C2.35579872 187.37752342 2.35579872 187.37752342 -0.89193726 187.38095093 C-2.73788483 187.39364014 -2.73788483 187.39364014 -4.62112427 187.40658569 C-5.98748911 187.40075227 -7.35385265 187.39460773 -8.72021484 187.38818359 C-10.15767821 187.39224847 -11.59513846 187.39758989 -13.03259277 187.40411377 C-16.9423318 187.41781554 -20.85183384 187.41247379 -24.76157713 187.40297651 C-28.86080278 187.39538007 -32.96000816 187.40242684 -37.05923462 187.40713501 C-43.954403 187.41259878 -50.84947514 187.40539116 -57.74462891 187.39111328 C-65.68964877 187.37485021 -73.6344369 187.38002632 -81.57945096 187.3965925 C-88.41364838 187.41026727 -95.24777651 187.41209598 -102.08198321 187.40427649 C-106.15743012 187.39962437 -110.23276873 187.39890536 -114.30820847 187.40888596 C-118.15126951 187.41763849 -121.99403688 187.41138484 -125.83706665 187.39420319 C-127.23775371 187.39027929 -128.63846603 187.39130086 -130.03914261 187.39799118 C-147.07509685 187.47177279 -160.79398867 184.14792332 -173.375 172.1875 C-184.38676861 160.46984879 -188.67357858 147.37695233 -188.54077148 131.45800781 C-187.99877586 116.85878038 -181.44356404 104.56017676 -170.86328125 94.58984375 C-161.75337816 86.81682371 -150.33096369 81.75625427 -138.1875 81.9375 C-137.39730469 81.94652344 -136.60710937 81.95554687 -135.79296875 81.96484375 C-135.20128906 81.97644531 -134.60960937 81.98804688 -134 82 C-134.16081055 81.44763672 -134.32162109 80.89527344 -134.48730469 80.32617188 C-137.06321039 68.6389197 -136.21273077 53.13846016 -132 42 C-131.63648438 41.01386719 -131.27296875 40.02773437 -130.8984375 39.01171875 C-127.12752592 29.43846904 -122.44840469 20.06050586 -116 12 C-115.34 12 -114.68 12 -114 12 C-113.7834375 11.44054687 -113.566875 10.88109375 -113.34375 10.3046875 C-105.39104879 -3.33511981 -84.78835893 -11.38784612 -70.5 -15.3125 C-46.18673084 -21.37094629 -19.95402683 -14.72511016 0 0 Z " fill="#39CBE7" transform="translate(258,154)"/>
<path d="M0 0 C2.98330179 0.91295021 4.63461104 1.48864878 6.4765625 4.06640625 C11.96941227 16.00494707 14.19198349 25.81713337 14 39 C15.03125 38.9175 16.0625 38.835 17.125 38.75 C30.46984621 38.8207324 43.28543561 45.30080719 52.875 54.25 C57.32770831 59.00062912 60.28359916 64.11308877 63 70 C63.41378906 70.80566406 63.82757813 71.61132812 64.25390625 72.44140625 C69.43007721 83.9660517 68.59618483 99.43686064 64.3203125 111.11328125 C58.16326942 124.57498196 48.40724154 135.30831195 34.578125 140.99609375 C24.36469757 144.577648 14.0848209 144.2854516 3.39550781 144.35009766 C1.37813845 144.3667297 -0.63917028 144.39411371 -2.65625 144.43212891 C-5.57582917 144.48677598 -8.49404159 144.50874252 -11.4140625 144.5234375 C-12.31516754 144.54610687 -13.21627258 144.56877625 -14.14468384 144.59213257 C-20.36500028 144.57105836 -20.36500028 144.57105836 -23.59912109 141.66259766 C-25 139 -25 139 -25 135.875 C-23.79455368 132.40934182 -23.21502387 131.72084012 -20 130 C-16.92582444 129.55838299 -13.87490579 129.58293834 -10.7734375 129.59375 C-9.87058014 129.58291382 -8.96772278 129.57207764 -8.0375061 129.56091309 C-5.14993178 129.52666655 -2.26275053 129.51107525 0.625 129.5 C4.40922641 129.48532504 8.19258994 129.45137868 11.9765625 129.40625 C12.83110016 129.40927124 13.68563782 129.41229248 14.56607056 129.41540527 C25.17984337 129.28567119 34.05811079 126.11571953 42 119 C48.97878356 110.94553928 52.58537495 102.83449648 52.4375 92.1875 C52.4228772 91.00510742 52.4228772 91.00510742 52.40795898 89.79882812 C52.08272919 79.04750274 48.87956728 71.93144891 41.37109375 64.1640625 C36.43998671 59.6635134 31.46568925 56.77806454 25 55 C25 54.34 25 53.68 25 53 C24.40985107 52.9906543 23.81970215 52.98130859 23.21166992 52.97167969 C20.53609795 52.91797343 17.86227447 52.83433148 15.1875 52.75 C14.25873047 52.73582031 13.32996094 52.72164062 12.37304688 52.70703125 C11.48037109 52.67480469 10.58769531 52.64257812 9.66796875 52.609375 C8.84578857 52.58842773 8.0236084 52.56748047 7.17651367 52.54589844 C5 52 5 52 3.26098633 50.40136719 C1.58747679 47.21440884 1.41657787 44.55610504 1.15625 40.96875 C1.10102173 40.29581909 1.04579346 39.62288818 0.9888916 38.92956543 C0.754067 36.06330926 0.55012587 33.19504747 0.34326172 30.32666016 C0.18741112 28.22720483 0.01594919 26.12941742 -0.15625 24.03125 C-0.24712891 22.77892578 -0.33800781 21.52660156 -0.43164062 20.23632812 C-1.01936474 16.88973409 -1.78115749 15.49219926 -4 13 C-5.35801295 9.41978404 -5.07281411 5.78633376 -5 2 C-4.67 2.66 -4.34 3.32 -4 4 C-3.01 4 -2.02 4 -1 4 C-0.67 2.68 -0.34 1.36 0 0 Z " fill="#276EED" transform="translate(375,197)"/>
<path d="M0 0 C9.29307465 0.40404672 16.19019438 6.14039982 23 12 C24.2065625 12.6496875 24.2065625 12.6496875 25.4375 13.3125 C30.90563817 16.91346904 34.82322255 21.8449741 37 28 C37.49177734 27.74307373 37.98355469 27.48614746 38.49023438 27.22143555 C58.13236158 17.09260881 77.57977973 12.29878905 99.41162109 18.66699219 C115.12209995 23.71423469 127.97701609 33.96750395 138 47 C138.33 47.99 138.66 48.98 139 50 C138.01 50.495 138.01 50.495 137 51 C137 50.34 137 49.68 137 49 C136.01 49.495 136.01 49.495 135 50 C134.67 50.99 134.34 51.98 134 53 C133.01 53 132.02 53 131 53 C131.46810371 60.07937034 131.46810371 60.07937034 135 66 C135.27637295 68.24064218 135.49250098 70.48876064 135.68359375 72.73828125 C135.80775004 74.1295745 135.93210534 75.52085 136.05664062 76.91210938 C136.24821534 79.11068069 136.4372405 81.30941655 136.62231445 83.50854492 C136.80236978 85.62747417 136.99241007 87.7453312 137.18359375 89.86328125 C137.29243896 91.13469971 137.40128418 92.40611816 137.51342773 93.71606445 C137.86180252 97.24242205 137.86180252 97.24242205 140 101 C146.6 101 153.2 101 160 101 C160.33 101.66 160.66 102.32 161 103 C157.41548691 102.94810241 153.83337949 102.85302216 150.25 102.75 C148.72632813 102.72873047 148.72632813 102.72873047 147.171875 102.70703125 C139.92086694 102.46851125 139.92086694 102.46851125 136.328125 100.640625 C134.13214241 96.27449491 134.49618354 91.8137063 134.5 87 C134.14813876 71.5504193 130.13644738 58.37417945 119.375 46.75 C106.24151192 34.62678023 91.11866125 29.96891752 73.56640625 30.61328125 C61.93588024 31.37898774 51.80277979 36.10331337 42.8125 43.3125 C40.26840016 45.2559096 39.00586674 45.99861959 35.8125 46.75 C31.80049455 45.68013188 30.15824487 43.35060855 28 40 C27.07866802 38.39850824 26.16234455 36.79412873 25.25 35.1875 C19.8188262 25.92665236 11.43540194 18.80273751 2.25 13.375 C-0.26350729 11.83896777 -2.10074295 10.25097132 -4 8 C-4 7.01 -4 6.02 -4 5 C-2.68 5 -1.36 5 0 5 C0 3.35 0 1.7 0 0 Z " fill="#30A7EA" transform="translate(240,148)"/>
<path d="M0 0 C0.96421875 0.49371094 1.9284375 0.98742187 2.921875 1.49609375 C4.19780852 2.14344237 5.47385621 2.79056599 6.75 3.4375 C7.38421875 3.76298828 8.0184375 4.08847656 8.671875 4.42382812 C14.1367446 7.18472579 17.96682152 8.12480709 24.06602478 8.12457275 C25.93137627 8.12841728 25.93137627 8.12841728 27.83441162 8.13233948 C29.20983895 8.13026966 30.58526619 8.12814692 31.96069336 8.12597656 C33.41128087 8.12737175 34.86186797 8.12927134 36.31245422 8.13163757 C39.43466964 8.13613086 42.55687193 8.13799057 45.6790905 8.13809967 C50.61654361 8.13924062 55.55392206 8.1520827 60.49134827 8.16766357 C61.32484533 8.17023643 62.15834239 8.17280928 63.01709694 8.1754601 C64.7213129 8.18072647 66.4255288 8.18601196 68.12974465 8.19131613 C79.62321067 8.22642501 91.1165833 8.25297554 102.61010742 8.25048828 C110.3653044 8.24890024 118.12024632 8.2649201 125.8753615 8.30119491 C129.97857682 8.31966199 134.08136623 8.32899128 138.18461418 8.31671906 C142.04343818 8.30528915 145.90149905 8.3169689 149.76022148 8.34635353 C151.1755485 8.35299782 152.5909453 8.35112076 154.00624466 8.34005547 C166.0382118 8.2537955 166.0382118 8.2537955 169.38063049 11.34490967 C171 14 171 14 171 17.125 C169.96603297 20.0976552 169.47755411 21.15581224 167 23 C164.35579872 23.37752342 164.35579872 23.37752342 161.10806274 23.38095093 C159.26211517 23.39364014 159.26211517 23.39364014 157.37887573 23.40658569 C156.01251089 23.40075227 154.64614735 23.39460773 153.27978516 23.38818359 C151.84232179 23.39224847 150.40486154 23.39758989 148.96740723 23.40411377 C145.0576682 23.41781554 141.14816616 23.41247379 137.23842287 23.40297651 C133.13919722 23.39538007 129.03999184 23.40242684 124.94076538 23.40713501 C118.045597 23.41259878 111.15052486 23.40539116 104.25537109 23.39111328 C96.31035123 23.37485021 88.3655631 23.38002632 80.42054904 23.3965925 C73.58635162 23.41026727 66.75222349 23.41209598 59.91801679 23.40427649 C55.84256988 23.39962437 51.76723127 23.39890536 47.69179153 23.40888596 C43.84873049 23.41763849 40.00596312 23.41138484 36.16293335 23.39420319 C34.76224629 23.39027929 33.36153397 23.39130086 31.96085739 23.39799118 C15.44202721 23.46953316 1.48821468 20.42899924 -10.75 8.75 C-14 5.44715447 -14 5.44715447 -14 2 C-13.01 2 -12.02 2 -11 2 C-10.814375 2.70125 -10.62875 3.4025 -10.4375 4.125 C-8.44111906 8.11776187 -5.77193927 10.63122214 -2 13 C0.44727863 13.73038936 2.42185475 13.89476958 5 14 C5 14.66 5 15.32 5 16 C6.65 16.66 8.3 17.32 10 18 C10 18.66 10 19.32 10 20 C11.26457031 20.09087891 11.26457031 20.09087891 12.5546875 20.18359375 C14.19824219 20.30927734 14.19824219 20.30927734 15.875 20.4375 C17.51082031 20.55931641 17.51082031 20.55931641 19.1796875 20.68359375 C22 21 22 21 24 22 C24 21.34 24 20.68 24 20 C22.329375 20.0928125 22.329375 20.0928125 20.625 20.1875 C19.42875 20.125625 18.2325 20.06375 17 20 C16.34 19.01 15.68 18.02 15 17 C15.33 16.01 15.66 15.02 16 14 C16.03874921 12.33378384 16.0450286 10.66605828 16 9 C14.7315625 8.8453125 14.7315625 8.8453125 13.4375 8.6875 C8.45479804 7.69095961 3.14946982 6.2610474 0 2 C0 1.34 0 0.68 0 0 Z " fill="#2FA0EB" transform="translate(96,318)"/>
<path d="M0 0 C9.29307465 0.40404672 16.19019438 6.14039982 23 12 C24.2065625 12.6496875 24.2065625 12.6496875 25.4375 13.3125 C30.90563817 16.91346904 34.82322255 21.8449741 37 28 C37.49177734 27.74307373 37.98355469 27.48614746 38.49023438 27.22143555 C55.40764872 18.49765747 73.74141299 12.28707114 93 17 C94.485 17.495 94.485 17.495 96 18 C96 18.33 96 18.66 96 19 C87.42 19 78.84 19 70 19 C69.505 20.485 69.505 20.485 69 22 C67.35 22 65.7 22 64 22 C64 21.34 64 20.68 64 20 C61.03 20.33 58.06 20.66 55 21 C55.66 22.98 56.32 24.96 57 27 C56.01 27.66 55.02 28.32 54 29 C66.54 29 79.08 29 92 29 C92 29.66 92 30.32 92 31 C91.0570105 30.9685791 91.0570105 30.9685791 90.0949707 30.93652344 C71.9156575 30.41108093 57.47965205 31.55110449 42.8125 43.3125 C40.26840016 45.2559096 39.00586674 45.99861959 35.8125 46.75 C31.80049455 45.68013188 30.15824487 43.35060855 28 40 C27.07866802 38.39850824 26.16234455 36.79412873 25.25 35.1875 C19.8188262 25.92665236 11.43540194 18.80273751 2.25 13.375 C-0.26350729 11.83896777 -2.10074295 10.25097132 -4 8 C-4 7.01 -4 6.02 -4 5 C-2.68 5 -1.36 5 0 5 C0 3.35 0 1.7 0 0 Z " fill="#33AEE9" transform="translate(240,148)"/>
<path d="M0 0 C2.98330179 0.91295021 4.63461104 1.48864878 6.4765625 4.06640625 C11.96941227 16.00494707 14.19198349 25.81713337 14 39 C15.051875 38.9175 16.10375 38.835 17.1875 38.75 C23.28475852 38.75 29.5118238 40.38888533 35 43 C35.87890625 45.140625 35.87890625 45.140625 36 47 C37.8871875 47.433125 37.8871875 47.433125 39.8125 47.875 C42.8539399 48.57303539 44.30669878 49.20446585 47 51 C47 52.32 47 53.64 47 55 C46.01 55.495 46.01 55.495 45 56 C44.27840576 57.64363134 43.60648579 59.31050386 43 61 C42.01 61 41.02 61 40 61 C40.33 59.02 40.66 57.04 41 55 C40.01 55.66 39.02 56.32 38 57 C35.25 56.6875 35.25 56.6875 32 56 C29.66742506 55.66140041 27.33425788 55.3267961 25 55 C25 54.34 25 53.68 25 53 C24.40985107 52.9906543 23.81970215 52.98130859 23.21166992 52.97167969 C20.53609795 52.91797343 17.86227447 52.83433148 15.1875 52.75 C14.25873047 52.73582031 13.32996094 52.72164062 12.37304688 52.70703125 C11.48037109 52.67480469 10.58769531 52.64257812 9.66796875 52.609375 C8.84578857 52.58842773 8.0236084 52.56748047 7.17651367 52.54589844 C5 52 5 52 3.26098633 50.40136719 C1.58747679 47.21440884 1.41657787 44.55610504 1.15625 40.96875 C1.10102173 40.29581909 1.04579346 39.62288818 0.9888916 38.92956543 C0.754067 36.06330926 0.55012587 33.19504747 0.34326172 30.32666016 C0.18741112 28.22720483 0.01594919 26.12941742 -0.15625 24.03125 C-0.24712891 22.77892578 -0.33800781 21.52660156 -0.43164062 20.23632812 C-1.01936474 16.88973409 -1.78115749 15.49219926 -4 13 C-5.35801295 9.41978404 -5.07281411 5.78633376 -5 2 C-4.67 2.66 -4.34 3.32 -4 4 C-3.01 4 -2.02 4 -1 4 C-0.67 2.68 -0.34 1.36 0 0 Z " fill="#2A86ED" transform="translate(375,197)"/>
<path d="M0 0 C3 3.75 3 3.75 3 6 C3.66 6 4.32 6 5 6 C4.51483739 9.80044045 3.90491512 13.43628356 2.95703125 17.1484375 C1.85293807 22.07497395 1.80069545 26.66488035 2.0625 31.6875 C2.07732422 32.50283203 2.09214844 33.31816406 2.10742188 34.15820312 C2.39435971 40.1741709 3.77738192 42.72813856 8 47 C9.28130566 48.55392388 10.55332548 50.11558933 11.8125 51.6875 C12.41707031 52.43386719 13.02164063 53.18023437 13.64453125 53.94921875 C15 56 15 56 15 59 C16.485 59.495 16.485 59.495 18 60 C18 60.66 18 61.32 18 62 C19.41601714 62.48108275 20.83284437 62.95978141 22.25 63.4375 C23.03890625 63.70433594 23.8278125 63.97117187 24.640625 64.24609375 C26.74821988 64.91954708 28.84753973 65.49150595 31 66 C32.125 71.625 32.125 71.625 31 75 C32.96822886 76.96822886 36.34808709 76.66248381 39 77 C39 77.66 39 78.32 39 79 C36.72735496 78.74481529 34.45687295 78.47030939 32.1875 78.1875 C30.29064453 77.96126953 30.29064453 77.96126953 28.35546875 77.73046875 C24.99687757 76.99932026 24.05378665 76.59964356 22 74 C21.34 73.67 20.68 73.34 20 73 C20 72.34 20 71.68 20 71 C19.030625 71.165 18.06125 71.33 17.0625 71.5 C12.07475965 71.54088312 9.24489276 68.31593003 5.72265625 65.140625 C4 63 4 63 4 59 C3.01 59 2.02 59 1 59 C0.67 59.66 0.34 60.32 0 61 C-0.82328299 59.94583321 -1.63314321 58.881178 -2.4375 57.8125 C-2.88996094 57.22082031 -3.34242187 56.62914062 -3.80859375 56.01953125 C-5.20266754 53.65646191 -5.52413911 51.69654503 -6 49 C-6.6851365 46.89506257 -7.37287757 44.79097201 -8.0625 42.6875 C-11.03347028 32.37584767 -12.09447612 20.79706945 -7 11 C-6.34 10.34 -5.68 9.68 -5 9 C-5.33 8.34 -5.66 7.68 -6 7 C-5.0625 4.875 -5.0625 4.875 -4 3 C-3.34 3 -2.68 3 -2 3 C-2 2.34 -2 1.68 -2 1 C-1.34 0.67 -0.68 0.34 0 0 Z " fill="#35C4E8" transform="translate(81,261)"/>
<path d="M0 0 C0.96421875 0.49371094 1.9284375 0.98742187 2.921875 1.49609375 C4.19780852 2.14344237 5.47385621 2.79056599 6.75 3.4375 C7.38421875 3.76298828 8.0184375 4.08847656 8.671875 4.42382812 C14.1367446 7.18472579 17.96682152 8.12480709 24.06602478 8.12457275 C25.93137627 8.12841728 25.93137627 8.12841728 27.83441162 8.13233948 C29.20983895 8.13026966 30.58526619 8.12814692 31.96069336 8.12597656 C33.41128087 8.12737175 34.86186797 8.12927134 36.31245422 8.13163757 C39.43466964 8.13613086 42.55687193 8.13799057 45.6790905 8.13809967 C50.61654361 8.13924062 55.55392206 8.1520827 60.49134827 8.16766357 C61.32484533 8.17023643 62.15834239 8.17280928 63.01709694 8.1754601 C64.7213129 8.18072647 66.4255288 8.18601196 68.12974465 8.19131613 C79.62321067 8.22642501 91.1165833 8.25297554 102.61010742 8.25048828 C110.3653044 8.24890024 118.12024632 8.2649201 125.8753615 8.30119491 C129.97857682 8.31966199 134.08136623 8.32899128 138.18461418 8.31671906 C142.04343818 8.30528915 145.90149905 8.3169689 149.76022148 8.34635353 C151.1755485 8.35299782 152.5909453 8.35112076 154.00624466 8.34005547 C166.0382118 8.2537955 166.0382118 8.2537955 169.38063049 11.34490967 C171 14 171 14 171 17.125 C169.96603297 20.0976552 169.47755411 21.15581224 167 23 C164.35579872 23.37752342 164.35579872 23.37752342 161.10806274 23.38095093 C159.26211517 23.39364014 159.26211517 23.39364014 157.37887573 23.40658569 C156.01251089 23.40075227 154.64614735 23.39460773 153.27978516 23.38818359 C151.84232179 23.39224847 150.40486154 23.39758989 148.96740723 23.40411377 C145.0576682 23.41781554 141.14816616 23.41247379 137.23842287 23.40297651 C133.13919722 23.39538007 129.03999184 23.40242684 124.94076538 23.40713501 C118.045597 23.41259878 111.15052486 23.40539116 104.25537109 23.39111328 C96.31035123 23.37485021 88.3655631 23.38002632 80.42054904 23.3965925 C73.58635162 23.41026727 66.75222349 23.41209598 59.91801679 23.40427649 C55.84256988 23.39962437 51.76723127 23.39890536 47.69179153 23.40888596 C43.84873049 23.41763849 40.00596312 23.41138484 36.16293335 23.39420319 C34.76224629 23.39027929 33.36153397 23.39130086 31.96085739 23.39799118 C15.44202721 23.46953316 1.48821468 20.42899924 -10.75 8.75 C-14 5.44715447 -14 5.44715447 -14 2 C-13.01 2 -12.02 2 -11 2 C-10.814375 2.70125 -10.62875 3.4025 -10.4375 4.125 C-8.44111906 8.11776187 -5.77193927 10.63122214 -2 13 C0.44727863 13.73038936 2.42185475 13.89476958 5 14 C5 14.66 5 15.32 5 16 C6.65 16.66 8.3 17.32 10 18 C10 18.66 10 19.32 10 20 C18.65337636 20.86768643 27.20996448 21.14364698 35.90332031 21.12939453 C37.25169929 21.13075341 38.60007789 21.13253606 39.94845581 21.13470459 C43.57214317 21.13921931 47.19580169 21.13751465 50.81948948 21.1343255 C54.63004693 21.13177291 58.44060211 21.13414726 62.25115967 21.13571167 C68.64270465 21.13752407 75.03423803 21.1351506 81.42578125 21.13037109 C88.79900516 21.12492093 96.17220145 21.12670035 103.5454247 21.1321975 C109.89988161 21.13674404 116.25433024 21.13737191 122.60878825 21.13475883 C126.39383188 21.13320573 130.17886255 21.13297585 133.96390533 21.13629532 C137.51970329 21.1391968 141.07546577 21.1371567 144.63125992 21.13140106 C146.54759931 21.12946198 148.46394171 21.13240727 150.38027954 21.13552856 C156.34994524 21.12095177 162.09841803 20.9177063 168 20 C167.67 17.36 167.34 14.72 167 12 C92.255 11.505 92.255 11.505 16 11 C16 10.34 16 9.68 16 9 C14.7315625 8.8453125 14.7315625 8.8453125 13.4375 8.6875 C8.45479804 7.69095961 3.14946982 6.2610474 0 2 C0 1.34 0 0.68 0 0 Z " fill="#57A8DA" transform="translate(96,318)"/>
<path d="M0 0 C0.061875 0.61875 0.12375 1.2375 0.1875 1.875 C0.828919 4.27761141 0.828919 4.27761141 3.5625 5.25 C4.366875 5.4975 5.17125 5.745 6 6 C6 6.66 6 7.32 6 8 C5.34 8 4.68 8 4 8 C4 8.66 4 9.32 4 10 C3.37351562 10.02578125 2.74703125 10.0515625 2.1015625 10.078125 C1.28429687 10.13484375 0.46703125 10.1915625 -0.375 10.25 C-1.18710937 10.29640625 -1.99921875 10.3428125 -2.8359375 10.390625 C-3.55007813 10.59171875 -4.26421875 10.7928125 -5 11 C-5.6915065 12.32062144 -6.35848557 13.65438436 -7 15 C-9.84708386 15.99031658 -12.49750566 16.1221336 -15.49316406 16.11352539 C-16.81408051 16.11341209 -16.81408051 16.11341209 -18.16168213 16.11329651 C-19.10348328 16.10813522 -20.04528442 16.10297394 -21.015625 16.09765625 C-22.47207428 16.09553383 -22.47207428 16.09553383 -23.95794678 16.09336853 C-27.05532935 16.08777663 -30.15263932 16.07522559 -33.25 16.0625 C-35.35156146 16.05748395 -37.45312404 16.05292123 -39.5546875 16.04882812 C-44.70315292 16.03780985 -49.85156416 16.02055074 -55 16 C-54.67 14.02 -54.34 12.04 -54 10 C-54.639375 9.71125 -55.27875 9.4225 -55.9375 9.125 C-58 8 -58 8 -59 6 C-57.32997925 5.970271 -57.32997925 5.970271 -55.6262207 5.93994141 C-51.43444907 5.86297994 -47.24298444 5.77441495 -43.05151367 5.68261719 C-41.24884164 5.64469664 -39.4461034 5.60978477 -37.64331055 5.578125 C-25.11900124 5.35553244 -11.15656726 0 0 0 Z " fill="#2670EE" transform="translate(413,323)"/>
<path d="M0 0 C11.22193133 4.06108354 21.79438942 14.36244794 27 25 C26.01 25.495 26.01 25.495 25 26 C25 25.34 25 24.68 25 24 C24.01 24.495 24.01 24.495 23 25 C22.67 25.99 22.34 26.98 22 28 C21.01 28 20.02 28 19 28 C19.46810371 35.07937034 19.46810371 35.07937034 23 41 C23.27637295 43.24064218 23.49250098 45.48876064 23.68359375 47.73828125 C23.80775004 49.1295745 23.93210534 50.52085 24.05664062 51.91210938 C24.24821534 54.11068069 24.4372405 56.30941655 24.62231445 58.50854492 C24.80236978 60.62747417 24.99241007 62.7453312 25.18359375 64.86328125 C25.29243896 66.13469971 25.40128418 67.40611816 25.51342773 68.71606445 C25.86180252 72.24242205 25.86180252 72.24242205 28 76 C34.6 76 41.2 76 48 76 C48.33 76.66 48.66 77.32 49 78 C45.41548691 77.94810241 41.83337949 77.85302216 38.25 77.75 C37.23421875 77.73582031 36.2184375 77.72164063 35.171875 77.70703125 C27.92086694 77.46851125 27.92086694 77.46851125 24.328125 75.640625 C22.13214241 71.27449491 22.49618354 66.8137063 22.5 62 C22.1473778 46.51700683 18.13326526 33.26212023 7.25 21.6875 C2.67130933 17.38821761 -2.60493105 14.17356997 -8 11 C-6.68 10.67 -5.36 10.34 -4 10 C-4 10.66 -4 11.32 -4 12 C-1.03 12.495 -1.03 12.495 2 13 C1.34 12.01 0.68 11.02 0 10 C0.33 9.34 0.66 8.68 1 8 C3.4375 8.375 3.4375 8.375 6 9 C6.33 9.66 6.66 10.32 7 11 C8.64363134 11.72159424 10.31050386 12.39351421 12 13 C11.21869929 10.50447516 11.21869929 10.50447516 10 8 C9.01 7.67 8.02 7.34 7 7 C6 6 5 5 4 4 C1.90010348 2.82425289 1.90010348 2.82425289 0 2 C0 1.34 0 0.68 0 0 Z " fill="#2F98EC" transform="translate(352,173)"/>
<path d="M0 0 C0.66 0.33 1.32 0.66 2 1 C1.4946875 1.39832031 0.989375 1.79664063 0.46875 2.20703125 C-0.1809375 2.73683594 -0.830625 3.26664063 -1.5 3.8125 C-2.1496875 4.33457031 -2.799375 4.85664063 -3.46875 5.39453125 C-5.34509128 6.99204833 -5.34509128 6.99204833 -5 10 C-4.38125 9.34 -3.7625 8.68 -3.125 8 C-1 6 -1 6 1 6 C1.33 8.31 1.66 10.62 2 13 C2.66 13 3.32 13 4 13 C4 11.02 4 9.04 4 7 C4.99 7 5.98 7 7 7 C7 7.66 7 8.32 7 9 C8.65 9 10.3 9 12 9 C10.948125 9.8353125 10.948125 9.8353125 9.875 10.6875 C8.92625 11.450625 7.9775 12.21375 7 13 C6.030625 13.70125 5.06125 14.4025 4.0625 15.125 C-1.92431231 20.13721496 -5.31275735 27.52457771 -7 35 C-7.26317767 37.98589538 -7.2803375 40.94167189 -7.25 43.9375 C-7.25773437 44.69740234 -7.26546875 45.45730469 -7.2734375 46.24023438 C-7.25558426 51.46676955 -6.44036761 55.9758606 -5 61 C-7.32077032 59.2990338 -8.79327077 57.89132612 -9.45605469 55.03369141 C-9.69423641 52.62223153 -9.80745652 50.23468409 -9.875 47.8125 C-9.94460937 46.59336914 -9.94460937 46.59336914 -10.015625 45.34960938 C-10.25309401 39.60925268 -9.51009359 34.52988256 -8 29 C-7.71527832 27.95730957 -7.71527832 27.95730957 -7.42480469 26.89355469 C-6.96508988 25.25801514 -6.48500173 23.62822008 -6 22 C-6.66 22 -7.32 22 -8 22 C-9.5 19.5 -9.5 19.5 -11 17 C-11.66 17 -12.32 17 -13 17 C-13 17.66 -13 18.32 -13 19 C-13.66 19.33 -14.32 19.66 -15 20 C-15 21.32 -15 22.64 -15 24 C-15.83984375 25.78125 -15.83984375 25.78125 -16.9375 27.5 C-21.51974183 34.72647457 -21.18457515 44.83525527 -19.60302734 53.06591797 C-18.83027868 56.16070433 -17.87818048 59.18007347 -16.875 62.20703125 C-16 65 -16 65 -16 68 C-22.09001058 61.90998942 -22.46750089 51.2339679 -22.5625 43.0625 C-22.43015096 27.89216865 -16.8297823 15.8699451 -6.25 5 C-4.21705515 3.0240536 -2.38791772 1.59194515 0 0 Z " fill="#45C8E3" transform="translate(92,245)"/>
<path d="M0 0 C12.05375637 5.10361174 20.06918695 13.00708791 27 24 C26.67 24.66 26.34 25.32 26 26 C25.38125 25.67 24.7625 25.34 24.125 25 C22.08981656 23.85806765 22.08981656 23.85806765 20 24 C19.34 25.32 18.68 26.64 18 28 C17.34 28 16.68 28 16 28 C16.28875 28.66902344 16.5775 29.33804687 16.875 30.02734375 C21.16492008 41.12453284 21.9751958 53.75417496 17.93359375 65.10546875 C16.70456796 67.5995169 15.21033863 69.32319138 13 71 C13 67.76493049 13.5714305 66.74999621 15 63.9375 C18.71430993 54.89050224 18.42882098 43.28582326 15.5625 34 C11.63922028 24.98893351 4.48817859 18.60896575 -4 14 C-4.99 13.34 -5.98 12.68 -7 12 C-6.31292969 12.08378906 -5.62585938 12.16757813 -4.91796875 12.25390625 C-4.01691406 12.35574219 -3.11585938 12.45757812 -2.1875 12.5625 C-1.29417969 12.66691406 -0.40085937 12.77132812 0.51953125 12.87890625 C3.13375572 13.15658709 3.13375572 13.15658709 6 12 C5.67 13.98 5.34 15.96 5 18 C5.99 18 6.98 18 8 18 C8.66 16.02 9.32 14.04 10 12 C10.66 12 11.32 12 12 12 C12 10.68 12 9.36 12 8 C11.38511719 7.81824219 10.77023437 7.63648438 10.13671875 7.44921875 C9.32847656 7.19785156 8.52023437 6.94648438 7.6875 6.6875 C6.88699219 6.44386719 6.08648437 6.20023438 5.26171875 5.94921875 C2.87242107 4.94645651 1.60410493 4.01940718 0 2 C0 1.34 0 0.68 0 0 Z " fill="#4581E5" transform="translate(410,240)"/>
<path d="M0 0 C0.90599064 0.21224307 1.81198128 0.42448614 2.74542618 0.64316082 C11.99802263 2.67174741 20.74598107 3.42913154 30.24121094 3.37231445 C31.69666808 3.37475069 33.15212353 3.378478 34.60757446 3.38337708 C38.50768181 3.39266606 42.40753297 3.3834689 46.30762005 3.37004495 C50.40610924 3.3586219 54.50458781 3.36284559 58.60308838 3.36479187 C65.46850719 3.36567025 72.33382638 3.35468056 79.19921875 3.33618164 C87.13556086 3.31491954 95.0717583 3.31152826 103.00812316 3.3177436 C110.66427121 3.32343189 118.32036838 3.31780444 125.97650909 3.30657005 C129.22844636 3.30192728 132.48035249 3.30104867 135.73229218 3.3031559 C139.55081003 3.30503596 143.36917992 3.29695697 147.18766403 3.2810955 C148.58933525 3.27684712 149.99102148 3.27600582 151.39269638 3.27878571 C153.3023114 3.28199929 155.21193507 3.27171587 157.121521 3.26069641 C158.19067623 3.25864354 159.25983147 3.25659067 160.36138535 3.25447559 C163.2305421 3.18738456 163.2305421 3.18738456 166 1 C165.34 2.65 164.68 4.3 164 6 C157.18341489 7.27671757 150.42771936 7.09962206 143.51245117 7.03759766 C142.14835369 7.0290796 140.78425334 7.02100958 139.42015076 7.01335144 C135.72988332 6.99124624 132.03969451 6.96255331 128.34948516 6.93239641 C124.47579519 6.90160544 120.60206997 6.87605888 116.72834778 6.84970093 C110.22112921 6.80457401 103.71395423 6.75511328 97.20678711 6.703125 C89.70367046 6.64323765 82.20052916 6.59041424 74.69733447 6.54135668 C67.45875055 6.49384452 60.22021383 6.44106222 52.98168373 6.38599777 C49.91138954 6.36274563 46.84109091 6.34134835 43.77077293 6.32149124 C40.14688175 6.29783128 36.52305444 6.26953496 32.89922523 6.23780251 C30.94984804 6.22179983 29.00043543 6.21030574 27.05102539 6.19898987 C20.33145515 6.13510468 13.65785045 5.98301973 7 5 C6.31148044 4.90618357 5.62296087 4.81236713 4.91357708 4.71570778 C2.34860366 3.75636757 1.45763545 2.25933494 0 0 Z " fill="#D4F4FF" transform="translate(100,337)"/>
<path d="M0 0 C2.84829535 3.34799629 4.177379 6.74528365 5.625 10.875 C6.05039062 12.06867188 6.47578125 13.26234375 6.9140625 14.4921875 C8.58066039 19.87565837 9.12497203 24.75251745 9.0625 30.375 C9.05347656 31.43460938 9.04445313 32.49421875 9.03515625 33.5859375 C9.02355469 34.38257813 9.01195312 35.17921875 9 36 C10.093125 35.938125 11.18625 35.87625 12.3125 35.8125 C17.79640423 35.78296371 22.80042462 37.39424878 28 39 C28 39.33 28 39.66 28 40 C27.236875 40.144375 26.47375 40.28875 25.6875 40.4375 C22.91827092 40.9632594 22.91827092 40.9632594 20 42 C20 41.34 20 40.68 20 40 C17.1554777 38.57773885 14.33587776 38.62238263 11.19140625 38.37890625 C9 38 9 38 6 36 C6 37.32 6 38.64 6 40 C6.99 40 7.98 40 9 40 C9 40.66 9 41.32 9 42 C5.535 42.495 5.535 42.495 2 43 C-0.3908062 39.4137907 -0.35056084 37.39083917 -0.5625 33.125 C-0.82223258 28.08925573 -0.82223258 28.08925573 -1.58984375 23.1171875 C-1.72519531 22.41851562 -1.86054688 21.71984375 -2 21 C-1.67 20.67 -1.34 20.34 -1 20 C-0.835 18.845 -0.67 17.69 -0.5 16.5 C0 13 0 13 1 12 C0.90997602 9.97591245 0.75358962 7.95455713 0.5625 5.9375 C0.46066406 4.83277344 0.35882813 3.72804687 0.25390625 2.58984375 C0.17011719 1.73519531 0.08632813 0.88054687 0 0 Z " fill="#2E88E6" transform="translate(380,200)"/>
<path d="M0 0 C-1 3 -1 3 -3.2121582 4.61572266 C-13.43327687 9.69092564 -27.10794866 8.41688605 -38.3125 8.625 C-40.03582473 8.66328529 -41.75913249 8.70234266 -43.48242188 8.7421875 C-47.65480613 8.83700801 -51.82727914 8.92144415 -56 9 C-54.68 9.99 -53.36 10.98 -52 12 C-52.66 13.98 -53.32 15.96 -54 18 C-47.82501142 17.9063415 -41.65040916 17.80021904 -35.47583008 17.68261719 C-33.37595463 17.64436986 -31.27601462 17.6095096 -29.17602539 17.578125 C-26.15487619 17.5323825 -23.13416984 17.47440277 -20.11328125 17.4140625 C-18.70832146 17.39673569 -18.70832146 17.39673569 -17.27497864 17.37905884 C-10.89802195 17.26812824 -10.89802195 17.26812824 -5 15 C-4.67 14.34 -4.34 13.68 -4 13 C-1.93359375 12.5859375 -1.93359375 12.5859375 0.5625 12.375 C1.80193359 12.26285156 1.80193359 12.26285156 3.06640625 12.1484375 C4.02353516 12.07496094 4.02353516 12.07496094 5 12 C2.56363856 14.8519281 0.1994457 15.89120442 -3.3125 17.125 C-4.23675781 17.45757812 -5.16101563 17.79015625 -6.11328125 18.1328125 C-15.03997021 20.81444301 -24.37385912 20.2942733 -33.60449219 20.35009766 C-35.62186155 20.3667297 -37.63917028 20.39411371 -39.65625 20.43212891 C-42.57582917 20.48677598 -45.49404159 20.50874252 -48.4140625 20.5234375 C-49.76572006 20.55744156 -49.76572006 20.55744156 -51.14468384 20.59213257 C-57.36500028 20.57105836 -57.36500028 20.57105836 -60.59912109 17.66259766 C-62 15 -62 15 -62 11.875 C-60.79455368 8.40934182 -60.21502387 7.72084012 -57 6 C-53.92582444 5.55838299 -50.87490579 5.58293834 -47.7734375 5.59375 C-46.87058014 5.58291382 -45.96772278 5.57207764 -45.0375061 5.56091309 C-42.14993178 5.52666655 -39.26275053 5.51107525 -36.375 5.5 C-32.59077359 5.48532504 -28.80741006 5.45137868 -25.0234375 5.40625 C-24.16889984 5.40927124 -23.31436218 5.41229248 -22.43392944 5.41540527 C-14.54438614 5.31896994 -6.8687594 0 0 0 Z " fill="#3073D3" transform="translate(412,321)"/>
<path d="M0 0 C10.42233195 0.45314487 20.57208421 8.23999053 27.5 15.6875 C29 18 29 18 29 21 C24.00618793 22.47964802 20.99313116 23.33150164 16 22 C16 20.68 16 19.36 16 18 C15.34 17.67 14.68 17.34 14 17 C14 16.34 14 15.68 14 15 C13.34 14.01 12.68 13.02 12 12 C11.236875 12.350625 10.47375 12.70125 9.6875 13.0625 C7 14 7 14 4 13 C4 12.34 4 11.68 4 11 C3.236875 10.87625 2.47375 10.7525 1.6875 10.625 C-1 10 -1 10 -4 8 C-4 7.01 -4 6.02 -4 5 C-2.68 5 -1.36 5 0 5 C0 3.35 0 1.7 0 0 Z " fill="#33BAE9" transform="translate(240,148)"/>
<path d="M0 0 C0.928125 0.2784375 0.928125 0.2784375 1.875 0.5625 C4.04160178 1.23686176 4.04160178 1.23686176 6 0 C6.99 0.33 7.98 0.66 9 1 C9 1.66 9 2.32 9 3 C9.99 3.33 10.98 3.66 12 4 C12 4.66 12 5.32 12 6 C13.41601714 6.48108275 14.83284437 6.95978141 16.25 7.4375 C17.03890625 7.70433594 17.8278125 7.97117187 18.640625 8.24609375 C20.74821988 8.91954708 22.84753973 9.49150595 25 10 C26.125 15.625 26.125 15.625 25 19 C26.96822886 20.96822886 30.34808709 20.66248381 33 21 C33 21.66 33 22.32 33 23 C30.72735496 22.74481529 28.45687295 22.47030939 26.1875 22.1875 C24.92292969 22.03667969 23.65835938 21.88585937 22.35546875 21.73046875 C18.99687757 20.99932026 18.05378665 20.59964356 16 18 C15.34 17.67 14.68 17.34 14 17 C14 16.34 14 15.68 14 15 C13.030625 15.165 12.06125 15.33 11.0625 15.5 C5.98921813 15.58316856 3.17649355 12.07121917 -0.27734375 8.75 C-0.84582031 8.1725 -1.41429688 7.595 -2 7 C-0.68 6.01 0.64 5.02 2 4 C1.01 4 0.02 4 -1 4 C-0.67 2.68 -0.34 1.36 0 0 Z " fill="#32B7EB" transform="translate(87,317)"/>
<path d="M0 0 C3.1875 1.625 3.1875 1.625 5 4 C5.5625 7 5.5625 7 5 10 C2.71565665 13.07744055 1.50883768 13.91299356 -2.3125 14.56640625 C-4.1378125 14.56447266 -4.1378125 14.56447266 -6 14.5625 C-7.216875 14.58441406 -8.43375 14.60632813 -9.6875 14.62890625 C-13 14 -13 14 -15.4453125 11.62890625 C-17 9 -17 9 -16.875 6.375 C-16 4 -16 4 -14 1 C-9.37300497 -0.54233168 -4.83176312 -0.50081048 0 0 Z " fill="#2A81EB" transform="translate(315,327)"/>
<path d="M0 0 C1.32 0 2.64 0 4 0 C4 0.66 4 1.32 4 2 C7.02419525 1.41196203 10.01758453 0.77321882 13 0 C13.33 0.99 13.66 1.98 14 3 C14.66 3.66 15.32 4.32 16 5 C16 5.66 16 6.32 16 7 C16.24756445 9.07361988 16.24756445 9.07361988 17 11 C17.99 11.33 18.98 11.66 20 12 C20.33 11.34 20.66 10.68 21 10 C21.99 10.66 22.98 11.32 24 12 C24.33 11.34 24.66 10.68 25 10 C26.32 10 27.64 10 29 10 C28.505 9.236875 28.01 8.47375 27.5 7.6875 C26 5 26 5 26 2 C27.46691458 3.55444652 28.92320641 5.11892175 30.375 6.6875 C31.18710937 7.55761719 31.99921875 8.42773438 32.8359375 9.32421875 C34.88977509 11.86371107 35.9900668 13.92025866 37 17 C35.68 17.33 34.36 17.66 33 18 C33.33 16.35 33.66 14.7 34 13 C33.34 13 32.68 13 32 13 C31.34 14.32 30.68 15.64 30 17 C29.34 17 28.68 17 28 17 C28.4452885 22.27315333 29.08373163 27.01770224 31 32 C28.46947572 29.70624992 26.99873843 27.3660971 25.375 24.375 C20.30255961 15.76189577 13.03573627 9.74729833 5 4 C3.32655239 2.67518731 1.65651812 1.34592097 0 0 Z " fill="#3EB5E3" transform="translate(240,159)"/>
<path d="M0 0 C10.79018135 1.59630024 21.85252298 9.05955661 30 16 C30.66 16.99 31.32 17.98 32 19 C28.19893077 17.77024231 25.73514583 15.98026943 22.7421875 13.375 C18.20445452 9.7936502 13.82936458 7 8 7 C7.67 8.32 7.34 9.64 7 11 C5.68 11 4.36 11 3 11 C3 11.99 3 12.98 3 14 C4.32 14.66 5.64 15.32 7 16 C6.34 16.33 5.68 16.66 5 17 C3.13783566 16.30168837 1.30852923 15.51485551 -0.5 14.6875 C-5.95343224 12.31644251 -11.13053518 10.87003129 -17 10 C-17 9.67 -17 9.34 -17 9 C-15.35 8.67 -13.7 8.34 -12 8 C-12 7.34 -12 6.68 -12 6 C-6.51324804 4.13216954 -1.77807024 3.7641604 4 4 C4 3.34 4 2.68 4 2 C2.68 1.34 1.36 0.68 0 0 Z " fill="#3BC0E6" transform="translate(233,142)"/>
<path d="M0 0 C19.41938072 -0.07013578 38.83873567 -0.12301056 58.25821686 -0.15543652 C67.27537779 -0.17089381 76.29245995 -0.19196156 85.30957031 -0.22631836 C93.17049701 -0.25625557 101.03136664 -0.27558327 108.89234877 -0.28226548 C113.0532281 -0.28617043 117.21394419 -0.29532381 121.37477112 -0.31719017 C125.29488194 -0.33762368 129.21476301 -0.34382 133.13492203 -0.33932304 C134.56997554 -0.34014519 136.00503711 -0.34606995 137.4400444 -0.35761642 C144.91470522 -0.41478579 151.25276978 -0.43127176 158 3 C159.62190252 5.71876609 159.57898279 7.78974375 160 11 C158.68 11.66 157.36 12.32 156 13 C156.0825 12.0925 156.165 11.185 156.25 10.25 C156.29215484 6.98208836 156.29215484 6.98208836 154.36392212 4.82847023 C151.35131327 2.49824727 149.71106454 2.49828465 145.92724609 2.49447632 C144.05972687 2.47794258 144.05972687 2.47794258 142.15447998 2.46107483 C140.77746375 2.46897736 139.40044958 2.47724461 138.0234375 2.48583984 C136.57122046 2.48037894 135.11900919 2.47313746 133.66680908 2.46424866 C130.54122116 2.44890935 127.4159615 2.44611024 124.29034424 2.45301437 C119.34886831 2.46379399 114.40773591 2.44642747 109.46630859 2.42520142 C101.6513455 2.39493572 93.83648405 2.38324608 86.02146721 2.37962496 C72.02444246 2.3729779 58.0274881 2.3439968 44.03055 2.2945286 C39.11758528 2.27802018 34.20476835 2.27261591 29.29177856 2.27611899 C26.23671852 2.27655579 23.18171436 2.26899515 20.12667084 2.25944328 C18.70929948 2.25675886 17.29191682 2.257515 15.87454987 2.26195335 C13.94062299 2.26759081 12.00667092 2.25991773 10.07275391 2.2515564 C8.99023346 2.25122091 7.90771301 2.25088543 6.79238892 2.25053978 C4.01352063 2.0012131 2.36336919 1.43553181 0 0 Z " fill="#E2FEFE" transform="translate(110,325)"/>
<path d="M0 0 C0.99 0 1.98 0 3 0 C3.33 0.66 3.66 1.32 4 2 C5.97522846 3.04808041 7.97481509 4.0520411 10 5 C10 5.66 10 6.32 10 7 C11.32 7.33 12.64 7.66 14 8 C14.33 9.65 14.66 11.3 15 13 C13.02 12.34 11.04 11.68 9 11 C9 10.34 9 9.68 9 9 C6.525 8.505 6.525 8.505 4 8 C4.50603992 10.16874252 4.99983813 11.99967627 6 14 C3.61435923 13.42415568 1.33317216 12.77772405 -1 12 C-1 11.34 -1 10.68 -1 10 C-1.70125 9.87625 -2.4025 9.7525 -3.125 9.625 C-6.17656387 8.96161655 -9.05340938 8.02788045 -12 7 C-10.6875 5.5 -10.6875 5.5 -9 4 C-8.01 4 -7.02 4 -6 4 C-5.67 3.34 -5.34 2.68 -5 2 C-2.4375 1.375 -2.4375 1.375 0 1 C0 0.67 0 0.34 0 0 Z " fill="#2C9EED" transform="translate(349,173)"/>
<path d="M0 0 C1.875 0.3125 1.875 0.3125 4 1 C4.66 1.99 5.32 2.98 6 4 C6.99 3.01 7.98 2.02 9 1 C9 3.33333333 9 5.66666667 9 8 C9.66 8 10.32 8 11 8 C11.28875 9.0725 11.5775 10.145 11.875 11.25 C13.21600651 16.01463592 13.21600651 16.01463592 16 20 C16.27637295 22.24064218 16.49250098 24.48876064 16.68359375 26.73828125 C16.80775004 28.1295745 16.93210534 29.52085 17.05664062 30.91210938 C17.24821534 33.11068069 17.4372405 35.30941655 17.62231445 37.50854492 C17.80236978 39.62747417 17.99241007 41.7453312 18.18359375 43.86328125 C18.29243896 45.13469971 18.40128418 46.40611816 18.51342773 47.71606445 C18.86180252 51.24242205 18.86180252 51.24242205 21 55 C27.6 55 34.2 55 41 55 C41.33 55.66 41.66 56.32 42 57 C38.41548691 56.94810241 34.83337949 56.85302216 31.25 56.75 C30.23421875 56.73582031 29.2184375 56.72164062 28.171875 56.70703125 C20.92086694 56.46851125 20.92086694 56.46851125 17.328125 54.640625 C15.13214241 50.27449491 15.49618354 45.8137063 15.5 41 C15.13139694 24.81531677 10.41768489 12.58803591 0 0 Z " fill="#4795DA" transform="translate(359,194)"/>
<path d="M0 0 C9.80991443 4.15355952 17.69457212 10.36242756 24 19 C24 19.66 24 20.32 24 21 C23.01 20.67 22.02 20.34 21 20 C20.3125 17.9375 20.3125 17.9375 20 16 C19.34 16 18.68 16 18 16 C17.34 15.01 16.68 14.02 16 13 C13.94074861 12.27617533 13.94074861 12.27617533 12 12 C12 10.68 12 9.36 12 8 C11.38511719 7.81824219 10.77023437 7.63648438 10.13671875 7.44921875 C9.32847656 7.19785156 8.52023437 6.94648438 7.6875 6.6875 C6.88699219 6.44386719 6.08648437 6.20023438 5.26171875 5.94921875 C2.87242107 4.94645651 1.60410493 4.01940718 0 2 C0 1.34 0 0.68 0 0 Z M-7 12 C-6.31292969 12.08378906 -5.62585938 12.16757813 -4.91796875 12.25390625 C-3.56638672 12.40666016 -3.56638672 12.40666016 -2.1875 12.5625 C-1.29417969 12.66691406 -0.40085937 12.77132812 0.51953125 12.87890625 C3.13375572 13.15658709 3.13375572 13.15658709 6 12 C5.67 13.98 5.34 15.96 5 18 C5.99 18 6.98 18 8 18 C8.66 16.02 9.32 14.04 10 12 C10.66 12 11.32 12 12 12 C11.67 14.31 11.34 16.62 11 19 C10.34 19 9.68 19 9 19 C9 19.99 9 20.98 9 22 C9.66 22.33 10.32 22.66 11 23 C7.27985185 23 6.85308549 22.20208059 4.25 19.6875 C0.65826152 16.40172442 -2.43151903 14.61800368 -7 13 C-7 12.67 -7 12.34 -7 12 Z " fill="#3E81DE" transform="translate(410,240)"/>
<path d="M0 0 C0.33 0.99 0.66 1.98 1 3 C1.86625 2.2265625 1.86625 2.2265625 2.75 1.4375 C5 0 5 0 7.25 0.3125 C7.8275 0.539375 8.405 0.76625 9 1 C9 1.99 9 2.98 9 4 C8.01 4.33 7.02 4.66 6 5 C6 6.32 6 7.64 6 9 C5.01 9.33 4.02 9.66 3 10 C2.67 11.65 2.34 13.3 2 15 C1.34 15 0.68 15 0 15 C0 13.68 0 12.36 0 11 C-0.99 11.33 -1.98 11.66 -3 12 C-3 9 -3 9 -2 8 C-2.66 8 -3.32 8 -4 8 C-4.12375 8.61875 -4.2475 9.2375 -4.375 9.875 C-5 12 -5 12 -7 14 C-7.66 13.34 -8.32 12.68 -9 12 C-8.66380474 8.63804744 -7.23104268 6.47893631 -5 4 C-3.68252676 3.30251417 -2.35085807 2.63040043 -1 2 C-0.67 1.34 -0.34 0.68 0 0 Z " fill="#35D2E8" transform="translate(146,167)"/>
<path d="M0 0 C0 0.33 0 0.66 0 1 C-8.58 1 -17.16 1 -26 1 C-26.33 1.99 -26.66 2.98 -27 4 C-28.65 4 -30.3 4 -32 4 C-32 3.34 -32 2.68 -32 2 C-36.49998298 2.75999713 -40.15763985 3.43842657 -44 6 C-47.84236015 8.56157343 -51.50001702 9.24000287 -56 10 C-42.6641948 -2.4160945 -16.95270078 -5.65090026 0 0 Z " fill="#48ABDC" transform="translate(336,166)"/>
<path d="M0 0 C-1 3 -1 3 -3.21606445 4.61376953 C-13.78551717 9.87671371 -27.82191379 8.23640603 -39.3125 8.125 C-41.1321565 8.11494396 -42.95181841 8.10582278 -44.77148438 8.09765625 C-49.18112604 8.0758648 -53.59050142 8.04148164 -58 8 C-57.67 7.34 -57.34 6.68 -57 6 C-55.78006348 5.98541748 -54.56012695 5.97083496 -53.30322266 5.95581055 C-48.73685757 5.89743073 -44.17096531 5.82020304 -39.60498047 5.73754883 C-37.63630908 5.70448495 -35.66754711 5.67639655 -33.69873047 5.65356445 C-30.85345186 5.61967492 -28.00898961 5.56734529 -25.1640625 5.51171875 C-24.29697662 5.50532883 -23.42989075 5.4989389 -22.53652954 5.49235535 C-14.68927591 5.30746453 -6.84466886 0 0 0 Z " fill="#5384D6" transform="translate(412,321)"/>
<path d="M0 0 C1.65 0 3.3 0 5 0 C6.35439668 2.70879335 6.06501451 5.00933268 6 8 C3.25334611 9.37332694 1.06375932 9.11964892 -2.01025391 9.11352539 C-3.27141022 9.11344986 -4.53256653 9.11337433 -5.8319397 9.11329651 C-7.21348103 9.10818949 -8.59502196 9.10297349 -9.9765625 9.09765625 C-11.3861791 9.09579144 -12.79579634 9.09436783 -14.20541382 9.09336853 C-17.91753932 9.08954833 -21.62962578 9.07972228 -25.34173584 9.06866455 C-29.12886019 9.05843975 -32.91599083 9.05386862 -36.703125 9.04882812 C-44.13543448 9.03809958 -51.56771177 9.02102911 -59 9 C-59 8.67 -59 8.34 -59 8 C-58.29256149 7.98969254 -57.58512299 7.97938507 -56.85624695 7.96876526 C-50.19068762 7.87080479 -43.52521568 7.76829237 -36.85980511 7.66066074 C-33.43301772 7.60548647 -30.00622172 7.55207534 -26.5793457 7.50268555 C-22.64004749 7.44583335 -18.7008926 7.38132688 -14.76171875 7.31640625 C-12.9147364 7.29133751 -12.9147364 7.29133751 -11.03044128 7.26576233 C-9.31900688 7.2358445 -9.31900688 7.2358445 -7.57299805 7.20532227 C-6.06409248 7.18200584 -6.06409248 7.18200584 -4.52470398 7.15821838 C-1.87395947 7.1003603 -1.87395947 7.1003603 1 6 C0.505 3.03 0.505 3.03 0 0 Z " fill="#2691F1" transform="translate(258,330)"/>
<path d="M0 0 C2.8125 -0.25 2.8125 -0.25 6 0 C7.9375 1.625 7.9375 1.625 9 4 C8.87492412 7.06435914 8.6109245 9.13345842 6.82804871 11.66230774 C4.16863177 13.60836172 2.14792007 13.36016719 -1.1237793 13.34057617 C-2.38486008 13.34034958 -3.64594086 13.34012299 -4.94523621 13.33988953 C-6.32156732 13.32456963 -7.69789482 13.30892164 -9.07421875 13.29296875 C-10.48240202 13.2873726 -11.89059114 13.28310259 -13.29878235 13.28010559 C-17.00281944 13.26865818 -20.7065029 13.23919235 -24.41040039 13.20599365 C-28.19086931 13.17529026 -31.97139543 13.16159971 -35.75195312 13.14648438 C-43.16812986 13.11432216 -50.58401536 13.06312755 -58 13 C-58 12.67 -58 12.34 -58 12 C-57.31619263 11.98969254 -56.63238525 11.97938507 -55.92785645 11.96876526 C-48.78970531 11.86030962 -41.65167049 11.74574516 -34.51367188 11.62768555 C-31.85223551 11.58397583 -29.19079409 11.54277819 -26.52929688 11.50268555 C-22.69653655 11.44467852 -18.86390306 11.38107248 -15.03125 11.31640625 C-13.84760864 11.29969376 -12.66396729 11.28298126 -11.44445801 11.26576233 C-5.55038357 11.16085153 0.16903673 10.87902397 6 10 C5.505 6.04 5.505 6.04 5 2 C2.525 1.505 2.525 1.505 0 1 C0 0.67 0 0.34 0 0 Z " fill="#458CCC" transform="translate(258,328)"/>
<path d="M0 0 C3.1875 1.625 3.1875 1.625 5 4 C5.5625 7 5.5625 7 5 10 C2.71565665 13.07744055 1.50883768 13.91299356 -2.3125 14.56640625 C-4.1378125 14.56447266 -4.1378125 14.56447266 -6 14.5625 C-7.216875 14.58441406 -8.43375 14.60632813 -9.6875 14.62890625 C-13 14 -13 14 -15.4453125 11.62890625 C-17 9 -17 9 -16.875 6.375 C-16 4 -16 4 -14 1 C-9.37300497 -0.54233168 -4.83176312 -0.50081048 0 0 Z M-13.6875 4 C-14.120625 4.66 -14.55375 5.32 -15 6 C-14.39816251 8.02045442 -13.72693904 10.02111039 -13 12 C-10.52621876 13.23689062 -8.82084683 13.13310087 -6.0625 13.125 C-5.18722656 13.12757813 -4.31195313 13.13015625 -3.41015625 13.1328125 C-0.85540944 13.09822003 -0.85540944 13.09822003 2 12 C2 10.68 2 9.36 2 8 C2.66 7.67 3.32 7.34 4 7 C3.34 7 2.68 7 2 7 C1.34 5.35 0.68 3.7 0 2 C-7.27734661 1.27780932 -7.27734661 1.27780932 -13.6875 4 Z M2 3 C3 5 3 5 3 5 Z " fill="#4D89CF" transform="translate(315,327)"/>
<path d="M0 0 C1.65 0.33 3.3 0.66 5 1 C5.33 1.99 5.66 2.98 6 4 C6.66 4 7.32 4 8 4 C8 5.98 8 7.96 8 10 C6.35 10.66 4.7 11.32 3 12 C3 12.66 3 13.32 3 14 C0.5625 13.3125 0.5625 13.3125 -2 12 C-2.8125 9.375 -2.8125 9.375 -3 7 C-2.34 7 -1.68 7 -1 7 C-1.33 6.01 -1.66 5.02 -2 4 C-1.0625 1.8125 -1.0625 1.8125 0 0 Z " fill="#2879EB" transform="translate(422,252)"/>
<path d="M0 0 C4.68586276 4.68586276 5.37800729 11.87528944 5.46826172 18.24267578 C5.45303467 19.48380127 5.45303467 19.48380127 5.4375 20.75 C5.42992676 21.62253418 5.42235352 22.49506836 5.41455078 23.39404297 C5.11902586 35.07914141 1.52414781 44.3660084 -5 54 C-6.1171875 50.28125 -6.1171875 50.28125 -5.0625 47.75 C-4.711875 47.1725 -4.36125 46.595 -4 46 C-3.34 46.33 -2.68 46.66 -2 47 C-2 45.35 -2 43.7 -2 42 C-1.34 42 -0.68 42 0 42 C0.14308594 41.28328125 0.28617187 40.5665625 0.43359375 39.828125 C0.79475216 38.02482369 1.16136918 36.22260103 1.53515625 34.421875 C3.53097081 24.30974792 3.03543008 16.06838698 1 6 C0.66117344 4.00092329 0.32455828 2.00144274 0 0 Z " fill="#3D70D8" transform="translate(437,267)"/>
<path d="M0 0 C2.84829535 3.34799629 4.177379 6.74528365 5.625 10.875 C6.05039062 12.06867188 6.47578125 13.26234375 6.9140625 14.4921875 C8.52517924 19.69644231 9.12878388 24.4397215 9.0625 29.875 C9.05347656 30.84179688 9.04445313 31.80859375 9.03515625 32.8046875 C9.02355469 33.52914062 9.01195312 34.25359375 9 35 C8.67 35 8.34 35 8 35 C7.34 29.72 6.68 24.44 6 19 C4.68 19 3.36 19 2 19 C1.34 19 0.68 19 0 19 C-0.04254356 17.00045254 -0.04080783 14.99958364 0 13 C0.33 12.67 0.66 12.34 1 12 C0.90997602 9.97591245 0.75358962 7.95455713 0.5625 5.9375 C0.46066406 4.83277344 0.35882813 3.72804687 0.25390625 2.58984375 C0.17011719 1.73519531 0.08632813 0.88054687 0 0 Z " fill="#3E8FDD" transform="translate(380,200)"/>
<path d="M0 0 C1.34191406 0.72316406 1.34191406 0.72316406 2.7109375 1.4609375 C3.9319463 2.09961903 5.15332064 2.73760207 6.375 3.375 C7.25091797 3.85066406 7.25091797 3.85066406 8.14453125 4.3359375 C16.2046052 8.49597567 24.77440354 9.28846619 33.7265625 9.4140625 C34.60025482 9.43342865 35.47394714 9.4527948 36.37411499 9.4727478 C39.1243153 9.53182264 41.87455913 9.57863612 44.625 9.625 C46.50652718 9.66324638 48.3880381 9.70230181 50.26953125 9.7421875 C54.84621976 9.83746333 59.42298994 9.92175507 64 10 C64 10.33 64 10.66 64 11 C48.16 11 32.32 11 16 11 C16 10.34 16 9.68 16 9 C14.7315625 8.8453125 14.7315625 8.8453125 13.4375 8.6875 C8.45479804 7.69095961 3.14946982 6.2610474 0 2 C0 1.34 0 0.68 0 0 Z " fill="#3FA9D9" transform="translate(96,318)"/>
<path d="M0 0 C0 4.95 0 9.9 0 15 C-0.99 15.33 -1.98 15.66 -3 16 C-3 17.32 -3 18.64 -3 20 C-3.66 20 -4.32 20 -5 20 C-5.24858198 17.22965863 -5.47452879 14.46060931 -5.6875 11.6875 C-5.76033203 10.90181641 -5.83316406 10.11613281 -5.90820312 9.30664062 C-5.96298828 8.54931641 -6.01777344 7.79199219 -6.07421875 7.01171875 C-6.13182373 6.31522217 -6.18942871 5.61872559 -6.2487793 4.90112305 C-6 3 -6 3 -4.68286133 1.24926758 C-3 0 -3 0 0 0 Z " fill="#278AF1" transform="translate(387,219)"/>
<path d="M0 0 C3.87862305 6.93896304 2.93129993 17.39065476 1.3828125 25.0546875 C-1.68186734 33.54357944 -7.94709119 41.78180967 -16 46 C-16.66 46 -17.32 46 -18 46 C-17.67 45.01 -17.34 44.02 -17 43 C-14.9375 42.3125 -14.9375 42.3125 -13 42 C-13 41.34 -13 40.68 -13 40 C-11.02 39.505 -11.02 39.505 -9 39 C-8.67 37.68 -8.34 36.36 -8 35 C-7.34 35 -6.68 35 -6 35 C-5.71125 34.05125 -5.4225 33.1025 -5.125 32.125 C-4 29 -4 29 -2 27 C0.19828256 21.15072369 0.24101259 15.76024937 0.125 9.5625 C0.11597656 8.64017578 0.10695313 7.71785156 0.09765625 6.76757812 C0.0742766 4.51144191 0.04150916 2.25586316 0 0 Z " fill="#DCF2FE" transform="translate(426,276)"/>
<path d="M0 0 C1.38137146 0.00424484 1.38137146 0.00424484 2.79064941 0.00857544 C5.70432052 0.01968475 8.61767331 0.04477172 11.53125 0.0703125 C13.5182247 0.08035427 15.50520426 0.08947802 17.4921875 0.09765625 C22.33866252 0.11959371 27.18490247 0.15405889 32.03125 0.1953125 C29.15183342 1.82878871 27.08801493 2.4449501 23.78515625 2.45068359 C22.95749756 2.45764252 22.12983887 2.46460144 21.27709961 2.47177124 C20.39159424 2.47077423 19.50608887 2.46977722 18.59375 2.46875 C16.71093149 2.48903293 14.82811903 2.5098836 12.9453125 2.53125 C9.98269534 2.55388042 7.02031692 2.57033404 4.05761719 2.57617188 C1.19422502 2.58568165 -1.6680971 2.61943246 -4.53125 2.65625 C-5.85950806 2.64868179 -5.85950806 2.64868179 -7.21459961 2.64096069 C-12.21095946 2.7059452 -12.21095946 2.7059452 -16.54296875 5.02587891 C-18.41180165 7.86944896 -18.27175772 9.86222762 -17.96875 13.1953125 C-18.95875 12.5353125 -19.94875 11.8753125 -20.96875 11.1953125 C-21.15625 8.0703125 -21.15625 8.0703125 -20.96875 5.1953125 C-20.30875 5.1953125 -19.64875 5.1953125 -18.96875 5.1953125 C-18.63875 4.2053125 -18.30875 3.2153125 -17.96875 2.1953125 C-11.94256771 0.13611023 -6.32089667 -0.07436434 0 0 Z " fill="#EAFCFE" transform="translate(368.96875,324.8046875)"/>
<path d="M0 0 C1 2 1 2 0.6875 4.0625 C0 6 0 6 -2 7 C-2 8.32 -2 9.64 -2 11 C-2.83984375 12.78125 -2.83984375 12.78125 -3.9375 14.5 C-8.51974183 21.72647457 -8.18457515 31.83525527 -6.60302734 40.06591797 C-5.83027868 43.16070433 -4.87818048 46.18007347 -3.875 49.20703125 C-3 52 -3 52 -3 55 C-9.09135838 48.90864162 -9.46513511 38.23496922 -9.5625 30.0625 C-9.49175705 18.67502903 -6.54545467 9.37062955 0 0 Z " fill="#54C3D9" transform="translate(79,258)"/>
<path d="M0 0 C0.33 0 0.66 0 1 0 C1.19916016 1.87945312 1.19916016 1.87945312 1.40234375 3.796875 C1.58058291 5.44793246 1.7589764 7.09897327 1.9375 8.75 C2.02451172 9.575 2.11152344 10.4 2.20117188 11.25 C2.28818359 12.04921875 2.37519531 12.8484375 2.46484375 13.671875 C2.543396 14.4050293 2.62194824 15.13818359 2.70288086 15.89355469 C2.99750496 17.98231124 3.47267229 19.95945934 4 22 C4.203125 24 4.203125 24 4.25 26 C4.27578125 26.66 4.3015625 27.32 4.328125 28 C3.87648792 30.75283553 2.92310165 31.98510168 1 34 C-1.54370117 34.54589844 -1.54370117 34.54589844 -4.54296875 34.609375 C-5.61611328 34.64160156 -6.68925781 34.67382812 -7.79492188 34.70703125 C-9.47424805 34.72830078 -9.47424805 34.72830078 -11.1875 34.75 C-12.31865234 34.77964844 -13.44980469 34.80929688 -14.61523438 34.83984375 C-17.41022833 34.91060309 -20.20438528 34.96326976 -23 35 C-23 34.34 -23 33.68 -23 33 C-15.74 33 -8.48 33 -1 33 C1.1222298 28.7555404 1.13826742 27.74394139 0.625 23.25 C-0.12616128 15.48210867 -0.09004042 7.7934985 0 0 Z " fill="#4CBED7" transform="translate(135,216)"/>
<path d="M0 0 C0.33 0.66 0.66 1.32 1 2 C2.64363134 2.72159424 4.31050386 3.39351421 6 4 C6 8 6 8 5 11 C3.35 11.33 1.7 11.66 0 12 C-1.5625 10.375 -1.5625 10.375 -3 8 C-2.77962372 4.32706204 -2.63033454 2.63033454 0 0 Z " fill="#2C77EB" transform="translate(353,328)"/>
<path d="M0 0 C0 0.66 0 1.32 0 2 C-0.62865967 1.97905273 -1.25731934 1.95810547 -1.9050293 1.93652344 C-19.34380649 1.40584418 -19.34380649 1.40584418 -36 6 C-36.93585938 6.37382812 -37.87171875 6.74765625 -38.8359375 7.1328125 C-39.55007813 7.41898438 -40.26421875 7.70515625 -41 8 C-41 6.35 -41 4.7 -41 3 C-39.35 3 -37.7 3 -36 3 C-36 2.34 -36 1.68 -36 1 C-24.05121032 -0.46739522 -12.01405773 -0.0947251 0 0 Z " fill="#48A9D9" transform="translate(332,177)"/>
<path d="M0 0 C0.33 0 0.66 0 1 0 C0.26948176 13.68760495 0.26948176 13.68760495 -1 17.875 C-1.7302945 20.61744437 -2.17068303 23.20799392 -2.3515625 26.0390625 C-2.39925781 26.77012207 -2.44695312 27.50118164 -2.49609375 28.25439453 C-2.6825359 31.50230148 -2.85012971 34.75018118 -3 38 C-3.33 38 -3.66 38 -4 38 C-4.67755386 9.35510771 -4.67755386 9.35510771 0 0 Z " fill="#52C8DA" transform="translate(127,194)"/>
<path d="M0 0 C0.33 0 0.66 0 1 0 C1.02718316 2.85423192 1.04692705 5.70820015 1.0625 8.5625 C1.07087891 9.36236328 1.07925781 10.16222656 1.08789062 10.98632812 C1.11816112 18.40259975 0.54258449 24.35765409 -3 31 C-3.144375 31.721875 -3.28875 32.44375 -3.4375 33.1875 C-4.2335803 35.75264765 -5.79956845 36.58036674 -8 38 C-8.66 37.67 -9.32 37.34 -10 37 C-9.60167969 36.40574219 -9.20335937 35.81148438 -8.79296875 35.19921875 C-1.56601752 23.89282059 -0.47597451 13.08109251 0 0 Z " fill="#C6E2FC" transform="translate(442,282)"/>
<path d="M0 0 C3.28788824 3.11016455 5.83735988 6.01618925 8 10 C7.01 10.495 7.01 10.495 6 11 C6 10.34 6 9.68 6 9 C5.01 9.495 5.01 9.495 4 10 C3.67 10.99 3.34 11.98 3 13 C2.01 13 1.02 13 0 13 C-1.98384711 9.03230578 -1.32630565 4.14470514 0 0 Z " fill="#3193E4" transform="translate(371,188)"/>
<path d="M0 0 C0.66 0.33 1.32 0.66 2 1 C1.71125 1.58523438 1.4225 2.17046875 1.125 2.7734375 C-1.56321998 8.9899462 -2.38604609 14.49495303 -2.375 21.1875 C-2.37628906 21.93499512 -2.37757812 22.68249023 -2.37890625 23.45263672 C-2.27965187 28.56987649 -1.39380059 33.07709631 0 38 C-2.32077032 36.2990338 -3.79327077 34.89132612 -4.45605469 32.03369141 C-4.69423641 29.62223153 -4.80745652 27.23468409 -4.875 24.8125 C-4.92140625 23.99974609 -4.9678125 23.18699219 -5.015625 22.34960938 C-5.35247743 14.20684955 -4.03254316 7.14859924 0 0 Z " fill="#62CDDE" transform="translate(87,268)"/>
<path d="M0 0 C5.44567686 1.02862785 10.11817117 2.24614784 15 5 C13 8 13 8 10 8.75 C7 9 7 9 5 8 C4.375 4.9375 4.375 4.9375 4 2 C2.68 2 1.36 2 0 2 C0 1.34 0 0.68 0 0 Z " fill="#3CA1E5" transform="translate(337,167)"/>
<path d="M0 0 C10.60483428 2.05254857 20.12378692 5.72388974 29 12 C29.33 12.66 29.66 13.32 30 14 C29.01 14 28.02 14 27 14 C27 13.34 27 12.68 27 12 C25.02 12 23.04 12 21 12 C21 11.01 21 10.02 21 9 C19.824375 8.62875 19.824375 8.62875 18.625 8.25 C14.01534583 6.66046408 9.51722144 4.83266036 5 3 C3.33365319 2.33253424 1.66707623 1.66564185 0 1 C0 0.67 0 0.34 0 0 Z " fill="#C5F7FB" transform="translate(219,152)"/>
<path d="M0 0 C10.79018135 1.59630024 21.85252298 9.05955661 30 16 C30.66 16.99 31.32 17.98 32 19 C28.19809041 17.76997043 25.73242257 15.9817394 22.7421875 13.37109375 C18.97414545 10.40566156 14.48611741 7.57980123 9.7890625 6.484375 C9.19867188 6.32453125 8.60828125 6.1646875 8 6 C7.67 5.34 7.34 4.68 7 4 C4.69034152 2.94647157 2.3570226 1.94280904 0 1 C0 0.67 0 0.34 0 0 Z " fill="#4BBBD5" transform="translate(233,142)"/>
<path d="M0 0 C0.33 0 0.66 0 1 0 C1.07347656 1.01320312 1.07347656 1.01320312 1.1484375 2.046875 C1.22320312 2.93890625 1.29796875 3.8309375 1.375 4.75 C1.44460938 5.63171875 1.51421875 6.5134375 1.5859375 7.421875 C1.92356937 10.34667577 1.92356937 10.34667577 4 14 C10.6 14 17.2 14 24 14 C24.33 14.66 24.66 15.32 25 16 C21.41548691 15.94810241 17.83337949 15.85302216 14.25 15.75 C13.23421875 15.73582031 12.2184375 15.72164062 11.171875 15.70703125 C3.74553141 15.46274363 3.74553141 15.46274363 0.28125 13.3125 C-1.37827216 10.31726489 -1.2309112 8.61637842 -0.75 5.25 C-0.62109375 4.26515625 -0.4921875 3.2803125 -0.359375 2.265625 C-0.18148438 1.14414063 -0.18148438 1.14414063 0 0 Z " fill="#4685D0" transform="translate(376,235)"/>
<path d="M0 0 C1 2 1 2 0.3984375 3.83984375 C-1.83505612 8.41765319 -3.42731154 10.53778313 -8 13 C-9.03357147 14.64605826 -10.04060332 16.30963442 -11 18 C-11.66 18 -12.32 18 -13 18 C-11.50328459 13.50985376 -9.16631659 9.52151236 -6 6 C-5.34 6 -4.68 6 -4 6 C-3.566875 5.071875 -3.566875 5.071875 -3.125 4.125 C-2 2 -2 2 0 0 Z " fill="#51D1DF" transform="translate(148,160)"/>
<path d="M0 0 C-7.59 0.33 -15.18 0.66 -23 1 C-22 -1 -22 -1 -18.625 -2.1875 C-12.39303392 -3.61871102 -5.38547713 -3.59031808 0 0 Z " fill="#47C3DF" transform="translate(215,151)"/>
<path d="M0 0 C-2.78861291 2.78861291 -5.09305885 2.3247521 -8.90625 2.4609375 C-11.19697511 2.79496712 -11.19697511 2.79496712 -12.28125 5.0390625 C-12.5184375 5.68617188 -12.755625 6.33328125 -13 7 C-14.32 7 -15.64 7 -17 7 C-16.67 7.66 -16.34 8.32 -16 9 C-18.64 8.67 -21.28 8.34 -24 8 C-20.57061871 5.02437908 -16.8158867 3.68871798 -12.5625 2.3125 C-11.90701172 2.08755859 -11.25152344 1.86261719 -10.57617188 1.63085938 C-6.94780155 0.43353356 -3.82287129 -0.2725361 0 0 Z " fill="#56CDDF" transform="translate(192,139)"/>
<path d="M0 0 C0.33 0.66 0.66 1.32 1 2 C0.09636719 1.98839844 -0.80726563 1.97679687 -1.73828125 1.96484375 C-3.50751953 1.95130859 -3.50751953 1.95130859 -5.3125 1.9375 C-6.48425781 1.92589844 -7.65601563 1.91429687 -8.86328125 1.90234375 C-12.03059195 1.85100102 -12.03059195 1.85100102 -15 3 C-16.74773759 5.44683263 -17.04592427 6.61423613 -16.6875 9.625 C-16.08066352 11.98940187 -16.08066352 11.98940187 -15 14 C-15.99 14.33 -16.98 14.66 -18 15 C-19.86982115 11.8788917 -20.24580189 10.01122935 -19.5625 6.4375 C-18.60699596 2.81255655 -18.2443818 2.17678683 -15.0625 -0.125 C-10.22656647 -1.64837018 -4.88247296 -1.12347561 0 0 Z " fill="#E0F6FD" transform="translate(316,326)"/>
<path d="M0 0 C0.66 0.66 1.32 1.32 2 2 C1.625 5.625 1.625 5.625 1 9 C-2.75 10.125 -2.75 10.125 -5 9 C-4.75 5.625 -4.75 5.625 -4 2 C-1.9375 0.5625 -1.9375 0.5625 0 0 Z " fill="#34CAEB" transform="translate(89,256)"/>
<path d="M0 0 C0.33 0 0.66 0 1 0 C1.33 6.6 1.66 13.2 2 20 C-6.91 20.99 -6.91 20.99 -16 22 C-15.67 21.34 -15.34 20.68 -15 20 C-10.27657031 18.52392822 -6.12992411 19 -1 19 C-0.67 12.73 -0.34 6.46 0 0 Z " fill="#CBF8FD" transform="translate(122,216)"/>
<path d="M0 0 C1.58294782 -0.05437607 3.16644256 -0.09296271 4.75 -0.125 C5.63171875 -0.14820313 6.5134375 -0.17140625 7.421875 -0.1953125 C10.17132652 0.01297928 11.58225378 0.75334961 14 2 C16.58532701 2.45064632 16.58532701 2.45064632 19.25 2.625 C20.14203125 2.69976562 21.0340625 2.77453125 21.953125 2.8515625 C22.96632812 2.92503906 22.96632812 2.92503906 24 3 C24 4.32 24 5.64 24 7 C23.35675781 6.81824219 22.71351563 6.63648438 22.05078125 6.44921875 C14.74600012 4.41721829 7.39794893 2.65836375 0 1 C0 0.67 0 0.34 0 0 Z " fill="#CBF7FC" transform="translate(216,137)"/>
<path d="M0 0 C0.33 1.32 0.66 2.64 1 4 C0.360625 4.226875 -0.27875 4.45375 -0.9375 4.6875 C-3.27193661 5.85250896 -3.27193661 5.85250896 -3.75 8.625 C-3.8325 9.40875 -3.915 10.1925 -4 11 C-4.66 11 -5.32 11 -6 11 C-7.32 13.31 -8.64 15.62 -10 18 C-10.66 18 -11.32 18 -12 18 C-9.49816659 10.91147201 -4.91775206 5.54066733 0 0 Z " fill="#D2F8FD" transform="translate(157,171)"/>
<path d="M0 0 C1.09054687 0.02320313 2.18109375 0.04640625 3.3046875 0.0703125 C4.40039062 0.08835937 5.49609375 0.10640625 6.625 0.125 C7.46804688 0.14820313 8.31109375 0.17140625 9.1796875 0.1953125 C8.8496875 1.1853125 8.5196875 2.1753125 8.1796875 3.1953125 C5.5396875 3.1953125 2.8996875 3.1953125 0.1796875 3.1953125 C0.0559375 3.8346875 -0.0678125 4.4740625 -0.1953125 5.1328125 C-0.4015625 5.8134375 -0.6078125 6.4940625 -0.8203125 7.1953125 C-1.8103125 7.6903125 -1.8103125 7.6903125 -2.8203125 8.1953125 C-3.4803125 6.2153125 -4.1403125 4.2353125 -4.8203125 2.1953125 C-2.8203125 0.1953125 -2.8203125 0.1953125 0 0 Z " fill="#2586F3" transform="translate(304.8203125,329.8046875)"/>
<path d="M0 0 C1.65 0 3.3 0 5 0 C2.62971052 2.60343271 0.09047863 4.28213963 -2.9375 6.0625 C-3.79214844 6.56910156 -4.64679688 7.07570312 -5.52734375 7.59765625 C-7.65694635 8.80544034 -9.79774622 9.93208576 -12 11 C-12 9.02 -12 7.04 -12 5 C-10.9275 4.87625 -9.855 4.7525 -8.75 4.625 C-5.6168129 4.10280215 -3.61350274 3.70882871 -1 2 C-0.67 1.34 -0.34 0.68 0 0 Z " fill="#56CCDA" transform="translate(172,157)"/>
<path d="M0 0 C0 0.33 0 0.66 0 1 C-1.08539063 1.04898438 -2.17078125 1.09796875 -3.2890625 1.1484375 C-4.73439784 1.22351986 -6.17970919 1.29906528 -7.625 1.375 C-8.33785156 1.4059375 -9.05070312 1.436875 -9.78515625 1.46875 C-14.18106507 1.71072663 -17.8460328 2.41695194 -22 4 C-24.6875 4.75 -24.6875 4.75 -27 5 C-27.99 4.34 -28.98 3.68 -30 3 C-19.93061665 -0.31697334 -10.45861049 -0.31375831 0 0 Z " fill="#C2F6FB" transform="translate(216,151)"/>
<path d="M0 0 C2.08304538 -0.05418326 4.16649768 -0.09287551 6.25 -0.125 C7.99023438 -0.15980469 7.99023438 -0.15980469 9.765625 -0.1953125 C12.82786046 -0.0103949 14.44202751 0.39176977 17 2 C13.86501708 3.85776765 11.62528568 4.20140476 8 4 C8 3.34 8 2.68 8 2 C5.03 2 2.06 2 -1 2 C-0.67 1.34 -0.34 0.68 0 0 Z " fill="#2AAAF2" transform="translate(312,166)"/>
<path d="M0 0 C1.32 0 2.64 0 4 0 C4 0.66 4 1.32 4 2 C6.97 2.33 9.94 2.66 13 3 C15.125 7.625 15.125 7.625 14 11 C4.58997722 3.70159453 4.58997722 3.70159453 0 0 Z " fill="#44A0DF" transform="translate(344,183)"/>
<path d="M0 0 C0.33 0 0.66 0 1 0 C1.125 3.375 1.125 3.375 1 7 C-1.80478513 9.80478513 -3.88543472 9.96108361 -7.796875 10.09765625 C-8.77140625 10.08605469 -9.7459375 10.07445312 -10.75 10.0625 C-11.73484375 10.05347656 -12.7196875 10.04445313 -13.734375 10.03515625 C-14.48203125 10.02355469 -15.2296875 10.01195312 -16 10 C-16 9.34 -16 8.68 -16 8 C-15.16855469 7.96261719 -14.33710938 7.92523438 -13.48046875 7.88671875 C-12.39378906 7.82097656 -11.30710937 7.75523437 -10.1875 7.6875 C-9.10855469 7.62949219 -8.02960938 7.57148438 -6.91796875 7.51171875 C-3.79714544 6.96442577 -2.8295244 6.52177687 -1 4 C-0.28552357 1.89667109 -0.28552357 1.89667109 0 0 Z " fill="#D7F1FE" transform="translate(320,333)"/>
<path d="M0 0 C1.32 0 2.64 0 4 0 C4 0.66 4 1.32 4 2 C5.2065625 2.2475 5.2065625 2.2475 6.4375 2.5 C11.52921179 4.64387865 15.03940819 8.21543449 19 12 C18.67 12.99 18.34 13.98 18 15 C17.62230469 14.57589844 17.24460937 14.15179688 16.85546875 13.71484375 C12.43900945 9.00878056 7.68580586 5.69968965 2.16015625 2.3828125 C1.44730469 1.92648438 0.73445312 1.47015625 0 1 C0 0.67 0 0.34 0 0 Z " fill="#D6F9FD" transform="translate(250,149)"/>
<path d="M0 0 C7.92892333 2.8477119 13.97547405 8.35465923 19 15 C16.6875 14.8125 16.6875 14.8125 14 14 C12.95107762 12.36368108 11.95093297 10.69514137 11 9 C9.03327085 7.8499169 9.03327085 7.8499169 7 7 C6 6 5 5 4 4 C1.90010348 2.82425289 1.90010348 2.82425289 0 2 C0 1.34 0 0.68 0 0 Z " fill="#4998D4" transform="translate(352,173)"/>
<path d="M0 0 C1.34191406 0.72316406 1.34191406 0.72316406 2.7109375 1.4609375 C9.70152848 5.14228698 16.03531163 8.10076099 24 9 C24 9.33 24 9.66 24 10 C16.12015384 10.77253394 7.33082659 8.5417733 1.11328125 3.45703125 C0 2 0 2 0 0 Z " fill="#53B1D4" transform="translate(96,318)"/>
<path d="M0 0 C1.65 0.33 3.3 0.66 5 1 C3.125 4.875 3.125 4.875 2 6 C-0.67058851 6.14115161 -3.32432238 6.04247107 -6 6 C-6 5.34 -6 4.68 -6 4 C-4.7934375 3.566875 -4.7934375 3.566875 -3.5625 3.125 C-0.8673532 2.26737432 -0.8673532 2.26737432 0 0 Z " fill="#33C3EF" transform="translate(132,242)"/>
<path d="M0 0 C6.41481258 -0.42765417 11.88595404 1.14256832 18 3 C18 3.33 18 3.66 18 4 C17.236875 4.144375 16.47375 4.28875 15.6875 4.4375 C12.91827092 4.9632594 12.91827092 4.9632594 10 6 C10 5.34 10 4.68 10 4 C6.7 3.34 3.4 2.68 0 2 C0 1.34 0 0.68 0 0 Z " fill="#4989DD" transform="translate(390,236)"/>
<path d="M0 0 C-1 3 -1 3 -3.1875 4.625 C-8.64902673 7.29507973 -14.05346323 7.1025265 -20 7 C-20 6.67 -20 6.34 -20 6 C-18.95199219 5.73445313 -17.90398437 5.46890625 -16.82421875 5.1953125 C-15.4452352 4.83884056 -14.06633316 4.48205321 -12.6875 4.125 C-11.65206055 3.86396484 -11.65206055 3.86396484 -10.59570312 3.59765625 C-7.02068099 2.66504178 -3.45270933 0 0 0 Z " fill="#4878D4" transform="translate(412,321)"/>
<path d="M0 0 C0.66 0 1.32 0 2 0 C1.81824219 0.58265625 1.63648438 1.1653125 1.44921875 1.765625 C-0.60235511 8.45691206 -2.35228894 15.19880965 -4 22 C-4.33 22 -4.66 22 -5 22 C-5.83507383 13.61214729 -3.61478507 7.51358897 0 0 Z " fill="#D3FBFD" transform="translate(128,186)"/>
<path d="M0 0 C5.01243959 3.84380901 8.1686587 7.3373174 11 13 C10.01 13.495 10.01 13.495 9 14 C8.38125 12.8553125 8.38125 12.8553125 7.75 11.6875 C6.03043329 9.04673684 4.50804131 7.81616784 2 6 C2 5.34 2 4.68 2 4 C1.34 4 0.68 4 0 4 C0 2.68 0 1.36 0 0 Z " fill="#DAF5FE" transform="translate(356,192)"/>
<path d="M0 0 C0.33 0 0.66 0 1 0 C0.2793124 6.77446344 -0.67453948 14.29931418 -6 19 C-6 15.79101916 -5.35792516 14.11682218 -4.125 11.1875 C-2.60053733 7.49527303 -1.2038094 3.81206311 0 0 Z " fill="#4373D5" transform="translate(429,292)"/>
<path d="M0 0 C-5.66507011 3.08900201 -10.50857435 5.57664615 -17 6 C-15 4 -15 4 -12.4375 3 C-9.85158559 2.25129886 -9.85158559 2.25129886 -9 0 C-5.58777852 -1.01444422 -3.37896371 -0.95821359 0 0 Z " fill="#4073D6" transform="translate(417,334)"/>
<path d="M0 0 C0.66 0 1.32 0 2 0 C2 0.66 2 1.32 2 2 C5.96 2 9.92 2 14 2 C11.20387283 3.86408478 9.62830652 4.48836118 6.4375 5.1875 C5.65246094 5.36667969 4.86742187 5.54585937 4.05859375 5.73046875 C2 6 2 6 0 5 C0 3.35 0 1.7 0 0 Z " fill="#4CCADD" transform="translate(178,150)"/>
<path d="M0 0 C0.66 0 1.32 0 2 0 C1.61757123 2.67700137 1.23415509 3.79006785 -0.8125 5.625 C-4.09890352 9.19309525 -5.3785967 13.48076952 -7 18 C-7.99857603 15.36960461 -8.09097144 14.24897447 -7.109375 11.5625 C-6.66078125 10.716875 -6.2121875 9.87125 -5.75 9 C-5.09257813 7.7315625 -5.09257813 7.7315625 -4.421875 6.4375 C-3.07606121 4.13039064 -1.74337522 2.02456477 0 0 Z " fill="#CDF8FC" transform="translate(93,262)"/>
<path d="M0 0 C0.33 0 0.66 0 1 0 C1.06058594 1.05960937 1.12117188 2.11921875 1.18359375 3.2109375 C1.26800127 4.59897221 1.35264917 5.98699232 1.4375 7.375 C1.47681641 8.07367188 1.51613281 8.77234375 1.55664062 9.4921875 C1.74280134 13.37360492 1.74280134 13.37360492 3 17 C3.04022391 19.3329866 3.04320247 21.66706666 3 24 C0.60815594 20.41223391 -0.12754433 17.98375055 -0.09765625 13.76953125 C-0.09282227 12.56586914 -0.09282227 12.56586914 -0.08789062 11.33789062 C-0.07951172 10.50451172 -0.07113281 9.67113281 -0.0625 8.8125 C-0.05798828 7.96751953 -0.05347656 7.12253906 -0.04882812 6.25195312 C-0.03705403 4.16793845 -0.0191189 2.08396023 0 0 Z " fill="#E1FCFE" transform="translate(84,280)"/>
<path d="M0 0 C2.47186455 2.96346786 3.66248361 5.54041689 4.6875 9.25 C4.93886719 10.14203125 5.19023437 11.0340625 5.44921875 11.953125 C5.72185547 12.96632812 5.72185547 12.96632812 6 14 C5.34 14 4.68 14 4 14 C0.55064383 9.72279835 0.3336727 5.28123341 0 0 Z " fill="#D8F2FD" transform="translate(368,207)"/>
<path d="M0 0 C0.33 0 0.66 0 1 0 C1 7.59 1 15.18 1 23 C0.01 22.34 -0.98 21.68 -2 21 C-1.84152588 20.42475586 -1.68305176 19.84951172 -1.51977539 19.25683594 C-1.02086674 17.09060223 -0.80111676 15.10677317 -0.68359375 12.890625 C-0.62075195 11.75947266 -0.62075195 11.75947266 -0.55664062 10.60546875 C-0.51732422 9.82816406 -0.47800781 9.05085937 -0.4375 8.25 C-0.39431641 7.45722656 -0.35113281 6.66445312 -0.30664062 5.84765625 C-0.20097009 3.89862185 -0.10002034 1.94933252 0 0 Z " fill="#DEF8FD" transform="translate(374,223)"/>
<path d="M0 0 C1.60876172 4.02190431 0.49934552 7.07314269 -1 11 C-3.125 12.9375 -3.125 12.9375 -5 14 C-5.66 13.67 -6.32 13.34 -7 13 C-6.36771484 11.96939453 -6.36771484 11.96939453 -5.72265625 10.91796875 C-5.17480469 10.01691406 -4.62695312 9.11585938 -4.0625 8.1875 C-3.51722656 7.29417969 -2.97195313 6.40085937 -2.41015625 5.48046875 C-0.88990422 2.99296438 -0.88990422 2.99296438 0 0 Z " fill="#DAF0FE" transform="translate(439,306)"/>
<path d="M0 0 C0 0.99 0 1.98 0 3 C-0.99 3 -1.98 3 -3 3 C-3.33 3.99 -3.66 4.98 -4 6 C-6.21593183 7.71054387 -8.46190652 8.75321724 -11 10 C-11.66 9.67 -12.32 9.34 -13 9 C-11.20966193 7.68568828 -9.41768797 6.3736047 -7.625 5.0625 C-6.62726563 4.33160156 -5.62953125 3.60070312 -4.6015625 2.84765625 C-2 1 -2 1 0 0 Z " fill="#D2F6FE" transform="translate(292,184)"/>
<path d="M0 0 C3.06273831 -0.05410136 6.12451452 -0.09372225 9.1875 -0.125 C10.48397461 -0.15013672 10.48397461 -0.15013672 11.80664062 -0.17578125 C16.32208103 -0.21038233 19.90081483 -0.15567916 24 2 C24 2.33 24 2.66 24 3 C21.69 3 19.38 3 17 3 C17 2.34 17 1.68 17 1 C11.39 1 5.78 1 0 1 C0 0.67 0 0.34 0 0 Z " fill="#EBFEFF" transform="translate(200,152)"/>
<path d="M0 0 C0.33 0 0.66 0 1 0 C1.44421949 2.58127542 1.85583123 5.16102784 2.25 7.75 C2.44335938 8.84441406 2.44335938 8.84441406 2.640625 9.9609375 C2.953125 12.109375 2.953125 12.109375 3 16 C1.046875 18.515625 1.046875 18.515625 -1 20 C-0.9278125 19.39414062 -0.855625 18.78828125 -0.78125 18.1640625 C-0.1075063 12.08165405 0.11713363 6.11697862 0 0 Z " fill="#2C6BE2" transform="translate(429,282)"/>
<path d="M0 0 C-0.875 3.875 -0.875 3.875 -2 5 C-4.33297433 5.04092937 -6.66705225 5.04241723 -9 5 C-4.32258065 0 -4.32258065 0 0 0 Z " fill="#50CDDB" transform="translate(103,240)"/>
<path d="M0 0 C1.65 0 3.3 0 5 0 C5 0.66 5 1.32 5 2 C7.475 2.99 7.475 2.99 10 4 C10 4.33 10 4.66 10 5 C4.60158311 5.49076517 4.60158311 5.49076517 1.625 3.0625 C0 1 0 1 0 0 Z " fill="#44B3DF" transform="translate(96,332)"/>
<path d="M0 0 C3.28788824 3.11016455 5.83735988 6.01618925 8 10 C7.01 10.495 7.01 10.495 6 11 C6 10.34 6 9.68 6 9 C5.01 9.33 4.02 9.66 3 10 C2.01 6.7 1.02 3.4 0 0 Z " fill="#4797D8" transform="translate(371,188)"/>
<path d="M0 0 C2.25 0.125 2.25 0.125 5 1 C7.375 3.875 7.375 3.875 9 7 C8.67 7.99 8.34 8.98 8 10 C6.66370254 8.52351062 5.33103329 7.0437367 4 5.5625 C3.2575 4.73878906 2.515 3.91507813 1.75 3.06640625 C0 1 0 1 0 0 Z " fill="#DAF6FD" transform="translate(369,185)"/>
<path d="M0 0 C0.66 1.32 1.32 2.64 2 4 C1.01 4.33 0.02 4.66 -1 5 C-1.62092718 6.81296615 -1.62092718 6.81296615 -2 9 C-2.6469365 10.6744239 -3.30959426 12.34302621 -4 14 C-4.66 14 -5.32 14 -6 14 C-4.50829734 9.0276578 -2.39542583 4.58154261 0 0 Z " fill="#57CBDE" transform="translate(134,178)"/>
<path d="M0 0 C0.33 0.66 0.66 1.32 1 2 C1.99 2 2.98 2 4 2 C2.31326082 6.49797113 0.18326108 10.72886302 -2 15 C-3.04449911 11.86650268 -2.93423645 11.01031744 -2 8 C-1.34 8 -0.68 8 0 8 C0 5.36 0 2.72 0 0 Z " fill="#50CBDF" transform="translate(144,180)"/>
<path d="M0 0 C6.16456476 0.37742233 9.17375515 2.15870308 14 6 C13.01 6.33 12.02 6.66 11 7 C11 6.34 11 5.68 11 5 C9.02 5 7.04 5 5 5 C5 4.01 5 3.02 5 2 C3.35 1.67 1.7 1.34 0 1 C0 0.67 0 0.34 0 0 Z " fill="#DCFAFD" transform="translate(235,159)"/>
<path d="M0 0 C4.95 0.99 9.9 1.98 15 3 C15 3.33 15 3.66 15 4 C13.25542045 4.30379747 11.50371757 4.56688772 9.75 4.8125 C8.77546875 4.96332031 7.8009375 5.11414063 6.796875 5.26953125 C5.87390625 5.18058594 4.9509375 5.09164063 4 5 C2.68 3.35 1.36 1.7 0 0 Z " fill="#DBF6FE" transform="translate(100,337)"/>
<path d="M0 0 C0.66 0.33 1.32 0.66 2 1 C2.25 3.75 2.25 3.75 2 7 C0 9.375 0 9.375 -2 11 C-2.66 10.34 -3.32 9.68 -4 9 C-3.01 9 -2.02 9 -1 9 C-1.020625 7.88625 -1.04125 6.7725 -1.0625 5.625 C-1 2 -1 2 0 0 Z " fill="#4083D7" transform="translate(318,330)"/>
<path d="M0 0 C1.32 0.33 2.64 0.66 4 1 C4.66 3.64 5.32 6.28 6 9 C4.02 9.99 4.02 9.99 2 11 C2.04125 10.113125 2.0825 9.22625 2.125 8.3125 C2.00102754 5.02722987 1.38612096 2.94550705 0 0 Z " fill="#DCF7FD" transform="translate(264,327)"/>
<path d="M0 0 C1.32 0.33 2.64 0.66 4 1 C2.85793642 2.50287218 1.71125043 4.00223284 0.5625 5.5 C-0.39462891 6.75296875 -0.39462891 6.75296875 -1.37109375 8.03125 C-1.90863281 8.6809375 -2.44617188 9.330625 -3 10 C-3.33 10 -3.66 10 -4 10 C-4 8.35 -4 6.7 -4 5 C-2.68 4.67 -1.36 4.34 0 4 C0 2.68 0 1.36 0 0 Z " fill="#4FC7E1" transform="translate(152,172)"/>
<path d="M0 0 C7.66742597 5.96583144 7.66742597 5.96583144 9 11 C8.01 10.67 7.02 10.34 6 10 C5.3125 7.9375 5.3125 7.9375 5 6 C4.34 6 3.68 6 3 6 C0 2.53846154 0 2.53846154 0 0 Z " fill="#4780D5" transform="translate(425,250)"/>
<path d="M0 0 C1.18414294 3.55242882 0.69535532 4.69830562 -0.4375 8.1875 C-0.72496094 9.08855469 -1.01242188 9.98960937 -1.30859375 10.91796875 C-1.53675781 11.60503906 -1.76492187 12.29210937 -2 13 C-2.33 13 -2.66 13 -3 13 C-3.0270043 11.54176788 -3.04639787 10.08339325 -3.0625 8.625 C-3.07410156 7.81289062 -3.08570313 7.00078125 -3.09765625 6.1640625 C-3 4 -3 4 -2 2 C-1.34 2 -0.68 2 0 2 C0 1.34 0 0.68 0 0 Z " fill="#50C9D9" transform="translate(140,195)"/>
<path d="M0 0 C3.5051418 0.64910033 6.15174779 1.84456589 9 4 C9.8125 6.6875 9.8125 6.6875 10 9 C8.70391053 8.06862408 7.41328368 7.1296434 6.125 6.1875 C5.40570313 5.66542969 4.68640625 5.14335937 3.9453125 4.60546875 C2 3 2 3 0 0 Z " fill="#D6F3FD" transform="translate(359,176)"/>
<path d="M0 0 C0.33 0.66 0.66 1.32 1 2 C0.22265625 3.9453125 0.22265625 3.9453125 -0.9375 6.125 C-1.31777344 6.84945312 -1.69804687 7.57390625 -2.08984375 8.3203125 C-2.39019531 8.87460938 -2.69054687 9.42890625 -3 10 C-3.99 9.34 -4.98 8.68 -6 8 C-6 7.34 -6 6.68 -6 6 C-5.34 6 -4.68 6 -4 6 C-3.71125 5.38125 -3.4225 4.7625 -3.125 4.125 C-2 2 -2 2 0 0 Z " fill="#5CD8E6" transform="translate(148,160)"/>
<path d="M0 0 C1.875 0.25 1.875 0.25 4 1 C5.25 3.0625 5.25 3.0625 6 5 C2 5 2 5 0 4 C0 2.68 0 1.36 0 0 Z " fill="#28B9F4" transform="translate(262,164)"/>
<path d="M0 0 C-1 3 -1 3 -2.77734375 4.203125 C-3.49019531 4.54859375 -4.20304688 4.8940625 -4.9375 5.25 C-6.00291016 5.78367188 -6.00291016 5.78367188 -7.08984375 6.328125 C-8.03537109 6.66070312 -8.03537109 6.66070312 -9 7 C-9.66 6.67 -10.32 6.34 -11 6 C-9.54550599 4.9944239 -8.08627557 3.99569565 -6.625 3 C-5.40683594 2.1646875 -5.40683594 2.1646875 -4.1640625 1.3125 C-2 0 -2 0 0 0 Z " fill="#5ED1DB" transform="translate(168,147)"/>
<path d="M0 0 C3.18005028 3.88672813 6.10554447 7.89952133 9 12 C7.1015625 11.65234375 7.1015625 11.65234375 5 11 C3.375 8.5625 3.375 8.5625 2 6 C1.34 5.34 0.68 4.68 0 4 C0 2.68 0 1.36 0 0 Z " fill="#53BED9" transform="translate(87,306)"/>
<path d="M0 0 C0.66 0.66 1.32 1.32 2 2 C1.625 4.125 1.625 4.125 1 6 C0.34 6 -0.32 6 -1 6 C-1 6.66 -1 7.32 -1 8 C-1.66 8 -2.32 8 -3 8 C-2.25 2.25 -2.25 2.25 0 0 Z " fill="#2977F4" transform="translate(426,258)"/>
<path d="M0 0 C0 0.66 0 1.32 0 2 C-0.598125 2.268125 -1.19625 2.53625 -1.8125 2.8125 C-4.0299713 3.87296728 -4.0299713 3.87296728 -5.5 5.5625 C-7.27460185 7.26316011 -8.61006256 7.58794182 -11 8 C-8.21659292 4.18570141 -5.12174212 0 0 0 Z " fill="#D5FCFF" transform="translate(106,254)"/>
<path d="M0 0 C5.23175837 -0.38281159 8.37802694 0.78145293 13 3 C13 3.66 13 4.32 13 5 C11.39402675 4.54803755 9.79027492 4.08817673 8.1875 3.625 C6.84751953 3.24214844 6.84751953 3.24214844 5.48046875 2.8515625 C3 2 3 2 0 0 Z " fill="#D6F1FE" transform="translate(402,237)"/>
<path d="M0 0 C0.66 0.33 1.32 0.66 2 1 C0.875 3.4375 0.875 3.4375 -1 6 C-4.1875 6.8125 -4.1875 6.8125 -7 7 C-4.66666667 4.66666667 -2.33333333 2.33333333 0 0 Z " fill="#D0FAFD" transform="translate(165,164)"/>
<path d="M0 0 C0.66 0 1.32 0 2 0 C2 2.97 2 5.94 2 9 C1.01 8.01 0.02 7.02 -1 6 C-0.6875 2.8125 -0.6875 2.8125 0 0 Z " fill="#5384D7" transform="translate(351,330)"/>
<path d="M0 0 C0.33 0.66 0.66 1.32 1 2 C3.01669827 3.13350534 3.01669827 3.13350534 5 4 C4.67 4.66 4.34 5.32 4 6 C3.34 6 2.68 6 2 6 C2 6.66 2 7.32 2 8 C1.34 8 0.68 8 0 8 C-0.38063221 5.6739143 -0.71269945 3.33944736 -1 1 C-0.67 0.67 -0.34 0.34 0 0 Z " fill="#337EEF" transform="translate(353,328)"/>
<path d="M0 0 C2.31 0.66 4.62 1.32 7 2 C7.33 3.32 7.66 4.64 8 6 C4.08597051 4.73058503 2.20927127 3.48832306 0 0 Z " fill="#D5F7FD" transform="translate(94,315)"/>
<path d="M0 0 C2.475 0.495 2.475 0.495 5 1 C4.1875 2.9375 4.1875 2.9375 3 5 C2.01 5.33 1.02 5.66 0 6 C0 4.02 0 2.04 0 0 Z " fill="#4AC9E7" transform="translate(160,162)"/>
<path d="M0 0 C4.78504172 2.48454089 7.86077669 4.47951843 11 9 C6.39860359 7.51131293 3.49772906 5.25370145 0 2 C0 1.34 0 0.68 0 0 Z " fill="#60BCD7" transform="translate(254,152)"/>
<path d="M0 0 C1.32 0.66 2.64 1.32 4 2 C1.03 4.475 1.03 4.475 -2 7 C-1.125 1.125 -1.125 1.125 0 0 Z " fill="#3169D8" transform="translate(427,320)"/>
<path d="M0 0 C0.33 0 0.66 0 1 0 C1.99 4.29 2.98 8.58 4 13 C0 9 0 9 -0.390625 6.640625 C-0.34421875 5.85171875 -0.2978125 5.0628125 -0.25 4.25 C-0.21390625 3.45078125 -0.1778125 2.6515625 -0.140625 1.828125 C-0.09421875 1.22484375 -0.0478125 0.6215625 0 0 Z " fill="#56C0D7" transform="translate(83,293)"/>
<path d="M0 0 C0.66 0 1.32 0 2 0 C2 2.31 2 4.62 2 7 C0.35 6.01 -1.3 5.02 -3 4 C-1.625 2 -1.625 2 0 0 Z " fill="#2497F1" transform="translate(367,189)"/>
<path d="M0 0 C0.66 0.33 1.32 0.66 2 1 C2 1.66 2 2.32 2 3 C1.05125 3.309375 0.1025 3.61875 -0.875 3.9375 C-3.86080408 4.87394742 -3.86080408 4.87394742 -6 6 C-6.66 5.34 -7.32 4.68 -8 4 C-6.71349294 3.30289269 -5.42059335 2.61757124 -4.125 1.9375 C-3.40570313 1.55464844 -2.68640625 1.17179688 -1.9453125 0.77734375 C-1.30335938 0.52082031 -0.66140625 0.26429688 0 0 Z " fill="#DBFCFD" transform="translate(180,156)"/>
<path d="M0 0 C0.33 0.66 0.66 1.32 1 2 C-0.6875 4.0625 -0.6875 4.0625 -3 6 C-5.75 5.75 -5.75 5.75 -8 5 C-8 4.67 -8 4.34 -8 4 C-6.576875 3.566875 -6.576875 3.566875 -5.125 3.125 C-1.94788422 2.23174891 -1.94788422 2.23174891 0 0 Z " fill="#DFF4FD" transform="translate(265,338)"/>
<path d="M0 0 C3.96 1.98 3.96 1.98 8 4 C3.70600835 5.07349791 2.80504787 4.79682816 -1 3 C-0.67 2.01 -0.34 1.02 0 0 Z " fill="#E0FCFE" transform="translate(92,332)"/>
<path d="M0 0 C1.98 0.66 3.96 1.32 6 2 C6 3.65 6 5.3 6 7 C5.34 7 4.68 7 4 7 C2.02 3.535 2.02 3.535 0 0 Z " fill="#387AD9" transform="translate(420,264)"/>
<path d="M0 0 C0.66 0 1.32 0 2 0 C1.44271087 3.34373475 0.64826111 6.03312999 -1 9 C-1.33 9 -1.66 9 -2 9 C-2.20140476 5.37471432 -1.85776765 3.13498292 0 0 Z " fill="#2192F8" transform="translate(380,208)"/>
<path d="M0 0 C2.97 0.33 5.94 0.66 9 1 C8.34 2.32 7.68 3.64 7 5 C6.01 4.67 5.02 4.34 4 4 C4.33 3.67 4.66 3.34 5 3 C3.35 2.67 1.7 2.34 0 2 C0 1.34 0 0.68 0 0 Z " fill="#E8FAFC" transform="translate(272,193)"/>
<path d="M0 0 C1.15224028 0.92961422 2.29659176 1.8690125 3.4375 2.8125 C4.07558594 3.33457031 4.71367187 3.85664063 5.37109375 4.39453125 C7 6 7 6 8 9 C6.1875 8.8125 6.1875 8.8125 4 8 C2.12723402 5.36425528 1.02335831 3.07007492 0 0 Z " fill="#5DB4D6" transform="translate(265,161)"/>
<path d="M0 0 C0.66 0.33 1.32 0.66 2 1 C2 1.99 2 2.98 2 4 C-0.31 4.66 -2.62 5.32 -5 6 C-3.35 4.02 -1.7 2.04 0 0 Z " fill="#52D2DF" transform="translate(155,154)"/>
<path d="M0 0 C0.33 0.99 0.66 1.98 1 3 C-1.40339772 5.76390737 -2.16263678 6.04065919 -6 7 C-4.02 4.69 -2.04 2.38 0 0 Z " fill="#D8EBFE" transform="translate(429,323)"/>
<path d="M0 0 C5.57142857 5.14285714 5.57142857 5.14285714 6 9 C5.34 9 4.68 9 4 9 C0 2.25 0 2.25 0 0 Z " fill="#D5F2FE" transform="translate(418,263)"/>
<path d="M0 0 C0.33 0 0.66 0 1 0 C1 3.63 1 7.26 1 11 C0.01 10.34 -0.98 9.68 -2 9 C-2 7.68 -2 6.36 -2 5 C-1.34 5 -0.68 5 0 5 C0 3.35 0 1.7 0 0 Z " fill="#2E88E8" transform="translate(386,219)"/>
<path d="M0 0 C2.475 0.495 2.475 0.495 5 1 C5 2.65 5 4.3 5 6 C3.2925002 4.71937515 1.62626404 3.38232443 0 2 C0 1.34 0 0.68 0 0 Z " fill="#3E99DA" transform="translate(354,188)"/>
<path d="M0 0 C1.32 0 2.64 0 4 0 C4 0.99 4 1.98 4 3 C4.66 3.33 5.32 3.66 6 4 C2 4 2 4 0 3 C0 2.01 0 1.02 0 0 Z " fill="#2DB5F2" transform="translate(261,173)"/>
<path d="M0 0 C0.33 0 0.66 0 1 0 C1.25 2.8125 1.25 2.8125 1 6 C-1 7.875 -1 7.875 -3 9 C-2.01 6.03 -1.02 3.06 0 0 Z " fill="#D1F9FC" transform="translate(143,191)"/>
<path d="M0 0 C6.875 3.75 6.875 3.75 8 6 C5.5625 5.625 5.5625 5.625 3 5 C2.67 4.34 2.34 3.68 2 3 C1.01 2.34 0.02 1.68 -1 1 C-0.67 0.67 -0.34 0.34 0 0 Z " fill="#D6F2FD" transform="translate(348,186)"/>
<path d="M0 0 C2.97 0.495 2.97 0.495 6 1 C5.67 2.32 5.34 3.64 5 5 C3.35 3.35 1.7 1.7 0 0 Z " fill="#52BEE5" transform="translate(248,164)"/>
<path d="M0 0 C-2.97 1.32 -5.94 2.64 -9 4 C-9 3.01 -9 2.02 -9 1 C-3.375 -1.125 -3.375 -1.125 0 0 Z " fill="#DFFCFE" transform="translate(174,144)"/>
<path d="M0 0 C2.97 0.495 2.97 0.495 6 1 C6 2.32 6 3.64 6 5 C3.5625 4.1875 3.5625 4.1875 1 3 C0.67 2.01 0.34 1.02 0 0 Z " fill="#E3F5FD" transform="translate(234,139)"/>
</svg>
