<?xml version="1.0" encoding="utf-8"?>
<!-- Generator: Adobe Illustrator 24.0.1, SVG Export Plug-In . SVG Version: 6.00 Build 0)  -->
<svg version="1.1" id="Layer_1" xmlns="http://www.w3.org/2000/svg" xmlns:xlink="http://www.w3.org/1999/xlink" x="0px" y="0px"
	 viewBox="0 0 16 16" style="enable-background:new 0 0 16 16;" xml:space="preserve">
<style type="text/css">
	.st0{fill:#666666;}
</style>
<path class="st0" d="M9.5,4.2c0-0.2,0-0.3-0.2-0.4C9.1,3.8,9,3.9,8.9,4l-2.4,7.8c0,0.2,0,0.3,0.2,0.4c0.2,0,0.3,0,0.4-0.2L9.5,4.2z
	 M6.1,5.7c0.1,0.1,0.1,0.3,0,0.4c0,0,0,0,0,0L4.2,8l1.9,1.9c0.1,0.1,0.1,0.3,0,0.4c-0.1,0.1-0.3,0.1-0.4,0L3.6,8.2
	c-0.1-0.1-0.1-0.3,0-0.4c0,0,0,0,0,0l2.1-2.1C5.8,5.6,6,5.6,6.1,5.7C6.1,5.7,6.1,5.7,6.1,5.7 M9.9,5.7C9.8,5.8,9.8,6,9.9,6.1
	c0,0,0,0,0,0L11.8,8L9.9,9.9c-0.1,0.1-0.1,0.3,0,0.4s0.3,0.1,0.4,0l2.1-2.1c0.1-0.1,0.1-0.3,0-0.4c0,0,0,0,0,0l-2.1-2.1
	C10.2,5.6,10,5.6,9.9,5.7C9.9,5.7,9.9,5.7,9.9,5.7"/>
</svg>
