<?xml version="1.0" encoding="utf-8"?>
<!-- Generator: Adobe Illustrator 24.0.1, SVG Export Plug-In . SVG Version: 6.00 Build 0)  -->
<svg version="1.1" id="Layer_1" xmlns="http://www.w3.org/2000/svg" xmlns:xlink="http://www.w3.org/1999/xlink" x="0px" y="0px"
	 viewBox="0 0 16 16" style="enable-background:new 0 0 16 16;" xml:space="preserve">
<style type="text/css">
	.st0{fill:#666666;}
</style>
<path class="st0" d="M3.9,4.9c0-0.6,0.5-1,1-1h6.2c0.6,0,1,0.5,1,1v6.2c0,0.6-0.5,1-1,1H4.9c-0.6,0-1-0.5-1-1V4.9z M11.6,5.9H9.5
	v1.5h2.1V5.9z M11.6,8H9.5v1.5h2.1V8z M11.6,10.1H9.5v1.5h1.5c0.3,0,0.5-0.2,0.5-0.5V10.1z M9,11.6v-1.5H7v1.5H9z M6.5,11.6v-1.5
	H4.4v1c0,0.3,0.2,0.5,0.5,0.5H6.5z M4.4,9.5h2.1V8H4.4V9.5z M4.4,7.5h2.1V5.9H4.4V7.5z M7,5.9v1.5H9V5.9H7z M9,8H7v1.5H9V8z"/>
</svg>
