<svg width="108" height="37" viewBox="0 0 108 37" fill="none" xmlns="http://www.w3.org/2000/svg">
<path d="M42.2339 8.5495L41.4067 8.41509V7.77482H43.7827L46.9014 12.4215L47.4873 13.5985V8.5495L46.5874 8.41509V7.77482H49.1826V8.41509L48.377 8.5495V15.447H47.1104L43.856 10.5628L43.123 9.19989V14.7239L44.1802 14.8275V15.447H41.4067V14.8275L42.2339 14.7239V8.5495ZM50.2788 12.5867C50.2788 11.9397 50.4077 11.3891 50.666 10.9348C50.9312 10.4804 51.2832 10.1393 51.7227 9.91243C52.1621 9.67829 52.6401 9.56122 53.1567 9.56122C54.0356 9.56122 54.7124 9.82957 55.1865 10.3667C55.668 10.8967 55.9087 11.6193 55.9087 12.5352C55.9087 13.189 55.7764 13.7468 55.5112 14.2079C55.2529 14.6622 54.9043 15.0028 54.4648 15.2302C54.0322 15.4504 53.5542 15.5607 53.0308 15.5607C52.1587 15.5607 51.4819 15.2953 51.0005 14.7653C50.5195 14.2286 50.2788 13.5021 50.2788 12.5867ZM53.1147 14.8891C53.9028 14.8891 54.2974 14.139 54.2974 12.6383C54.2974 11.8535 54.2031 11.258 54.0146 10.8519C53.8262 10.439 53.5195 10.2323 53.0938 10.2323C52.2842 10.2323 51.8799 10.9829 51.8799 12.4836C51.8799 13.268 51.9775 13.8673 52.1729 14.2802C52.375 14.6863 52.689 14.8891 53.1147 14.8891ZM56.6611 9.71635H59.3613V10.3046L58.6289 10.4289L59.4033 13.1755L59.6543 14.3009L59.8848 13.1649L60.8267 9.71635H62.0928L63.1289 13.1649L63.3799 14.3009L63.6313 13.1755L64.3638 10.439L63.5996 10.3046V9.71635H65.8394V10.3046L65.3057 10.4183L63.7148 15.5294H62.5112L61.4546 12.184L61.2139 10.9555L61.0254 12.184L60.0522 15.5294H58.8379L57.1636 10.4183L56.6611 10.3046V9.71635Z" fill="#000334"/>
<path d="M41.7192 28.2429C41.6611 28.2429 41.6167 28.2096 41.5859 28.1422C41.5591 28.0752 41.5454 28.0232 41.5454 27.9861C41.5454 27.8753 41.6016 27.8126 41.7139 27.7996C41.8774 27.7861 42.041 27.7572 42.2046 27.7139C42.3716 27.6667 42.4551 27.5876 42.4551 27.4768V22.0217C42.4551 21.8772 42.4106 21.7727 42.3223 21.7091C42.2368 21.645 42.1348 21.6031 42.0156 21.5829C41.896 21.5592 41.7837 21.5424 41.6782 21.5323C41.6064 21.5255 41.5571 21.5125 41.5298 21.4923C41.5063 21.4687 41.4941 21.42 41.4941 21.3458C41.4941 21.3087 41.5078 21.2567 41.5352 21.1897C41.5659 21.1223 41.6099 21.0886 41.668 21.0886H45.0713C45.7661 21.0919 46.3657 21.1897 46.8696 21.381C47.3774 21.5727 47.7949 21.8314 48.1216 22.1576C48.4487 22.4838 48.6909 22.8518 48.8472 23.2618C49.0073 23.6684 49.0874 24.0885 49.0874 24.5221C49.0874 25.0468 49.0093 25.5122 48.8525 25.9188C48.6992 26.3254 48.4932 26.6752 48.2344 26.9676C47.9751 27.26 47.6841 27.5004 47.3604 27.6883C47.04 27.8767 46.7114 28.0164 46.374 28.107C46.0371 28.1976 45.7148 28.2429 45.4087 28.2429H41.7192ZM43.9829 27.3959C43.9829 27.4431 44.0098 27.4937 44.0645 27.5472C44.1191 27.5978 44.2212 27.6416 44.3711 27.6782C44.5244 27.7153 44.749 27.7336 45.0454 27.7336C45.3555 27.7336 45.6484 27.7018 45.9248 27.6382C46.2007 27.5708 46.4424 27.433 46.6504 27.2244C46.8579 27.0129 47.0215 26.6935 47.1406 26.2666C47.2598 25.8398 47.3198 25.265 47.3198 24.5424C47.3198 23.917 47.2549 23.4112 47.1255 23.0248C46.9961 22.635 46.8223 22.3359 46.604 22.1273C46.3862 21.9158 46.1377 21.7712 45.8579 21.6937C45.5786 21.6166 45.291 21.578 44.9946 21.578H43.9878L43.9829 27.3959ZM50.4058 28.2429C50.3477 28.2429 50.3032 28.2178 50.2725 28.1672C50.2456 28.1171 50.2319 28.0733 50.2319 28.0362C50.2319 27.922 50.2881 27.8598 50.4004 27.8497C50.5264 27.8362 50.6558 27.8093 50.7886 27.7693C50.9219 27.7288 50.9883 27.6599 50.9883 27.5626L50.9932 24.3208C50.9932 24.1121 50.9487 23.971 50.8604 23.8968C50.772 23.8197 50.668 23.7744 50.5488 23.7609C50.4292 23.7474 50.3237 23.7291 50.2319 23.7055C50.1978 23.6887 50.1689 23.667 50.145 23.64C50.1211 23.613 50.1094 23.5677 50.1094 23.5037C50.1094 23.4632 50.1191 23.4179 50.1396 23.3678C50.1602 23.3139 50.1909 23.2854 50.2319 23.2821C50.6748 23.2551 51.0747 23.2382 51.4326 23.2315C51.79 23.2214 52.0645 23.2165 52.2554 23.2165C52.2827 23.2165 52.3135 23.23 52.3472 23.2565C52.3848 23.2835 52.4053 23.3375 52.4087 23.4179V27.3959C52.4087 27.5303 52.4429 27.6281 52.5107 27.6883C52.5825 27.749 52.666 27.7895 52.7612 27.8093C52.8599 27.8261 52.9502 27.8396 53.0322 27.8497C53.1035 27.8565 53.1514 27.87 53.1753 27.8902C53.2021 27.9104 53.2158 27.9591 53.2158 28.0362C53.2158 28.0733 53.2007 28.1171 53.1699 28.1672C53.1426 28.2178 53.1001 28.2429 53.0425 28.2429H50.4058ZM51.6729 22.4096C51.4307 22.4096 51.2266 22.3291 51.0596 22.1677C50.896 22.0063 50.8145 21.8016 50.8145 21.5525C50.8145 21.3039 50.896 21.0987 51.0596 20.9378C51.2266 20.7764 51.4307 20.6954 51.6729 20.6954C51.9111 20.6954 52.1138 20.7764 52.2808 20.9378C52.4478 21.0987 52.5312 21.3039 52.5312 21.5525C52.5312 21.8016 52.4478 22.0063 52.2808 22.1677C52.1138 22.3291 51.9111 22.4096 51.6729 22.4096ZM56.542 30.6532C56.2188 30.6532 55.9067 30.6242 55.6069 30.5674C55.3105 30.5134 55.0435 30.4296 54.8047 30.3154C54.5698 30.2008 54.3823 30.0548 54.2427 29.8765C54.103 29.7017 54.0332 29.495 54.0332 29.2565C54.0332 28.9674 54.1201 28.7371 54.2939 28.5656C54.4707 28.3941 54.7026 28.265 54.9888 28.1773C54.7061 28.0598 54.5234 27.922 54.4419 27.764C54.3604 27.606 54.3193 27.4383 54.3193 27.26C54.3193 27.0177 54.4165 26.8062 54.6108 26.6246C54.8047 26.443 55.021 26.3172 55.2598 26.2464C54.9224 26.0951 54.6821 25.8851 54.5391 25.6162C54.396 25.3474 54.3242 25.0699 54.3242 24.7842C54.3242 24.4653 54.4062 24.181 54.5698 23.9324C54.7334 23.6839 54.9785 23.4887 55.3057 23.3476C55.6357 23.203 56.043 23.1308 56.5269 23.1308C56.8813 23.1308 57.1724 23.1693 57.4004 23.2469C57.6289 23.324 57.8281 23.43 57.9985 23.5644C58.104 23.4468 58.2334 23.3442 58.3867 23.2565C58.54 23.166 58.7036 23.1207 58.8774 23.1207C59.0918 23.1207 59.2793 23.1843 59.4395 23.3124C59.603 23.4401 59.6846 23.6415 59.6846 23.917C59.6846 24.1223 59.6455 24.2784 59.5674 24.3863C59.4922 24.4937 59.3813 24.5477 59.2349 24.5477L58.6323 23.6805C58.5503 23.6839 58.4805 23.6969 58.4229 23.7205C58.3647 23.7407 58.3066 23.7759 58.249 23.8265C58.4497 24.0953 58.5503 24.4113 58.5503 24.7741C58.5503 25.0868 58.4756 25.3725 58.3257 25.6317C58.1792 25.8904 57.9492 26.0951 57.6357 26.2464C57.3257 26.3943 56.9238 26.4685 56.4297 26.4685C56.2559 26.4685 56.0991 26.4617 55.9595 26.4483C55.8198 26.4314 55.6924 26.4063 55.5762 26.3726C55.4844 26.4295 55.4131 26.5037 55.3618 26.5942C55.3105 26.6819 55.2852 26.7744 55.2852 26.8717C55.2852 27.0196 55.3618 27.1189 55.5151 27.169C55.6685 27.2196 55.8623 27.2446 56.0977 27.2446H57.4365C57.7974 27.2446 58.1128 27.302 58.3818 27.4161C58.6543 27.5303 58.8657 27.7052 59.0151 27.9408C59.165 28.1725 59.2402 28.4664 59.2402 28.8229C59.2402 29.1086 59.1416 29.3909 58.9438 29.6699C58.7461 29.9522 58.4482 30.1858 58.0493 30.3708C57.6509 30.5587 57.1484 30.6532 56.542 30.6532ZM56.6802 30.1589C56.8643 30.1589 57.041 30.1386 57.2114 30.0986C57.3853 30.0582 57.5386 29.996 57.6714 29.9117C57.8042 29.8279 57.9102 29.7238 57.9883 29.5995C58.0664 29.4781 58.106 29.337 58.106 29.1756C58.106 29.0349 58.0752 28.9067 58.0137 28.7926C57.9526 28.6817 57.8535 28.5926 57.7173 28.5257C57.5811 28.4582 57.4038 28.4245 57.186 28.4245H56.2251C56.147 28.4245 56.0518 28.4197 55.939 28.4095C55.8301 28.4028 55.7246 28.3908 55.6226 28.3744C55.52 28.3575 55.4434 28.3387 55.3926 28.3185C55.3516 28.3994 55.314 28.49 55.2798 28.5912C55.2495 28.6952 55.2339 28.8431 55.2339 29.0349C55.2339 29.3105 55.3105 29.5306 55.4639 29.6949C55.6172 29.8597 55.8062 29.9777 56.0312 30.048C56.2559 30.1218 56.4722 30.1589 56.6802 30.1589ZM56.4502 26.0147C56.6514 26.0147 56.8081 25.9573 56.9204 25.8432C57.0361 25.7256 57.1162 25.5724 57.1606 25.3845C57.208 25.1928 57.2319 24.9875 57.2319 24.7693C57.2319 24.4431 57.1758 24.1642 57.0635 23.9324C56.9546 23.7002 56.748 23.5846 56.4453 23.5846C56.2441 23.5846 56.0889 23.64 55.98 23.7508C55.8745 23.8616 55.8013 24.0095 55.7603 24.1945C55.7192 24.3762 55.6992 24.5775 55.6992 24.7996C55.6992 25.0145 55.7192 25.2164 55.7603 25.4047C55.8013 25.5893 55.876 25.7372 55.9854 25.848C56.0942 25.9593 56.249 26.0147 56.4502 26.0147ZM60.5732 28.2429C60.5156 28.2429 60.4712 28.2178 60.4404 28.1672C60.4136 28.1171 60.3999 28.0733 60.3999 28.0362C60.3999 27.922 60.4561 27.8598 60.5684 27.8497C60.6943 27.8362 60.8237 27.8093 60.9565 27.7693C61.0894 27.7288 61.1558 27.6599 61.1558 27.5626L61.1611 24.3208C61.1611 24.1121 61.1167 23.971 61.0283 23.8968C60.9395 23.8197 60.8359 23.7744 60.7163 23.7609C60.5972 23.7474 60.4917 23.7291 60.3999 23.7055C60.3657 23.6887 60.3369 23.667 60.313 23.64C60.2891 23.613 60.2769 23.5677 60.2769 23.5037C60.2769 23.4632 60.2871 23.4179 60.3076 23.3678C60.3281 23.3139 60.3589 23.2854 60.3999 23.2821C60.8428 23.2551 61.2427 23.2382 61.6006 23.2315C61.9585 23.2214 62.2324 23.2165 62.4233 23.2165C62.4507 23.2165 62.481 23.23 62.5151 23.2565C62.5527 23.2835 62.5732 23.3375 62.5767 23.4179V27.3959C62.5767 27.5303 62.6108 27.6281 62.6787 27.6883C62.7505 27.749 62.834 27.7895 62.9292 27.8093C63.0278 27.8261 63.1182 27.8396 63.2002 27.8497C63.2715 27.8565 63.3193 27.87 63.3433 27.8902C63.3701 27.9104 63.3838 27.9591 63.3838 28.0362C63.3838 28.0733 63.3687 28.1171 63.3379 28.1672C63.3105 28.2178 63.2681 28.2429 63.21 28.2429H60.5732ZM61.8408 22.4096C61.5991 22.4096 61.3945 22.3291 61.2275 22.1677C61.064 22.0063 60.9824 21.8016 60.9824 21.5525C60.9824 21.3039 61.064 21.0987 61.2275 20.9378C61.3945 20.7764 61.5991 20.6954 61.8408 20.6954C62.0791 20.6954 62.2817 20.7764 62.4487 20.9378C62.6157 21.0987 62.6992 21.3039 62.6992 21.5525C62.6992 21.8016 62.6157 22.0063 62.4487 22.1677C62.2817 22.3291 62.0791 22.4096 61.8408 22.4096ZM66.3677 28.3941C66.0747 28.3941 65.814 28.3556 65.5859 28.2785C65.3574 28.2043 65.1787 28.0752 65.0493 27.8902C64.9199 27.7018 64.855 27.4446 64.855 27.1189V23.746H64.293C64.2559 23.7426 64.2251 23.7171 64.2012 23.6704C64.1807 23.6232 64.1704 23.5793 64.1704 23.5388C64.1704 23.4078 64.2148 23.3322 64.3032 23.3124C64.5723 23.2686 64.7886 23.1977 64.9521 23.1004C65.1191 23.0031 65.2539 22.8552 65.356 22.6567C65.4614 22.4587 65.5518 22.1894 65.627 21.8502C65.6406 21.7963 65.6709 21.7544 65.7188 21.724C65.77 21.6937 65.8535 21.6787 65.9692 21.6787C66.0918 21.6787 66.1733 21.6922 66.2144 21.7192C66.2588 21.7457 66.2808 21.7847 66.2808 21.8348V23.2315H67.5278C67.5684 23.2348 67.5991 23.2551 67.6196 23.2922C67.6401 23.3259 67.6504 23.3625 67.6504 23.403C67.6504 23.5003 67.6348 23.5812 67.6045 23.6448C67.5737 23.7089 67.5396 23.7407 67.502 23.7407H66.2808V26.6954C66.2808 26.9811 66.2993 27.1993 66.3369 27.3506C66.3779 27.4985 66.436 27.6011 66.5107 27.658C66.5854 27.7119 66.6777 27.7389 66.7866 27.7389C66.9399 27.7389 67.0898 27.7172 67.2363 27.6734C67.3862 27.6296 67.5244 27.5727 67.6504 27.5019C67.6943 27.4749 67.7339 27.487 67.7676 27.5371C67.8052 27.5876 67.8291 27.645 67.8394 27.7086C67.853 27.7726 67.8477 27.8126 67.8242 27.8295C67.7456 27.9138 67.6211 27.9996 67.4512 28.0868C67.2842 28.1706 67.1035 28.2429 66.9092 28.3036C66.7153 28.3643 66.5347 28.3941 66.3677 28.3941ZM68.8711 27.023C68.8711 26.6867 68.9683 26.4112 69.1626 26.1963C69.3599 25.9776 69.6172 25.8046 69.9341 25.6769C70.251 25.5459 70.5933 25.4467 70.9609 25.3792C71.3291 25.3122 71.6851 25.2617 72.0293 25.2279V24.4113C72.0293 24.223 71.9966 24.0702 71.9321 23.9527C71.8672 23.8346 71.772 23.7474 71.646 23.6901C71.52 23.6299 71.3613 23.5995 71.1704 23.5995C71.0073 23.5995 70.8862 23.6097 70.8076 23.6299C70.7329 23.6468 70.6768 23.6651 70.6392 23.6853L69.8882 24.9962C69.6494 24.9962 69.4502 24.9374 69.29 24.8199C69.1333 24.6989 69.0552 24.5323 69.0552 24.3208C69.0552 24.1256 69.1265 23.9541 69.2695 23.8062C69.4126 23.6583 69.6001 23.534 69.832 23.4333C70.0635 23.3322 70.3154 23.2565 70.5879 23.2064C70.8608 23.1558 71.1279 23.1308 71.3901 23.1308C71.7788 23.1308 72.1055 23.1693 72.3716 23.2469C72.6406 23.324 72.855 23.4314 73.0151 23.5692C73.1787 23.7036 73.2964 23.8602 73.3677 24.0384C73.4429 24.2128 73.4805 24.4012 73.4805 24.6031V27.2398C73.4805 27.3708 73.499 27.485 73.5366 27.5828C73.5737 27.6801 73.6201 27.7288 73.6743 27.7288C73.7222 27.7288 73.7871 27.7206 73.8687 27.7038C73.9536 27.6869 74.0117 27.6748 74.0425 27.6686C74.1001 27.6652 74.1431 27.6951 74.1699 27.7592C74.2007 27.8194 74.2163 27.8782 74.2163 27.9355C74.2163 27.976 74.2061 28.0044 74.1855 28.0212C74.1172 28.0685 73.9604 28.1373 73.7153 28.2279C73.4702 28.3151 73.1704 28.359 72.8159 28.359C72.5435 28.359 72.3579 28.3185 72.2588 28.238C72.1636 28.1542 72.1162 27.9774 72.1162 27.7086V27.6281C71.8945 27.8767 71.6372 28.0617 71.3442 28.1826C71.0513 28.3002 70.7261 28.359 70.3682 28.359C70.1641 28.359 69.9443 28.3151 69.709 28.2279C69.4775 28.1373 69.2798 27.9943 69.1162 27.7996C68.9531 27.6045 68.8711 27.3458 68.8711 27.023ZM70.3989 26.9777C70.3989 27.1593 70.457 27.3222 70.5728 27.4667C70.6919 27.6113 70.8638 27.6835 71.0889 27.6835C71.3271 27.6835 71.5234 27.6397 71.6768 27.5525C71.833 27.4614 71.9492 27.3723 72.0239 27.2851V25.6162C71.7549 25.6567 71.4961 25.7169 71.2471 25.7979C70.9985 25.8749 70.7939 26.0045 70.6338 26.1862C70.4775 26.3639 70.3989 26.628 70.3989 26.9777ZM75.1455 28.2429C75.0879 28.2429 75.0435 28.2197 75.0127 28.1725C74.9824 28.1253 74.9668 28.08 74.9668 28.0362C74.9668 27.922 75.0229 27.8598 75.1357 27.8497C75.2617 27.8396 75.3911 27.8146 75.5239 27.7741C75.6567 27.7302 75.7231 27.6599 75.7231 27.5626L75.7285 21.5323C75.7285 21.3208 75.6772 21.1777 75.5752 21.104C75.4727 21.0264 75.355 20.9811 75.2222 20.9676C75.0894 20.9541 74.9756 20.9358 74.8799 20.9122C74.8462 20.8954 74.8169 20.8737 74.793 20.8467C74.7695 20.8197 74.7573 20.7744 74.7573 20.7108C74.7573 20.6704 74.7676 20.6232 74.7881 20.5697C74.8086 20.5157 74.8389 20.4873 74.8799 20.4839C75.3125 20.457 75.7183 20.4401 76.0962 20.4333C76.4741 20.4266 76.7588 20.4218 76.9497 20.4184C76.9766 20.4184 77.0073 20.4333 77.0415 20.4637C77.0791 20.4907 77.0996 20.5442 77.103 20.6251V27.3959C77.103 27.5269 77.1367 27.6247 77.2051 27.6883C77.2764 27.749 77.3599 27.7895 77.4556 27.8093C77.5542 27.8261 77.6445 27.8396 77.7261 27.8497C77.7979 27.8565 77.8452 27.8719 77.8691 27.895C77.8965 27.9152 77.9102 27.9605 77.9102 28.0314C77.9102 28.0752 77.895 28.1219 77.8643 28.1725C77.8335 28.2197 77.7891 28.2429 77.7314 28.2429H75.1455ZM82.1709 27.9861C82.1709 27.8753 82.2271 27.8126 82.3398 27.7996C82.5034 27.7861 82.6685 27.7572 82.8354 27.7139C83.0024 27.6667 83.0854 27.5876 83.0854 27.4768V22.0217C83.0854 21.8772 83.0415 21.7727 82.9526 21.7091C82.8677 21.645 82.7656 21.6031 82.646 21.5829C82.5269 21.5592 82.4146 21.5424 82.3091 21.5323C82.2373 21.5255 82.188 21.5125 82.1606 21.4923C82.1372 21.4687 82.125 21.42 82.125 21.3458C82.125 21.3087 82.1387 21.2567 82.166 21.1897C82.1968 21.1223 82.2407 21.0886 82.2988 21.0886H87.9453L88.124 22.7275C88.1309 22.7844 88.106 22.8282 88.0474 22.8586C87.9897 22.8856 87.9419 22.8986 87.9043 22.8986C87.8501 22.8986 87.7866 22.8904 87.7153 22.8735C87.6436 22.8533 87.5879 22.8065 87.5469 22.7324C87.4106 22.4804 87.3018 22.2703 87.2197 22.1022C87.1377 21.9307 87.0474 21.803 86.9487 21.7192C86.8501 21.6315 86.7085 21.5882 86.5249 21.5882H84.6084V24.3208H85.9219C86.0103 24.3073 86.0923 24.2432 86.167 24.129C86.2422 24.0148 86.3032 23.892 86.3511 23.7609C86.4019 23.6265 86.4312 23.5258 86.438 23.4584C86.4448 23.3914 86.4722 23.3476 86.5195 23.3273C86.5674 23.3071 86.6182 23.297 86.6729 23.297C86.7104 23.297 86.7632 23.3124 86.8315 23.3423C86.8994 23.3693 86.9336 23.4112 86.9336 23.4685V25.702C86.9336 25.7593 86.8994 25.8027 86.8315 25.833C86.7632 25.86 86.7104 25.8735 86.6729 25.8735C86.6182 25.8735 86.564 25.8619 86.5093 25.8383C86.458 25.8147 86.4292 25.7709 86.4224 25.7073C86.4189 25.6331 86.3921 25.5257 86.3408 25.3845C86.293 25.24 86.23 25.107 86.1519 24.9861C86.0732 24.8652 85.9863 24.8045 85.8911 24.8045H84.6084V27.2499C84.6084 27.4349 84.6562 27.5592 84.7515 27.6228C84.8506 27.6869 84.9561 27.724 85.0684 27.7336H86.54C86.8467 27.7336 87.104 27.6315 87.3115 27.4263C87.5195 27.221 87.7236 26.8664 87.9243 26.3625C87.9487 26.2984 87.9976 26.2551 88.0728 26.2315C88.1514 26.2079 88.2173 26.1963 88.2725 26.1963C88.3369 26.1963 88.3999 26.2112 88.4614 26.2416C88.5264 26.2686 88.562 26.3105 88.5688 26.3673L88.3491 28.2429H82.3447C82.2866 28.2429 82.2427 28.2096 82.2119 28.1422C82.1846 28.0752 82.1709 28.0232 82.1709 27.9861ZM89.8711 27.023C89.8711 26.6867 89.9688 26.4112 90.1621 26.1963C90.3604 25.9776 90.6172 25.8046 90.9341 25.6769C91.2505 25.5459 91.5933 25.4467 91.9614 25.3792C92.3296 25.3122 92.6851 25.2617 93.0298 25.2279V24.4113C93.0298 24.223 92.9966 24.0702 92.9321 23.9527C92.8672 23.8346 92.7725 23.7474 92.646 23.6901C92.5205 23.6299 92.3618 23.5995 92.1704 23.5995C92.0073 23.5995 91.8862 23.6097 91.8076 23.6299C91.7329 23.6468 91.6772 23.6651 91.6396 23.6853L90.8877 24.9962C90.6499 24.9962 90.4502 24.9374 90.2905 24.8199C90.1333 24.6989 90.0547 24.5323 90.0547 24.3208C90.0547 24.1256 90.1265 23.9541 90.2695 23.8062C90.4136 23.6583 90.6001 23.534 90.832 23.4333C91.064 23.3322 91.3159 23.2565 91.5879 23.2064C91.8608 23.1558 92.1279 23.1308 92.3906 23.1308C92.7783 23.1308 93.1055 23.1693 93.3716 23.2469C93.6411 23.324 93.8555 23.4314 94.0151 23.5692C94.1792 23.7036 94.2969 23.8602 94.3682 24.0384C94.4434 24.2128 94.481 24.4012 94.481 24.6031V27.2398C94.481 27.3708 94.499 27.485 94.5366 27.5828C94.5742 27.6801 94.6201 27.7288 94.6743 27.7288C94.7222 27.7288 94.7871 27.7206 94.8687 27.7038C94.9546 27.6869 95.0117 27.6748 95.0425 27.6686C95.1011 27.6652 95.1426 27.6951 95.1704 27.7592C95.2012 27.8194 95.2158 27.8782 95.2158 27.9355C95.2158 27.976 95.2065 28.0044 95.1855 28.0212C95.1172 28.0685 94.9604 28.1373 94.7153 28.2279C94.4702 28.3151 94.1704 28.359 93.8164 28.359C93.5435 28.359 93.3574 28.3185 93.2588 28.238C93.1641 28.1542 93.1162 27.9774 93.1162 27.7086V27.6281C92.8945 27.8767 92.6372 28.0617 92.3442 28.1826C92.0513 28.3002 91.7261 28.359 91.3682 28.359C91.1641 28.359 90.9443 28.3151 90.709 28.2279C90.478 28.1373 90.2798 27.9943 90.1167 27.7996C89.9531 27.6045 89.8711 27.3458 89.8711 27.023ZM91.3989 26.9777C91.3989 27.1593 91.457 27.3222 91.5732 27.4667C91.6919 27.6113 91.8647 27.6835 92.0889 27.6835C92.3276 27.6835 92.5229 27.6397 92.6763 27.5525C92.8335 27.4614 92.9492 27.3723 93.0244 27.2851V25.6162C92.7549 25.6567 92.4961 25.7169 92.2476 25.7979C91.999 25.8749 91.7939 26.0045 91.6343 26.1862C91.4775 26.3639 91.3989 26.628 91.3989 26.9777ZM98.2666 28.3893C97.9839 28.3893 97.7397 28.3541 97.5356 28.2833C97.335 28.2164 97.1885 28.1624 97.0962 28.1219C97.0142 28.0916 96.9463 28.0766 96.8921 28.0766C96.8135 28.0766 96.7588 28.0916 96.728 28.1219C96.6978 28.1489 96.6655 28.1773 96.6313 28.2077C96.6011 28.2347 96.5439 28.2482 96.4629 28.2482C96.3975 28.2482 96.3403 28.2347 96.2886 28.2077C96.2417 28.1773 96.2173 28.1388 96.2173 28.0916C96.2173 28.0314 96.2139 27.9355 96.2075 27.8044C96.2041 27.67 96.1987 27.5255 96.1919 27.3708C96.1851 27.2128 96.1777 27.0649 96.1719 26.9271C96.1685 26.7893 96.1665 26.6853 96.1665 26.6145C96.1665 26.5374 96.1899 26.482 96.2383 26.4483C96.2886 26.4145 96.3438 26.3977 96.4014 26.3977C96.5239 26.3977 96.5957 26.4348 96.6157 26.5085C96.6367 26.5827 96.6636 26.6718 96.6978 26.7759C96.7354 26.8765 96.8013 27.023 96.8975 27.2148C96.9585 27.3256 97.0464 27.4397 97.1626 27.5573C97.2817 27.6715 97.4287 27.7673 97.6021 27.8449C97.7793 27.922 97.9805 27.9605 98.2056 27.9605C98.4917 27.9605 98.7207 27.9085 98.8955 27.8044C99.0723 27.7004 99.1606 27.5457 99.1606 27.3405C99.1606 27.1724 99.1079 27.0298 99.0024 26.9122C98.8999 26.7908 98.7402 26.6766 98.522 26.5692C98.3076 26.4617 98.0327 26.3456 97.6997 26.2213C97.478 26.1308 97.2603 26.0195 97.0454 25.8884C96.8335 25.754 96.6567 25.5844 96.5137 25.3792C96.374 25.1745 96.3042 24.9239 96.3042 24.6281C96.3042 24.3323 96.3975 24.0717 96.585 23.8467C96.7725 23.6212 97.0195 23.4468 97.3267 23.3225C97.6323 23.1944 97.9668 23.1308 98.3276 23.1308C98.6514 23.1308 98.9082 23.1727 99.0996 23.2565C99.2905 23.3375 99.4248 23.3779 99.5034 23.3779C99.5781 23.3779 99.6211 23.3591 99.6304 23.3225C99.6445 23.2854 99.6621 23.2483 99.6821 23.2112C99.7021 23.1746 99.7334 23.1476 99.7734 23.1308C99.8179 23.1139 99.8623 23.1052 99.9067 23.1052C99.9717 23.1052 100.029 23.1207 100.081 23.151C100.132 23.1809 100.157 23.2247 100.157 23.2821C100.157 23.3124 100.154 23.3948 100.147 23.5292C100.143 23.6602 100.142 23.8029 100.142 23.9575C100.142 24.0751 100.147 24.1844 100.157 24.2851C100.167 24.3829 100.172 24.4653 100.172 24.5323C100.172 24.6233 100.148 24.6869 100.101 24.724C100.054 24.7611 99.9985 24.7794 99.9375 24.7794C99.8252 24.7794 99.7588 24.749 99.7378 24.6888C99.687 24.5477 99.6138 24.3896 99.5181 24.2148C99.4263 24.0399 99.2905 23.8886 99.1099 23.7609C98.9326 23.6299 98.6885 23.5644 98.3789 23.5644C98.2456 23.5644 98.1182 23.5846 97.9951 23.6246C97.877 23.6617 97.7793 23.7238 97.7041 23.8115C97.6289 23.8987 97.5918 24.0129 97.5918 24.1541C97.5918 24.3863 97.6943 24.5742 97.8984 24.7187C98.1025 24.8599 98.3906 24.9996 98.7617 25.1374C99.0654 25.2482 99.3516 25.3758 99.6211 25.5204C99.8931 25.6649 100.113 25.8432 100.279 26.0551C100.45 26.2633 100.535 26.522 100.535 26.8313C100.535 27.3256 100.339 27.7086 99.9478 27.9808C99.5557 28.253 98.9956 28.3893 98.2666 28.3893ZM102.625 30.5067C102.465 30.5067 102.306 30.4715 102.15 30.4007C101.993 30.3337 101.861 30.2398 101.756 30.1184C101.654 30.0008 101.603 29.8683 101.603 29.7204C101.603 29.522 101.655 29.3692 101.761 29.2613C101.867 29.1573 101.991 29.1052 102.134 29.1052L102.728 29.7354C102.887 29.732 103.03 29.6833 103.156 29.5894C103.282 29.4983 103.407 29.3572 103.53 29.1659C103.652 28.9742 103.787 28.727 103.933 28.4245L101.95 24.0635C101.859 23.8886 101.763 23.7759 101.664 23.7258C101.566 23.6718 101.453 23.6381 101.327 23.6246C101.255 23.6179 101.207 23.6048 101.184 23.5846C101.157 23.561 101.143 23.5123 101.143 23.4382C101.143 23.4011 101.158 23.3577 101.189 23.3071C101.216 23.2565 101.257 23.2315 101.312 23.2315H103.968C104.027 23.2315 104.069 23.2565 104.097 23.3071C104.127 23.3577 104.143 23.4011 104.143 23.4382C104.143 23.5494 104.086 23.6111 103.974 23.6246C103.858 23.6381 103.737 23.6583 103.611 23.6853C103.485 23.7123 103.422 23.7691 103.422 23.8568L104.623 26.9474L105.701 23.8616C105.701 23.7711 105.633 23.7123 105.496 23.6853C105.364 23.6583 105.238 23.6381 105.119 23.6246C105.006 23.6111 104.949 23.5494 104.949 23.4382C104.949 23.4011 104.963 23.3577 104.99 23.3071C105.022 23.2565 105.065 23.2315 105.124 23.2315H106.907C106.965 23.2315 107.007 23.2565 107.035 23.3071C107.065 23.3577 107.081 23.4011 107.081 23.4382C107.081 23.5123 107.067 23.561 107.04 23.5846C107.016 23.6048 106.968 23.6179 106.897 23.6246C106.771 23.6381 106.665 23.6718 106.58 23.7258C106.495 23.7759 106.409 23.8886 106.325 24.0635L104.863 27.7086C104.72 28.055 104.575 28.3941 104.429 28.727C104.282 29.0599 104.124 29.3606 103.954 29.6294C103.783 29.8987 103.591 30.1121 103.376 30.2697C103.162 30.4277 102.911 30.5067 102.625 30.5067Z" fill="#000334"/>
<path d="M0 14.0581C0 6.92979 5.85693 1.15095 13.0815 1.15095H36.6279V24.0929C36.6279 31.2212 30.771 37 23.5464 37H0V14.0581Z" fill="#0011FF"/>
<path d="M12.7407 19.0627V28.9588H11.5376V16.4279L25.6641 29.9483H28.3779L28.7793 7.68184H21.6758V17.3307L23.5664 19.0627V8.9012H27.1753V28.9588H25.9302L10.335 13.7936V30.3525L14.2305 30.4431V20.7942L12.7407 19.0627Z" stroke="white" stroke-width="0.5"/>
<path d="M7.84863 30.1955H9.13184V11.1593L25.6641 26.9796L25.3984 25.2477L7.84863 8.42424V30.1955Z" stroke="white" stroke-width="0.5"/>
<path d="M10.2417 7.68184H8.38086L25.9722 24.3314V10.0305H24.7695V21.697L10.2417 7.68184Z" stroke="white" stroke-width="0.5"/>
<path d="M31.4775 3.99677L31.6274 0.772278L28.333 0.625338L28.1831 3.84983L31.4775 3.99677Z" fill="white"/>
<path d="M34.4121 7.1437L34.562 3.91969L31.2676 3.77275L31.1177 6.99676L34.4121 7.1437Z" fill="white"/>
<path d="M37.3472 10.2906L37.4976 7.06613L34.2031 6.91919L34.0527 10.1432L37.3472 10.2906Z" fill="white"/>
<path d="M34.5522 4.13359L34.7026 0.909582L31.4082 0.762642L31.2578 3.98665L34.5522 4.13359Z" fill="#0011FF"/>
<path d="M37.6274 4.2709L37.7778 1.04641L34.4834 0.899466L34.333 4.12396L37.6274 4.2709Z" fill="white"/>
<path d="M37.377 7.27618L37.5273 4.05169L34.2329 3.90475L34.0825 7.12924L37.377 7.27618Z" fill="#0011FF"/>
<path d="M37.958 3.65905L38.1079 0.434556L35.0332 0.297733L34.8833 3.52174L37.958 3.65905Z" fill="#0011FF"/>
</svg>
